Playfair-2_3-Roman.glyphspackage
{
color = 4;
glyphname = numbersign;
layers = (
{
layerId = "DF17D77B-A5C4-4843-826A-BC0F1C4CB224";
shapes = (
{
closed = 1;
nodes = (
(418,26,l),
(542,666,l),
(452,641,l),
(328,0,l)
);
},
{
closed = 1;
nodes = (
(548,193,l),
(548,194,l),
(45,54,l),
(45,53,l)
);
},
{
closed = 1;
nodes = (
(211,-32,l),
(335,609,l),
(245,584,l),
(121,-57,l)
);
},
{
closed = 1;
nodes = (
(613,532,l),
(613,533,l),
(111,393,l),
(111,392,l)
);
}
);
width = 659;
},
{
layerId = "7300F074-2CFD-43CC-B20F-1BF1EAE6C2C7";
shapes = (
{
closed = 1;
nodes = (
(417,25,l),
(540,665,l),
(460,643,l),
(337,3,l)
);
},
{
closed = 1;
nodes = (
(570,188,l),
(584,262,l),
(34,109,l),
(20,35,l)
);
},
{
closed = 1;
nodes = (
(203,-35,l),
(326,606,l),
(246,583,l),
(123,-57,l)
);
},
{
closed = 1;
nodes = (
(628,491,l),
(642,565,l),
(92,412,l),
(78,338,l)
);
}
);
width = 662;
},
{
layerId = "2895B92B-45F5-4972-B85C-1A160E6E6488";
shapes = (
{
closed = 1;
nodes = (
(534,36,l),
(657,676,l),
(577,654,l),
(454,14,l)
);
},
{
closed = 1;
nodes = (
(687,199,l),
(701,273,l),
(71,97,l),
(57,24,l)
);
},
{
closed = 1;
nodes = (
(240,-46,l),
(363,595,l),
(283,572,l),
(160,-68,l)
);
},
{
closed = 1;
nodes = (
(745,503,l),
(759,576,l),
(129,401,l),
(115,327,l)
);
}
);
width = 816;
},
{
layerId = "F497C50F-30EB-4580-9148-0005B36D0333";
shapes = (
{
closed = 1;
nodes = (
(540,41,l),
(664,682,l),
(534,645,l),
(410,5,l)
);
},
{
closed = 1;
nodes = (
(670,209,l),
(670,210,l),
(57,39,l),
(57,38,l)
);
},
{
closed = 1;
nodes = (
(263,-36,l),
(387,605,l),
(257,568,l),
(133,-72,l)
);
},
{
closed = 1;
nodes = (
(736,547,l),
(736,548,l),
(123,377,l),
(123,376,l)
);
}
);
width = 793;
},
{
layerId = "41FE8A15-28AA-4FFF-A503-D6748EB37864";
shapes = (
{
closed = 1;
nodes = (
(640,52,l),
(764,693,l),
(634,656,l),
(510,16,l)
);
},
{
closed = 1;
nodes = (
(770,220,l),
(770,221,l),
(77,28,l),
(77,27,l)
);
},
{
closed = 1;
nodes = (
(283,-47,l),
(407,593,l),
(277,557,l),
(153,-84,l)
);
},
{
closed = 1;
nodes = (
(836,558,l),
(836,559,l),
(143,366,l),
(143,365,l)
);
}
);
width = 913;
},
{
layerId = "2AEC198B-4747-4E5F-80A7-B5A71C2761F9";
shapes = (
{
closed = 1;
nodes = (
(510,37,l),
(634,677,l),
(544,652,l),
(420,12,l)
);
},
{
closed = 1;
nodes = (
(640,204,l),
(640,205,l),
(57,43,l),
(57,42,l)
);
},
{
closed = 1;
nodes = (
(223,-43,l),
(347,598,l),
(257,572,l),
(133,-68,l)
);
},
{
closed = 1;
nodes = (
(705,543,l),
(706,544,l),
(123,382,l),
(123,381,l)
);
}
);
width = 763;
},
{
layerId = "29EF49B2-C370-4E88-B36E-A4ACD23E3F3A";
shapes = (
{
closed = 1;
nodes = (
(540,41,l),
(664,681,l),
(534,645,l),
(410,4,l)
);
},
{
closed = 1;
nodes = (
(693,204,l),
(707,277,l),
(44,93,l),
(30,19,l)
);
},
{
closed = 1;
nodes = (
(263,-36,l),
(387,604,l),
(257,568,l),
(133,-73,l)
);
},
{
closed = 1;
nodes = (
(751,507,l),
(765,581,l),
(102,396,l),
(88,323,l)
);
}
);
width = 795;
},
{
layerId = "58AEE805-6805-4A0B-A273-5ABBCB55D365";
shapes = (
{
closed = 1;
nodes = (
(617,49,l),
(741,690,l),
(611,653,l),
(487,13,l)
);
},
{
closed = 1;
nodes = (
(770,212,l),
(784,286,l),
(61,84,l),
(47,11,l)
);
},
{
closed = 1;
nodes = (
(280,-45,l),
(404,596,l),
(274,560,l),
(150,-81,l)
);
},
{
closed = 1;
nodes = (
(828,516,l),
(842,589,l),
(119,388,l),
(105,314,l)
);
}
);
width = 889;
}
);
unicode = 35;
userData = {
KernOnSpecialSpacing = {
};
};
}
{
color = 4;
glyphname = ampersand;
kernRight = KO_ampersand;
layers = (
{
layerId = "DF17D77B-A5C4-4843-826A-BC0F1C4CB224";
shapes = (
{
closed = 1;
nodes = (
(533,-14,o),
(671,104,o),
(760,341,c),
(759,341,l),
(671,127,o),
(547,20,o),
(388,20,cs),
(235,20,o),
(135,120,o),
(135,273,cs),
(135,401,o),
(204,527,o),
(275,527,cs),
(308,527,o),
(325,500,o),
(325,446,cs),
(325,360,o),
(282,288,o),
(209,250,c),
(209,249,l),
(450,356,o),
(625,519,o),
(625,637,cs),
(625,682,o),
(601,712,o),
(565,712,cs),
(538,712,o),
(519,695,o),
(519,670,cs),
(519,625,o),
(581,599,o),
(581,555,cs),
(581,482,o),
(415,344,o),
(218,254,c),
(219,254,l),
(339,333,o),
(390,390,o),
(390,445,cs),
(390,496,o),
(348,528,o),
(281,528,cs),
(151,528,o),
(47,405,o),
(47,253,cs),
(47,92,o),
(165,-14,o),
(344,-14,cs)
);
},
{
closed = 1;
nodes = (
(556,163,o),
(577,183,o),
(577,209,cs),
(577,255,o),
(506,294,o),
(506,319,cs),
(506,338,o),
(548,348,o),
(627,348,cs),
(788,348,o),
(826,304,o),
(921,304,cs),
(1010,304,o),
(1068,344,o),
(1068,404,cs),
(1068,436,o),
(1052,456,o),
(1025,456,cs),
(952,456,o),
(991,305,o),
(913,305,cs),
(850,305,o),
(766,406,o),
(657,406,cs),
(560,406,o),
(475,326,o),
(475,234,cs),
(475,190,o),
(495,163,o),
(527,163,cs)
);
}
);
width = 1108;
},
{
guides = (
{
angle = 74.4;
pos = (-31,150);
},
{
angle = 74.4;
pos = (66,150);
},
{
angle = 74.4;
pos = (235,385);
},
{
angle = 74.4;
pos = (222,150);
},
{
angle = 74.4;
pos = (282,-150);
},
{
angle = 74.4;
pos = (243,-150);
},
{
angle = 74.4;
pos = (556,-150);
},
{
angle = 74.4;
pos = (983,91);
},
{
angle = 74.4;
pos = (333,-150);
},
{
angle = 74.4;
pos = (455,-150);
},
{
angle = 74.4;
pos = (218,150);
}
);
layerId = "7300F074-2CFD-43CC-B20F-1BF1EAE6C2C7";
shapes = (
{
closed = 1;
nodes = (
(586,-14,o),
(730,104,o),
(785,327,c),
(719,339,l),
(676,157,o),
(567,65,o),
(392,65,cs),
(232,65,o),
(135,143,o),
(135,272,cs),
(135,374,o),
(195,461,o),
(265,461,cs),
(295,461,o),
(311,446,o),
(311,417,cs),
(311,366,o),
(260,312,o),
(192,290,c),
(219,224,l),
(474,340,o),
(650,503,o),
(650,623,cs),
(650,674,o),
(615,712,o),
(569,712,cs),
(532,712,o),
(504,686,o),
(504,652,cs),
(504,615,o),
(537,593,o),
(537,555,cs),
(537,500,o),
(467,432,o),
(309,333,c),
(333,329,l),
(373,375,o),
(390,409,o),
(390,443,cs),
(390,496,o),
(349,528,o),
(281,528,cs),
(150,528,o),
(47,408,o),
(47,254,cs),
(47,87,o),
(168,-14,o),
(369,-14,cs)
);
},
{
closed = 1;
nodes = (
(577,153,o),
(599,173,o),
(599,202,cs),
(599,231,o),
(576,249,o),
(576,278,cs),
(576,310,o),
(606,328,o),
(660,328,cs),
(719,328,o),
(830,307,o),
(902,307,cs),
(1002,307,o),
(1068,348,o),
(1068,410,cs),
(1068,445,o),
(1048,466,o),
(1015,466,cs),
(947,466,o),
(973,375,o),
(894,375,cs),
(848,375,o),
(774,406,o),
(687,406,cs),
(560,406,o),
(477,341,o),
(477,241,cs),
(477,186,o),
(502,153,o),
(544,153,cs)
);
}
);
width = 1118;
},
{
guides = (
{
angle = 74.4;
pos = (-31,150);
},
{
angle = 74.4;
pos = (66,150);
},
{
angle = 74.4;
pos = (235,385);
},
{
angle = 74.4;
pos = (222,150);
},
{
angle = 74.4;
pos = (282,-150);
},
{
angle = 74.4;
pos = (243,-150);
},
{
angle = 74.4;
pos = (556,-150);
},
{
angle = 74.4;
pos = (983,91);
},
{
angle = 74.4;
pos = (333,-150);
},
{
angle = 74.4;
pos = (455,-150);
},
{
angle = 74.4;
pos = (218,150);
}
);
layerId = "2895B92B-45F5-4972-B85C-1A160E6E6488";
shapes = (
{
closed = 1;
nodes = (
(725,-14,o),
(902,100,o),
(991,327,c),
(927,339,l),
(854,151,o),
(716,65,o),
(487,65,cs),
(273,65,o),
(153,140,o),
(153,274,cs),
(153,380,o),
(228,461,o),
(327,461,cs),
(370,461,o),
(394,444,o),
(394,414,cs),
(394,367,o),
(337,321,o),
(239,289,c),
(266,223,l),
(584,339,o),
(807,504,o),
(807,624,cs),
(807,674,o),
(769,712,o),
(720,712,cs),
(684,712,o),
(656,690,o),
(656,660,cs),
(656,627,o),
(690,602,o),
(690,567,cs),
(690,508,o),
(595,432,o),
(396,332,c),
(415,328,l),
(453,363,o),
(473,401,o),
(473,436,cs),
(473,493,o),
(420,528,o),
(336,528,cs),
(183,528,o),
(65,412,o),
(65,261,cs),
(65,88,o),
(213,-14,o),
(462,-14,cs)
);
},
{
closed = 1;
nodes = (
(719,153,o),
(744,173,o),
(744,201,cs),
(744,231,o),
(714,247,o),
(714,276,cs),
(714,310,o),
(757,327,o),
(843,327,cs),
(936,327,o),
(1062,307,o),
(1156,307,cs),
(1283,307,o),
(1356,344,o),
(1356,409,cs),
(1356,443,o),
(1334,464,o),
(1299,464,cs),
(1226,464,o),
(1256,375,o),
(1144,375,cs),
(1079,375,o),
(975,405,o),
(865,405,cs),
(706,405,o),
(609,343,o),
(609,241,cs),
(609,186,o),
(637,153,o),
(684,153,cs)
);
}
);
width = 1420;
},
{
layerId = "F497C50F-30EB-4580-9148-0005B36D0333";
shapes = (
{
closed = 1;
nodes = (
(589,-14,o),
(722,96,o),
(794,337,c),
(793,337,l),
(736,164,o),
(622,75,o),
(458,75,cs),
(303,75,o),
(219,155,o),
(219,304,cs),
(219,416,o),
(268,531,o),
(316,531,cs),
(337,531,o),
(349,507,o),
(349,465,cs),
(349,391,o),
(311,306,o),
(253,250,c),
(253,249,l),
(495,358,o),
(669,517,o),
(669,630,cs),
(669,678,o),
(638,712,o),
(595,712,cs),
(559,712,o),
(533,689,o),
(533,656,cs),
(533,605,o),
(594,566,o),
(594,519,cs),
(594,471,o),
(526,405,o),
(394,324,c),
(394,323,l),
(450,372,o),
(474,408,o),
(474,444,cs),
(474,499,o),
(417,533,o),
(326,533,cs),
(157,533,o),
(31,412,o),
(31,248,cs),
(31,86,o),
(160,-14,o),
(370,-14,cs)
);
},
{
closed = 1;
nodes = (
(604,152,o),
(631,176,o),
(631,208,cs),
(631,277,o),
(515,308,o),
(515,329,cs),
(515,341,o),
(571,348,o),
(650,348,cs),
(768,348,o),
(836,308,o),
(926,308,cs),
(1033,308,o),
(1113,363,o),
(1113,436,cs),
(1113,475,o),
(1090,498,o),
(1051,498,cs),
(943,498,o),
(988,309,o),
(937,309,cs),
(896,309,o),
(834,438,o),
(715,438,cs),
(600,438,o),
(484,340,o),
(484,243,cs),
(484,191,o),
(519,152,o),
(567,152,cs)
);
}
);
width = 1148;
},
{
layerId = "41FE8A15-28AA-4FFF-A503-D6748EB37864";
shapes = (
{
closed = 1;
nodes = (
(682,-14,o),
(849,96,o),
(952,337,c),
(951,337,l),
(863,164,o),
(712,75,o),
(523,75,cs),
(340,75,o),
(232,155,o),
(232,304,cs),
(232,426,o),
(296,531,o),
(364,531,cs),
(392,531,o),
(412,503,o),
(412,455,cs),
(412,373,o),
(365,303,o),
(282,250,c),
(283,249,l),
(560,358,o),
(764,518,o),
(764,630,cs),
(764,678,o),
(734,712,o),
(690,712,cs),
(653,712,o),
(628,689,o),
(628,656,cs),
(628,605,o),
(689,566,o),
(689,519,cs),
(689,474,o),
(557,383,o),
(460,332,c),
(462,332,l),
(519,381,o),
(537,413,o),
(537,444,cs),
(537,499,o),
(473,533,o),
(372,533,cs),
(184,533,o),
(44,412,o),
(44,248,cs),
(44,86,o),
(199,-14,o),
(431,-14,cs)
);
},
{
closed = 1;
nodes = (
(701,152,o),
(728,176,o),
(728,208,cs),
(728,277,o),
(615,308,o),
(615,329,cs),
(615,341,o),
(674,348,o),
(766,348,cs),
(976,348,o),
(1001,308,o),
(1133,308,cs),
(1249,308,o),
(1327,363,o),
(1327,436,cs),
(1327,475,o),
(1304,498,o),
(1264,498,cs),
(1158,498,o),
(1207,310,o),
(1147,310,cs),
(1076,310,o),
(997,438,o),
(828,438,cs),
(708,438,o),
(581,340,o),
(581,243,cs),
(581,191,o),
(617,152,o),
(666,152,cs)
);
}
);
width = 1365;
},
{
layerId = "2AEC198B-4747-4E5F-80A7-B5A71C2761F9";
shapes = (
{
closed = 1;
nodes = (
(645,-14,o),
(808,107,o),
(904,348,c),
(903,348,l),
(814,125,o),
(664,14,o),
(463,14,cs),
(268,14,o),
(152,114,o),
(152,281,cs),
(152,415,o),
(219,526,o),
(301,526,cs),
(343,526,o),
(367,494,o),
(367,435,cs),
(367,345,o),
(339,292,o),
(242,249,c),
(242,248,l),
(520,353,o),
(722,514,o),
(722,631,cs),
(722,679,o),
(692,712,o),
(648,712,cs),
(618,712,o),
(598,695,o),
(598,671,cs),
(598,627,o),
(663,600,o),
(663,540,cs),
(663,477,o),
(487,343,o),
(257,255,c),
(257,254,l),
(387,326,o),
(444,384,o),
(444,439,cs),
(444,494,o),
(394,528,o),
(314,528,cs),
(169,528,o),
(60,416,o),
(60,265,cs),
(60,96,o),
(202,-14,o),
(420,-14,cs)
);
},
{
closed = 1;
nodes = (
(663,163,o),
(686,182,o),
(686,207,cs),
(686,257,o),
(598,284,o),
(598,321,cs),
(598,339,o),
(655,348,o),
(766,348,cs),
(942,348,o),
(987,304,o),
(1096,304,cs),
(1204,304,o),
(1272,347,o),
(1272,413,cs),
(1272,447,o),
(1253,466,o),
(1224,466,cs),
(1135,466,o),
(1197,305,o),
(1092,305,cs),
(1015,305,o),
(924,406,o),
(787,406,cs),
(661,406,o),
(570,337,o),
(570,242,cs),
(570,193,o),
(594,163,o),
(633,163,cs)
);
}
);
width = 1322;
},
{
layerId = "29EF49B2-C370-4E88-B36E-A4ACD23E3F3A";
shapes = (
{
closed = 1;
nodes = (
(602,-14,o),
(743,97,o),
(819,337,c),
(757,349,l),
(702,172,o),
(599,85,o),
(447,85,cs),
(304,85,o),
(219,163,o),
(219,293,cs),
(219,385,o),
(264,466,o),
(315,466,cs),
(337,466,o),
(349,451,o),
(349,423,cs),
(349,372,o),
(306,322,o),
(244,288,c),
(280,224,l),
(500,339,o),
(669,509,o),
(669,628,cs),
(669,678,o),
(639,712,o),
(594,712,cs),
(558,712,o),
(533,690,o),
(533,658,cs),
(533,622,o),
(564,597,o),
(564,561,cs),
(564,508,o),
(496,437,o),
(361,349,c),
(397,329,l),
(451,375,o),
(474,409,o),
(474,444,cs),
(474,499,o),
(417,533,o),
(326,533,cs),
(157,533,o),
(31,412,o),
(31,249,cs),
(31,85,o),
(160,-14,o),
(374,-14,cs)
);
},
{
closed = 1;
nodes = (
(602,152,o),
(631,180,o),
(631,218,cs),
(631,262,o),
(594,302,o),
(594,322,cs),
(594,338,o),
(623,348,o),
(670,348,cs),
(769,348,o),
(835,308,o),
(926,308,cs),
(1033,308,o),
(1113,363,o),
(1113,436,cs),
(1113,475,o),
(1090,498,o),
(1051,498,cs),
(961,498,o),
(990,376,o),
(940,376,cs),
(904,376,o),
(826,438,o),
(724,438,cs),
(600,438,o),
(484,344,o),
(484,243,cs),
(484,191,o),
(517,152,o),
(563,152,cs)
);
}
);
width = 1148;
},
{
layerId = "58AEE805-6805-4A0B-A273-5ABBCB55D365";
shapes = (
{
closed = 1;
nodes = (
(766,-14,o),
(948,97,o),
(1044,337,c),
(982,348,l),
(908,172,o),
(765,85,o),
(550,85,cs),
(353,85,o),
(237,163,o),
(237,293,cs),
(237,385,o),
(303,466,o),
(382,466,cs),
(415,466,o),
(435,451,o),
(435,423,cs),
(435,374,o),
(381,323,o),
(298,290,c),
(331,224,l),
(630,339,o),
(852,510,o),
(852,628,cs),
(852,678,o),
(813,712,o),
(758,712,cs),
(715,712,o),
(683,690,o),
(683,658,cs),
(683,622,o),
(722,597,o),
(722,561,cs),
(722,508,o),
(637,439,o),
(465,351,c),
(482,329,l),
(540,374,o),
(568,408,o),
(568,444,cs),
(568,499,o),
(501,533,o),
(394,533,cs),
(198,533,o),
(49,412,o),
(49,249,cs),
(49,85,o),
(211,-14,o),
(480,-14,cs)
);
},
{
closed = 1;
nodes = (
(764,152,o),
(797,180,o),
(797,218,cs),
(797,262,o),
(756,302,o),
(756,322,cs),
(756,338,o),
(796,348,o),
(866,348,cs),
(982,348,o),
(1083,308,o),
(1194,308,cs),
(1329,308,o),
(1423,363,o),
(1423,436,cs),
(1423,475,o),
(1395,498,o),
(1350,498,cs),
(1248,498,o),
(1283,376,o),
(1201,376,cs),
(1147,376,o),
(1044,438,o),
(919,438,cs),
(758,438,o),
(625,344,o),
(625,243,cs),
(625,191,o),
(664,152,o),
(719,152,cs)
);
}
);
width = 1475;
}
);
unicode = 38;
userData = {
KernOnSpecialSpacing = {
};
};
}
{
color = 6;
glyphname = quotesingle;
kernLeft = KO_quotedbl;
kernRight = KO_quotedbl;
layers = (
{
layerId = "DF17D77B-A5C4-4843-826A-BC0F1C4CB224";
shapes = (
{
closed = 1;
nodes = (
(114,448,l),
(137,575,o),
(168,614,o),
(168,664,cs),
(168,705,o),
(147,730,o),
(114,730,cs),
(81,730,o),
(60,704,o),
(60,662,cs),
(60,613,o),
(90,575,o),
(113,448,c)
);
}
);
width = 228;
},
{
layerId = "7300F074-2CFD-43CC-B20F-1BF1EAE6C2C7";
shapes = (
{
closed = 1;
nodes = (
(121,428,l),
(121,535,o),
(148,611,o),
(148,689,cs),
(148,734,o),
(129,760,o),
(94,760,cs),
(59,760,o),
(40,734,o),
(40,688,cs),
(40,614,o),
(63,536,o),
(67,428,c)
);
}
);
width = 188;
},
{
layerId = "2895B92B-45F5-4972-B85C-1A160E6E6488";
shapes = (
{
closed = 1;
nodes = (
(147,428,l),
(145,535,o),
(177,611,o),
(177,689,cs),
(177,733,o),
(158,760,o),
(120,760,cs),
(82,760,o),
(62,734,o),
(62,688,cs),
(62,614,o),
(90,536,o),
(93,428,c)
);
}
);
width = 239;
},
{
layerId = "F497C50F-30EB-4580-9148-0005B36D0333";
shapes = (
{
closed = 1;
nodes = (
(132,438,l),
(175,545,o),
(225,581,o),
(225,643,cs),
(225,694,o),
(186,730,o),
(131,730,cs),
(76,730,o),
(37,693,o),
(37,642,cs),
(37,580,o),
(86,545,o),
(130,438,c)
);
}
);
width = 262;
},
{
layerId = "41FE8A15-28AA-4FFF-A503-D6748EB37864";
shapes = (
{
closed = 1;
nodes = (
(166,438,l),
(216,545,o),
(261,581,o),
(261,643,cs),
(261,694,o),
(220,730,o),
(164,730,cs),
(109,730,o),
(68,693,o),
(68,642,cs),
(68,580,o),
(115,545,o),
(165,438,c)
);
}
);
width = 329;
},
{
layerId = "2AEC198B-4747-4E5F-80A7-B5A71C2761F9";
shapes = (
{
closed = 1;
nodes = (
(134,468,l),
(155,556,o),
(187,619,o),
(187,666,cs),
(187,705,o),
(167,730,o),
(133,730,cs),
(100,730,o),
(79,704,o),
(79,664,cs),
(79,619,o),
(110,556,o),
(133,468,c)
);
}
);
width = 266;
},
{
layerId = "29EF49B2-C370-4E88-B36E-A4ACD23E3F3A";
shapes = (
{
closed = 1;
nodes = (
(158,428,l),
(187,543,o),
(225,600,o),
(225,668,cs),
(225,732,o),
(190,770,o),
(131,770,cs),
(72,770,o),
(37,732,o),
(37,667,cs),
(37,599,o),
(74,543,o),
(104,428,c)
);
}
);
width = 262;
},
{
layerId = "58AEE805-6805-4A0B-A273-5ABBCB55D365";
shapes = (
{
closed = 1;
nodes = (
(175,428,l),
(208,543,o),
(252,600,o),
(252,668,cs),
(252,732,o),
(213,770,o),
(148,770,cs),
(83,770,o),
(44,732,o),
(44,667,cs),
(44,599,o),
(87,543,o),
(121,428,c)
);
}
);
width = 298;
}
);
unicode = 39;
userData = {
KernOnSpecialSpacing = {
L = quotes;
R = quotes;
};
};
}
{
color = 6;
glyphname = asterisk;
layers = (
{
layerId = "DF17D77B-A5C4-4843-826A-BC0F1C4CB224";
shapes = (
{
closed = 1;
nodes = (
(417,642,o),
(397,648,o),
(374,634,cs),
(341,614,o),
(311,564,o),
(245,518,c),
(245,517,l),
(322,551,o),
(378,552,o),
(411,571,cs),
(435,585,o),
(439,605,o),
(428,623,cs)
);
},
{
closed = 1;
nodes = (
(440,430,o),
(435,452,o),
(411,465,cs),
(377,483,o),
(319,484,o),
(246,518,c),
(245,518,l),
(313,468,o),
(342,420,o),
(375,401,cs),
(399,387,o),
(418,394,o),
(429,412,cs)
);
},
{
closed = 1;
nodes = (
(267,307,o),
(283,321,o),
(282,349,cs),
(281,387,o),
(253,438,o),
(246,518,c),
(245,518,l),
(236,435,o),
(209,386,o),
(209,348,cs),
(209,320,o),
(224,307,o),
(245,307,cs)
);
},
{
closed = 1;
nodes = (
(73,393,o),
(93,386,o),
(117,401,cs),
(149,421,o),
(179,471,o),
(245,517,c),
(245,518,l),
(168,484,o),
(112,483,o),
(79,464,cs),
(55,450,o),
(51,430,o),
(62,412,cs)
);
},
{
closed = 1;
nodes = (
(53,604,o),
(56,584,o),
(81,570,cs),
(113,552,o),
(173,552,o),
(246,517,c),
(246,518,l),
(178,568,o),
(149,616,o),
(116,635,cs),
(92,649,o),
(73,642,o),
(63,623,cs)
);
},
{
closed = 1;
nodes = (
(224,729,o),
(209,715,o),
(209,688,cs),
(209,650,o),
(238,598,o),
(245,518,c),
(246,518,l),
(255,601,o),
(282,650,o),
(282,688,cs),
(282,716,o),
(267,729,o),
(246,729,cs)
);
}
);
width = 492;
},
{
layerId = "7300F074-2CFD-43CC-B20F-1BF1EAE6C2C7";
shapes = (
{
closed = 1;
nodes = (
(418,643,o),
(394,657,o),
(359,637,cs),
(326,618,o),
(290,585,o),
(238,533,c),
(255,504,l),
(330,524,o),
(373,537,o),
(406,556,cs),
(440,576,o),
(441,603,o),
(430,623,cs)
);
},
{
closed = 1;
nodes = (
(441,432,o),
(441,460,o),
(406,480,cs),
(373,499,o),
(326,514,o),
(255,533,c),
(239,504,l),
(293,449,o),
(326,418,o),
(359,399,cs),
(394,380,o),
(417,392,o),
(429,412,cs)
);
},
{
closed = 1;
nodes = (
(269,307,o),
(294,321,o),
(293,361,cs),
(293,399,o),
(283,447,o),
(264,518,c),
(231,518,l),
(210,443,o),
(200,399,o),
(200,361,cs),
(201,321,o),
(223,308,o),
(246,307,cs)
);
},
{
closed = 1;
nodes = (
(75,393,o),
(100,379,o),
(134,399,cs),
(167,418,o),
(203,451,o),
(255,503,c),
(239,532,l),
(163,512,o),
(120,499,o),
(87,480,cs),
(53,459,o),
(53,434,o),
(64,413,cs)
);
},
{
closed = 1;
nodes = (
(53,604,o),
(53,576,o),
(87,556,cs),
(120,537,o),
(167,522,o),
(238,503,c),
(255,532,l),
(200,588,o),
(167,618,o),
(134,637,cs),
(99,656,o),
(77,644,o),
(64,624,cs)
);
},
{
closed = 1;
nodes = (
(224,729,o),
(200,715,o),
(200,675,cs),
(200,637,o),
(210,589,o),
(230,518,c),
(263,518,l),
(283,593,o),
(293,637,o),
(293,675,cs),
(293,715,o),
(270,729,o),
(247,729,cs)
);
}
);
width = 493;
},
{
layerId = "2895B92B-45F5-4972-B85C-1A160E6E6488";
shapes = (
{
closed = 1;
nodes = (
(429,643,o),
(405,657,o),
(370,637,cs),
(337,618,o),
(301,585,o),
(249,533,c),
(266,504,l),
(341,524,o),
(384,537,o),
(417,556,cs),
(451,576,o),
(452,603,o),
(441,623,cs)
);
},
{
closed = 1;
nodes = (
(452,432,o),
(452,460,o),
(417,480,cs),
(384,499,o),
(337,514,o),
(266,533,c),
(250,504,l),
(304,449,o),
(337,418,o),
(370,399,cs),
(405,380,o),
(428,392,o),
(440,412,cs)
);
},
{
closed = 1;
nodes = (
(280,307,o),
(305,321,o),
(304,361,cs),
(304,399,o),
(294,447,o),
(275,518,c),
(242,518,l),
(221,443,o),
(211,399,o),
(211,361,cs),
(212,321,o),
(234,308,o),
(257,307,cs)
);
},
{
closed = 1;
nodes = (
(86,393,o),
(111,379,o),
(145,399,cs),
(178,418,o),
(214,451,o),
(266,503,c),
(250,532,l),
(174,512,o),
(131,499,o),
(98,480,cs),
(64,459,o),
(64,434,o),
(75,413,cs)
);
},
{
closed = 1;
nodes = (
(64,604,o),
(64,576,o),
(98,556,cs),
(131,537,o),
(178,522,o),
(249,503,c),
(266,532,l),
(211,588,o),
(178,618,o),
(145,637,cs),
(110,656,o),
(88,644,o),
(75,624,cs)
);
},
{
closed = 1;
nodes = (
(235,729,o),
(211,715,o),
(211,675,cs),
(211,637,o),
(221,589,o),
(241,518,c),
(274,518,l),
(294,593,o),
(304,637,o),
(304,675,cs),
(304,715,o),
(281,729,o),
(258,729,cs)
);
}
);
width = 515;
},
{
layerId = "F497C50F-30EB-4580-9148-0005B36D0333";
shapes = (
{
closed = 1;
nodes = (
(406,648,o),
(379,666,o),
(344,646,cs),
(312,627,o),
(284,579,o),
(236,520,c),
(238,517,l),
(317,530,o),
(368,529,o),
(401,548,cs),
(436,568,o),
(434,599,o),
(419,624,cs)
);
},
{
closed = 1;
nodes = (
(434,437,o),
(436,469,o),
(401,489,cs),
(369,508,o),
(313,508,o),
(238,520,c),
(237,517,l),
(287,455,o),
(312,410,o),
(345,391,cs),
(380,371,o),
(406,388,o),
(420,413,cs)
);
},
{
closed = 1;
nodes = (
(265,307,o),
(294,321,o),
(294,361,cs),
(294,399,o),
(266,447,o),
(239,518,c),
(236,517,l),
(207,443,o),
(181,399,o),
(181,361,cs),
(181,321,o),
(209,307,o),
(238,307,cs)
);
},
{
closed = 1;
nodes = (
(68,388,o),
(95,370,o),
(130,390,cs),
(162,409,o),
(190,457,o),
(238,516,c),
(236,518,l),
(157,506,o),
(106,507,o),
(73,488,cs),
(38,468,o),
(40,437,o),
(55,412,cs)
);
},
{
closed = 1;
nodes = (
(40,599,o),
(38,567,o),
(73,547,cs),
(105,528,o),
(161,528,o),
(236,516,c),
(237,519,l),
(187,581,o),
(162,626,o),
(129,645,cs),
(94,665,o),
(68,648,o),
(54,623,cs)
);
},
{
closed = 1;
nodes = (
(209,729,o),
(180,715,o),
(180,675,cs),
(180,637,o),
(208,589,o),
(235,518,c),
(238,518,l),
(266,593,o),
(293,637,o),
(293,675,cs),
(293,715,o),
(265,729,o),
(237,729,cs)
);
}
);
width = 473;
},
{
layerId = "41FE8A15-28AA-4FFF-A503-D6748EB37864";
shapes = (
{
closed = 1;
nodes = (
(415,648,o),
(388,666,o),
(353,646,cs),
(321,627,o),
(293,579,o),
(245,520,c),
(247,517,l),
(326,530,o),
(377,529,o),
(410,548,cs),
(445,568,o),
(443,599,o),
(428,624,cs)
);
},
{
closed = 1;
nodes = (
(443,437,o),
(445,469,o),
(410,489,cs),
(378,508,o),
(322,508,o),
(247,520,c),
(246,517,l),
(296,455,o),
(321,410,o),
(354,391,cs),
(389,371,o),
(415,388,o),
(429,413,cs)
);
},
{
closed = 1;
nodes = (
(274,307,o),
(303,321,o),
(303,361,cs),
(303,399,o),
(275,447,o),
(248,518,c),
(245,517,l),
(216,443,o),
(190,399,o),
(190,361,cs),
(190,321,o),
(218,307,o),
(247,307,cs)
);
},
{
closed = 1;
nodes = (
(77,388,o),
(104,370,o),
(139,390,cs),
(171,409,o),
(199,457,o),
(247,516,c),
(245,518,l),
(166,506,o),
(115,507,o),
(82,488,cs),
(47,468,o),
(49,437,o),
(64,412,cs)
);
},
{
closed = 1;
nodes = (
(49,599,o),
(47,567,o),
(82,547,cs),
(114,528,o),
(170,528,o),
(245,516,c),
(246,519,l),
(196,581,o),
(171,626,o),
(138,645,cs),
(103,665,o),
(77,648,o),
(63,623,cs)
);
},
{
closed = 1;
nodes = (
(218,729,o),
(189,715,o),
(189,675,cs),
(189,637,o),
(217,589,o),
(244,518,c),
(247,518,l),
(275,593,o),
(302,637,o),
(302,675,cs),
(302,715,o),
(274,729,o),
(246,729,cs)
);
}
);
width = 492;
},
{
layerId = "2AEC198B-4747-4E5F-80A7-B5A71C2761F9";
shapes = (
{
closed = 1;
nodes = (
(431,639,o),
(409,649,o),
(374,629,cs),
(342,610,o),
(309,570,o),
(256,520,c),
(257,517,l),
(331,539,o),
(378,546,o),
(411,565,cs),
(446,585,o),
(449,608,o),
(440,623,cs)
);
},
{
closed = 1;
nodes = (
(449,428,o),
(446,452,o),
(412,472,cs),
(379,490,o),
(328,499,o),
(258,520,c),
(256,517,l),
(312,464,o),
(342,427,o),
(375,408,cs),
(410,388,o),
(431,397,o),
(439,412,cs)
);
},
{
closed = 1;
nodes = (
(275,307,o),
(294,321,o),
(295,361,cs),
(294,398,o),
(276,447,o),
(259,518,c),
(256,518,l),
(238,443,o),
(221,399,o),
(221,361,cs),
(221,320,o),
(239,307,o),
(256,307,cs)
);
},
{
closed = 1;
nodes = (
(83,397,o),
(105,387,o),
(140,407,cs),
(172,426,o),
(205,466,o),
(258,516,c),
(256,519,l),
(183,497,o),
(136,490,o),
(103,471,cs),
(68,450,o),
(65,428,o),
(74,413,cs)
);
},
{
closed = 1;
nodes = (
(65,608,o),
(68,584,o),
(102,564,cs),
(135,546,o),
(186,537,o),
(256,516,c),
(257,519,l),
(202,572,o),
(172,609,o),
(139,628,cs),
(104,648,o),
(83,639,o),
(75,624,cs)
);
},
{
closed = 1;
nodes = (
(239,729,o),
(220,715,o),
(220,675,cs),
(220,637,o),
(238,589,o),
(255,518,c),
(258,518,l),
(276,593,o),
(293,637,o),
(293,675,cs),
(293,715,o),
(275,729,o),
(257,729,cs)
);
}
);
width = 514;
},
{
layerId = "29EF49B2-C370-4E88-B36E-A4ACD23E3F3A";
shapes = (
{
closed = 1;
nodes = (
(406,648,o),
(379,666,o),
(345,646,cs),
(312,627,o),
(280,586,o),
(229,533,c),
(245,504,l),
(320,525,o),
(368,529,o),
(401,548,cs),
(436,568,o),
(434,599,o),
(420,624,cs)
);
},
{
closed = 1;
nodes = (
(434,437,o),
(436,469,o),
(402,489,cs),
(369,508,o),
(317,515,o),
(246,533,c),
(229,504,l),
(285,450,o),
(312,410,o),
(345,391,cs),
(380,371,o),
(406,388,o),
(420,413,cs)
);
},
{
closed = 1;
nodes = (
(265,307,o),
(294,321,o),
(294,361,cs),
(294,399,o),
(274,447,o),
(255,518,c),
(221,518,l),
(202,443,o),
(181,399,o),
(181,361,cs),
(181,321,o),
(209,307,o),
(238,307,cs)
);
},
{
closed = 1;
nodes = (
(68,388,o),
(95,370,o),
(130,390,cs),
(163,409,o),
(194,451,o),
(246,503,c),
(229,532,l),
(155,511,o),
(106,507,o),
(73,488,cs),
(38,468,o),
(40,437,o),
(55,412,cs)
);
},
{
closed = 1;
nodes = (
(40,600,o),
(38,567,o),
(73,547,cs),
(106,528,o),
(158,522,o),
(229,503,c),
(245,532,l),
(190,586,o),
(162,626,o),
(129,645,cs),
(94,666,o),
(68,648,o),
(54,623,cs)
);
},
{
closed = 1;
nodes = (
(209,729,o),
(180,715,o),
(180,675,cs),
(180,637,o),
(200,589,o),
(220,518,c),
(253,518,l),
(273,593,o),
(293,637,o),
(293,675,cs),
(293,715,o),
(265,729,o),
(237,729,cs)
);
}
);
width = 473;
},
{
layerId = "58AEE805-6805-4A0B-A273-5ABBCB55D365";
shapes = (
{
closed = 1;
nodes = (
(415,648,o),
(388,666,o),
(354,646,cs),
(321,627,o),
(289,586,o),
(238,533,c),
(254,504,l),
(329,525,o),
(377,529,o),
(410,548,cs),
(445,568,o),
(443,599,o),
(429,624,cs)
);
},
{
closed = 1;
nodes = (
(443,437,o),
(445,469,o),
(411,489,cs),
(378,508,o),
(326,515,o),
(255,533,c),
(238,504,l),
(294,450,o),
(321,410,o),
(354,391,cs),
(389,371,o),
(415,388,o),
(429,413,cs)
);
},
{
closed = 1;
nodes = (
(274,307,o),
(303,321,o),
(303,361,cs),
(303,399,o),
(283,447,o),
(264,518,c),
(230,518,l),
(211,443,o),
(190,399,o),
(190,361,cs),
(190,321,o),
(218,307,o),
(247,307,cs)
);
},
{
closed = 1;
nodes = (
(77,388,o),
(104,370,o),
(139,390,cs),
(172,409,o),
(203,451,o),
(255,503,c),
(238,532,l),
(164,511,o),
(115,507,o),
(82,488,cs),
(47,468,o),
(49,437,o),
(64,412,cs)
);
},
{
closed = 1;
nodes = (
(49,600,o),
(47,567,o),
(82,547,cs),
(115,528,o),
(167,522,o),
(238,503,c),
(254,532,l),
(199,586,o),
(171,626,o),
(138,645,cs),
(103,666,o),
(77,648,o),
(63,623,cs)
);
},
{
closed = 1;
nodes = (
(218,729,o),
(189,715,o),
(189,675,cs),
(189,637,o),
(209,589,o),
(229,518,c),
(262,518,l),
(282,593,o),
(302,637,o),
(302,675,cs),
(302,715,o),
(274,729,o),
(246,729,cs)
);
}
);
width = 493;
}
);
unicode = 42;
userData = {
KernOnSpecialSpacing = {
};
};
}
{
color = 4;
glyphname = plus;
kernLeft = KO_plus;
kernRight = KO_plus;
layers = (
{
guides = (
{
pos = (260,265);
}
);
layerId = "DF17D77B-A5C4-4843-826A-BC0F1C4CB224";
shapes = (
{
closed = 1;
nodes = (
(324,16,l),
(324,265,l),
(574,265,l),
(574,266,l),
(324,266,l),
(324,517,l),
(323,517,l),
(323,266,l),
(73,266,l),
(73,265,l),
(323,265,l),
(323,16,l)
);
}
);
width = 647;
},
{
guides = (
{
pos = (73,305);
}
);
layerId = "7300F074-2CFD-43CC-B20F-1BF1EAE6C2C7";
shapes = (
{
closed = 1;
nodes = (
(367,15,l),
(367,225,l),
(574,225,l),
(574,305,l),
(367,305,l),
(367,516,l),
(281,516,l),
(281,305,l),
(73,305,l),
(73,225,l),
(281,225,l),
(281,15,l)
);
}
);
width = 647;
},
{
guides = (
{
pos = (260,265);
}
);
layerId = "2895B92B-45F5-4972-B85C-1A160E6E6488";
shapes = (
{
closed = 1;
nodes = (
(367,15,l),
(367,225,l),
(574,225,l),
(574,305,l),
(367,305,l),
(367,516,l),
(281,516,l),
(281,305,l),
(73,305,l),
(73,225,l),
(281,225,l),
(281,15,l)
);
}
);
width = 647;
},
{
guides = (
{
pos = (260,265);
}
);
layerId = "F497C50F-30EB-4580-9148-0005B36D0333";
shapes = (
{
closed = 1;
nodes = (
(314,16,l),
(314,265,l),
(564,265,l),
(564,266,l),
(314,266,l),
(314,517,l),
(313,517,l),
(313,266,l),
(63,266,l),
(63,265,l),
(313,265,l),
(313,16,l)
);
}
);
width = 627;
},
{
guides = (
{
pos = (260,265);
}
);
layerId = "41FE8A15-28AA-4FFF-A503-D6748EB37864";
shapes = (
{
closed = 1;
nodes = (
(314,16,l),
(314,265,l),
(564,265,l),
(564,266,l),
(314,266,l),
(314,517,l),
(313,517,l),
(313,266,l),
(63,266,l),
(63,265,l),
(313,265,l),
(313,16,l)
);
}
);
width = 627;
},
{
guides = (
{
pos = (260,265);
}
);
layerId = "2AEC198B-4747-4E5F-80A7-B5A71C2761F9";
shapes = (
{
closed = 1;
nodes = (
(339,16,l),
(339,265,l),
(589,265,l),
(589,266,l),
(339,266,l),
(339,517,l),
(338,517,l),
(338,266,l),
(88,266,l),
(88,265,l),
(338,265,l),
(338,16,l)
);
}
);
width = 677;
},
{
guides = (
{
pos = (260,265);
}
);
layerId = "29EF49B2-C370-4E88-B36E-A4ACD23E3F3A";
shapes = (
{
closed = 1;
nodes = (
(357,15,l),
(357,225,l),
(564,225,l),
(564,305,l),
(357,305,l),
(357,516,l),
(271,516,l),
(271,305,l),
(63,305,l),
(63,225,l),
(271,225,l),
(271,15,l)
);
}
);
width = 627;
},
{
guides = (
{
pos = (260,265);
}
);
layerId = "58AEE805-6805-4A0B-A273-5ABBCB55D365";
shapes = (
{
closed = 1;
nodes = (
(357,15,l),
(357,225,l),
(564,225,l),
(564,305,l),
(357,305,l),
(357,516,l),
(271,516,l),
(271,305,l),
(63,305,l),
(63,225,l),
(271,225,l),
(271,15,l)
);
}
);
width = 627;
}
);
metricLeft = minus;
metricRight = minus;
unicode = 43;
userData = {
KernOnSpecialSpacing = {
L = math;
R = math;
};
};
}
{
color = 6;
glyphname = comma;
kernLeft = KO_comma;
layers = (
{
guides = (
{
pos = (-33,106);
}
);
layerId = "DF17D77B-A5C4-4843-826A-BC0F1C4CB224";
shapes = (
{
closed = 1;
nodes = (
(152,-109,o),
(195,-63,o),
(195,12,cs),
(195,70,o),
(168,106,o),
(127,106,cs),
(92,106,o),
(66,83,o),
(66,51,cs),
(66,20,o),
(88,-2,o),
(118,-2,cs),
(138,-2,o),
(153,9,o),
(167,9,cs),
(181,9,o),
(188,0,o),
(188,-18,cs),
(188,-59,o),
(152,-108,o),
(92,-122,c),
(92,-123,l)
);
}
);
width = 264;
},
{
guides = (
{
pos = (-37,156);
}
);
layerId = "7300F074-2CFD-43CC-B20F-1BF1EAE6C2C7";
shapes = (
{
closed = 1;
nodes = (
(211,-147,o),
(265,-76,o),
(265,21,cs),
(265,104,o),
(225,156,o),
(162,156,cs),
(109,156,o),
(72,120,o),
(72,70,cs),
(72,26,o),
(100,-5,o),
(141,-5,cs),
(159,-5,o),
(170,1,o),
(179,1,cs),
(189,1,o),
(193,-5,o),
(193,-21,cs),
(193,-67,o),
(156,-105,o),
(84,-134,c),
(107,-185,l)
);
}
);
width = 327;
},
{
guides = (
{
pos = (-37,156);
}
);
layerId = "2895B92B-45F5-4972-B85C-1A160E6E6488";
shapes = (
{
closed = 1;
nodes = (
(251,-147,o),
(309,-85,o),
(309,14,cs),
(309,103,o),
(263,156,o),
(188,156,cs),
(127,156,o),
(86,121,o),
(86,70,cs),
(86,25,o),
(117,-5,o),
(163,-5,cs),
(184,-5,o),
(203,1,o),
(217,1,cs),
(231,1,o),
(237,-5,o),
(237,-21,cs),
(237,-68,o),
(192,-106,o),
(103,-133,c),
(121,-185,l)
);
}
);
width = 385;
},
{
guides = (
{
pos = (-37,154);
}
);
layerId = "F497C50F-30EB-4580-9148-0005B36D0333";
shapes = (
{
closed = 1;
nodes = (
(203,-98,o),
(238,-47,o),
(238,29,cs),
(238,107,o),
(200,154,o),
(135,154,cs),
(79,154,o),
(43,121,o),
(43,71,cs),
(43,24,o),
(73,-9,o),
(117,-9,cs),
(151,-9,o),
(185,11,o),
(206,11,cs),
(219,11,o),
(227,2,o),
(227,-15,cs),
(227,-60,o),
(188,-102,o),
(132,-123,c),
(132,-124,l)
);
}
);
width = 281;
},
{
guides = (
{
pos = (-37,154);
}
);
layerId = "41FE8A15-28AA-4FFF-A503-D6748EB37864";
shapes = (
{
closed = 1;
nodes = (
(236,-99,o),
(281,-52,o),
(281,29,cs),
(281,107,o),
(239,154,o),
(167,154,cs),
(105,154,o),
(65,121,o),
(65,71,cs),
(65,24,o),
(99,-9,o),
(149,-9,cs),
(187,-9,o),
(225,11,o),
(248,11,cs),
(261,11,o),
(269,2,o),
(269,-15,cs),
(269,-55,o),
(227,-101,o),
(134,-123,c),
(134,-124,l)
);
}
);
width = 339;
},
{
guides = (
{
pos = (-33,106);
}
);
layerId = "2AEC198B-4747-4E5F-80A7-B5A71C2761F9";
shapes = (
{
closed = 1;
nodes = (
(188,-101,o),
(229,-55,o),
(229,12,cs),
(229,68,o),
(198,106,o),
(153,106,cs),
(114,106,o),
(84,82,o),
(84,50,cs),
(84,20,o),
(103,-2,o),
(143,-2,cs),
(167,-2,o),
(182,10,o),
(200,10,cs),
(214,10,o),
(220,3,o),
(220,-14,cs),
(220,-54,o),
(188,-99,o),
(108,-120,c),
(108,-121,l)
);
}
);
width = 315;
},
{
guides = (
{
pos = (-27,168);
}
);
layerId = "29EF49B2-C370-4E88-B36E-A4ACD23E3F3A";
shapes = (
{
closed = 1;
nodes = (
(219,-146,o),
(274,-77,o),
(274,25,cs),
(274,115,o),
(231,168,o),
(157,168,cs),
(91,168,o),
(47,129,o),
(47,70,cs),
(47,18,o),
(80,-14,o),
(134,-14,cs),
(158,-14,o),
(183,-8,o),
(192,-8,cs),
(199,-8,o),
(202,-12,o),
(202,-24,cs),
(202,-67,o),
(160,-106,o),
(83,-134,c),
(106,-185,l)
);
}
);
width = 306;
},
{
guides = (
{
pos = (-27,178);
}
);
layerId = "58AEE805-6805-4A0B-A273-5ABBCB55D365";
shapes = (
{
closed = 1;
nodes = (
(267,-145,o),
(322,-86,o),
(322,17,cs),
(322,119,o),
(272,178,o),
(187,178,cs),
(114,178,o),
(65,138,o),
(65,78,cs),
(65,22,o),
(103,-14,o),
(163,-14,cs),
(193,-14,o),
(211,-4,o),
(230,-4,cs),
(245,-4,o),
(250,-10,o),
(250,-24,cs),
(250,-68,o),
(201,-108,o),
(114,-134,c),
(134,-185,l)
);
}
);
width = 377;
}
);
metricLeft = period;
unicode = 44;
userData = {
KernOnName = comma;
KernOnSpecialSpacing = {
L = period;
R = period;
};
};
}
{
color = 4;
glyphname = hyphen;
kernLeft = KO_hyphen;
kernRight = KO_hyphen;
layers = (
{
layerId = "DF17D77B-A5C4-4843-826A-BC0F1C4CB224";
shapes = (
{
closed = 1;
nodes = (
(430,269,l),
(430,289,l),
(69,289,l),
(69,269,l)
);
}
);
width = 499;
},
{
layerId = "7300F074-2CFD-43CC-B20F-1BF1EAE6C2C7";
shapes = (
{
closed = 1;
nodes = (
(430,244,l),
(430,314,l),
(69,314,l),
(69,244,l)
);
}
);
width = 499;
},
{
layerId = "2895B92B-45F5-4972-B85C-1A160E6E6488";
shapes = (
{
closed = 1;
nodes = (
(555,244,l),
(555,314,l),
(92,314,l),
(92,244,l)
);
}
);
width = 647;
},
{
layerId = "F497C50F-30EB-4580-9148-0005B36D0333";
shapes = (
{
closed = 1;
nodes = (
(415,242,l),
(415,321,l),
(54,321,l),
(54,242,l)
);
}
);
width = 469;
},
{
layerId = "41FE8A15-28AA-4FFF-A503-D6748EB37864";
shapes = (
{
closed = 1;
nodes = (
(507,242,l),
(507,321,l),
(71,321,l),
(71,242,l)
);
}
);
width = 578;
},
{
layerId = "2AEC198B-4747-4E5F-80A7-B5A71C2761F9";
shapes = (
{
closed = 1;
nodes = (
(518,269,l),
(518,289,l),
(85,289,l),
(85,269,l)
);
}
);
width = 603;
},
{
layerId = "29EF49B2-C370-4E88-B36E-A4ACD23E3F3A";
shapes = (
{
closed = 1;
nodes = (
(415,217,l),
(415,346,l),
(54,346,l),
(54,217,l)
);
}
);
width = 469;
},
{
layerId = "58AEE805-6805-4A0B-A273-5ABBCB55D365";
shapes = (
{
closed = 1;
nodes = (
(548,217,l),
(548,346,l),
(78,346,l),
(78,217,l)
);
}
);
width = 626;
}
);
unicode = 45;
userData = {
KernOnName = hyphen;
KernOnSpecialSpacing = {
L = hyphen;
R = hyphen;
};
};
}
{
color = 6;
glyphname = one;
kernLeft = KO_one;
kernRight = KO_one;
layers = (
{
layerId = "DF17D77B-A5C4-4843-826A-BC0F1C4CB224";
shapes = (
{
closed = 1;
nodes = (
(88,1,o),
(149,4,o),
(211,4,cs),
(265,4,o),
(322,1,o),
(349,0,c),
(349,1,l),
(280,3,o),
(253,19,o),
(253,83,cs),
(253,536,l),
(202,500,o),
(143,487,o),
(47,485,c),
(47,484,l),
(137,484,o),
(163,472,o),
(163,376,cs),
(163,83,ls),
(163,18,o),
(123,3,o),
(57,1,c),
(57,0,l)
);
}
);
width = 380;
},
{
layerId = "7300F074-2CFD-43CC-B20F-1BF1EAE6C2C7";
shapes = (
{
closed = 1;
nodes = (
(102,1,o),
(181,4,o),
(248,4,cs),
(315,4,o),
(394,1,o),
(429,0,c),
(429,71,l),
(328,71,o),
(293,89,o),
(293,143,cs),
(293,536,l),
(237,501,o),
(172,487,o),
(57,485,c),
(57,414,l),
(178,414,o),
(203,396,o),
(203,305,cs),
(203,143,ls),
(203,89,o),
(168,71,o),
(67,71,c),
(67,0,l)
);
}
);
width = 460;
},
{
layerId = "2895B92B-45F5-4972-B85C-1A160E6E6488";
shapes = (
{
closed = 1;
nodes = (
(134,1,o),
(226,4,o),
(318,4,cs),
(403,4,o),
(491,1,o),
(534,0,c),
(534,71,l),
(402,71,o),
(360,91,o),
(360,153,cs),
(360,536,l),
(290,501,o),
(211,487,o),
(73,485,c),
(73,414,l),
(240,414,o),
(270,397,o),
(270,305,cs),
(270,153,ls),
(270,95,o),
(217,71,o),
(88,71,c),
(88,0,l)
);
}
);
width = 568;
},
{
layerId = "F497C50F-30EB-4580-9148-0005B36D0333";
shapes = (
{
closed = 1;
nodes = (
(53,1,o),
(126,4,o),
(200,4,cs),
(254,4,o),
(311,1,o),
(338,0,c),
(338,1,l),
(297,3,o),
(282,17,o),
(282,73,cs),
(282,540,l),
(219,504,o),
(142,491,o),
(16,489,c),
(16,488,l),
(82,486,o),
(102,476,o),
(102,379,cs),
(102,83,ls),
(102,18,o),
(70,3,o),
(16,1,c),
(16,0,l)
);
}
);
width = 382;
},
{
layerId = "41FE8A15-28AA-4FFF-A503-D6748EB37864";
shapes = (
{
closed = 1;
nodes = (
(77,1,o),
(158,4,o),
(243,4,cs),
(307,4,o),
(375,1,o),
(407,0,c),
(407,1,l),
(346,3,o),
(325,18,o),
(325,73,cs),
(325,540,l),
(255,504,o),
(168,491,o),
(30,489,c),
(30,488,l),
(131,486,o),
(145,464,o),
(145,379,cs),
(145,83,ls),
(145,21,o),
(100,3,o),
(34,1,c),
(34,0,l)
);
}
);
width = 457;
},
{
layerId = "2AEC198B-4747-4E5F-80A7-B5A71C2761F9";
shapes = (
{
closed = 1;
nodes = (
(99,1,o),
(170,4,o),
(242,4,cs),
(307,4,o),
(375,1,o),
(407,0,c),
(407,1,l),
(309,5,o),
(284,26,o),
(284,83,cs),
(284,536,l),
(226,500,o),
(158,487,o),
(49,485,c),
(49,484,l),
(175,484,o),
(194,462,o),
(194,375,cs),
(194,83,ls),
(194,18,o),
(145,5,o),
(63,1,c),
(63,0,l)
);
}
);
width = 440;
},
{
layerId = "29EF49B2-C370-4E88-B36E-A4ACD23E3F3A";
shapes = (
{
closed = 1;
nodes = (
(80,1,o),
(157,4,o),
(223,4,cs),
(288,4,o),
(364,1,o),
(398,0,c),
(398,71,l),
(334,71,o),
(312,89,o),
(312,143,cs),
(312,540,l),
(249,504,o),
(172,491,o),
(46,489,c),
(46,418,l),
(112,418,o),
(132,406,o),
(132,309,cs),
(132,143,ls),
(132,89,o),
(110,71,o),
(46,71,c),
(46,0,l)
);
}
);
width = 422;
},
{
layerId = "58AEE805-6805-4A0B-A273-5ABBCB55D365";
shapes = (
{
closed = 1;
nodes = (
(122,1,o),
(210,4,o),
(297,4,cs),
(368,4,o),
(452,1,o),
(488,0,c),
(488,71,l),
(411,71,o),
(384,89,o),
(384,143,cs),
(384,540,l),
(309,504,o),
(220,492,o),
(73,489,c),
(73,418,l),
(181,418,o),
(204,406,o),
(204,309,cs),
(204,153,ls),
(204,88,o),
(161,71,o),
(78,71,c),
(78,0,l)
);
}
);
width = 528;
}
);
metricLeft = one.lf;
metricRight = one.lf;
unicode = 49;
userData = {
KernOnName = one;
};
}
{
color = 4;
glyphname = two;
kernLeft = KO_two;
kernRight = KO_two;
layers = (
{
layerId = "DF17D77B-A5C4-4843-826A-BC0F1C4CB224";
shapes = (
{
closed = 1;
nodes = (
(436,26,o),
(435,57,o),
(435,128,c),
(434,128,l),
(429,90,o),
(406,77,o),
(351,77,cs),
(125,77,l),
(125,78,l),
(218,178,o),
(389,271,o),
(389,405,cs),
(389,483,o),
(331,529,o),
(239,529,cs),
(131,529,o),
(43,466,o),
(43,392,cs),
(43,356,o),
(64,334,o),
(96,334,cs),
(122,334,o),
(145,348,o),
(145,375,cs),
(145,415,o),
(97,439,o),
(97,467,cs),
(97,492,o),
(137,514,o),
(186,514,cs),
(252,514,o),
(292,474,o),
(292,387,cs),
(292,214,o),
(136,98,o),
(46,1,c),
(46,0,l),
(360,0,ls),
(392,0,o),
(429,-1,o),
(439,-5,c)
);
}
);
width = 480;
},
{
layerId = "7300F074-2CFD-43CC-B20F-1BF1EAE6C2C7";
shapes = (
{
closed = 1;
nodes = (
(487,35,o),
(486,76,o),
(486,168,c),
(419,168,l),
(414,100,o),
(407,77,o),
(352,77,cs),
(189,77,l),
(189,87,l),
(407,252,o),
(440,322,o),
(440,388,cs),
(440,480,o),
(371,529,o),
(271,529,cs),
(154,529,o),
(63,466,o),
(63,378,cs),
(63,326,o),
(92,301,o),
(132,301,cs),
(166,301,o),
(188,319,o),
(188,351,cs),
(188,381,o),
(168,398,o),
(168,419,cs),
(168,440,o),
(193,457,o),
(251,457,cs),
(313,457,o),
(343,431,o),
(343,376,cs),
(343,301,o),
(286,220,o),
(67,67,c),
(67,0,l),
(401,0,ls),
(440,0,o),
(480,-1,o),
(490,-5,c)
);
}
);
width = 527;
},
{
layerId = "2895B92B-45F5-4972-B85C-1A160E6E6488";
shapes = (
{
closed = 1;
nodes = (
(603,30,o),
(602,71,o),
(602,168,c),
(535,168,l),
(528,93,o),
(513,77,o),
(450,77,cs),
(228,77,l),
(228,87,l),
(494,242,o),
(540,309,o),
(540,381,cs),
(540,475,o),
(458,529,o),
(329,529,cs),
(185,529,o),
(80,463,o),
(80,373,cs),
(80,323,o),
(110,291,o),
(156,291,cs),
(190,291,o),
(211,309,o),
(211,336,cs),
(211,366,o),
(185,388,o),
(185,412,cs),
(185,440,o),
(230,457,o),
(303,457,cs),
(395,457,o),
(443,430,o),
(443,378,cs),
(443,306,o),
(379,237,o),
(87,67,c),
(87,0,l),
(506,0,ls),
(560,0,o),
(597,-2,o),
(607,-5,c)
);
}
);
width = 655;
},
{
layerId = "F497C50F-30EB-4580-9148-0005B36D0333";
shapes = (
{
closed = 1;
nodes = (
(496,38,o),
(495,87,o),
(495,188,c),
(494,188,l),
(489,157,o),
(482,147,o),
(427,147,cs),
(156,147,l),
(156,148,l),
(274,226,o),
(459,280,o),
(459,407,cs),
(459,487,o),
(387,533,o),
(260,533,cs),
(118,533,o),
(22,476,o),
(22,392,cs),
(22,344,o),
(54,312,o),
(103,312,cs),
(144,312,o),
(169,334,o),
(169,369,cs),
(169,420,o),
(120,437,o),
(120,477,cs),
(120,505,o),
(145,523,o),
(184,523,cs),
(244,523,o),
(272,487,o),
(272,411,cs),
(272,227,o),
(89,85,o),
(11,1,c),
(11,0,l),
(410,0,ls),
(446,0,o),
(488,-1,o),
(499,-5,c)
);
}
);
width = 529;
},
{
layerId = "41FE8A15-28AA-4FFF-A503-D6748EB37864";
shapes = (
{
closed = 1;
nodes = (
(575,35,o),
(574,88,o),
(574,188,c),
(573,188,l),
(569,155,o),
(557,147,o),
(515,147,cs),
(195,147,l),
(195,148,l),
(421,231,o),
(526,315,o),
(526,406,cs),
(526,487,o),
(446,533,o),
(307,533,cs),
(148,533,o),
(33,473,o),
(33,390,cs),
(33,344,o),
(67,312,o),
(115,312,cs),
(155,312,o),
(180,335,o),
(180,370,cs),
(180,418,o),
(133,436,o),
(133,473,cs),
(133,503,o),
(163,520,o),
(217,520,cs),
(298,520,o),
(339,481,o),
(339,404,cs),
(339,293,o),
(263,196,o),
(25,1,c),
(25,0,l),
(484,0,ls),
(532,0,o),
(569,-2,o),
(578,-5,c)
);
}
);
width = 620;
},
{
layerId = "2AEC198B-4747-4E5F-80A7-B5A71C2761F9";
shapes = (
{
closed = 1;
nodes = (
(513,25,o),
(511,69,o),
(512,126,c),
(511,126,l),
(504,85,o),
(485,77,o),
(415,77,cs),
(157,77,l),
(157,78,l),
(254,166,o),
(454,272,o),
(454,403,cs),
(454,481,o),
(385,529,o),
(280,529,cs),
(160,529,o),
(56,468,o),
(56,389,cs),
(56,350,o),
(82,322,o),
(119,322,cs),
(148,322,o),
(167,339,o),
(167,365,cs),
(167,408,o),
(119,435,o),
(119,467,cs),
(119,493,o),
(158,512,o),
(215,512,cs),
(306,512,o),
(356,465,o),
(356,377,cs),
(356,217,o),
(155,84,o),
(62,1,c),
(62,0,l),
(414,0,ls),
(460,0,o),
(505,-1,o),
(516,-5,c)
);
}
);
width = 569;
},
{
layerId = "29EF49B2-C370-4E88-B36E-A4ACD23E3F3A";
shapes = (
{
closed = 1;
nodes = (
(496,38,o),
(495,87,o),
(495,188,c),
(422,188,l),
(417,157,o),
(410,147,o),
(355,147,cs),
(214,147,l),
(214,157,l),
(324,209,o),
(459,282,o),
(459,407,cs),
(459,487,o),
(387,533,o),
(260,533,cs),
(118,533,o),
(22,472,o),
(22,378,cs),
(22,328,o),
(52,292,o),
(103,292,cs),
(144,292,o),
(169,312,o),
(169,344,cs),
(169,377,o),
(140,394,o),
(140,423,cs),
(140,445,o),
(161,459,o),
(194,459,cs),
(247,459,o),
(272,429,o),
(272,381,cs),
(272,257,o),
(96,136,o),
(21,71,c),
(21,0,l),
(410,0,ls),
(446,0,o),
(488,-1,o),
(499,-5,c)
);
}
);
width = 529;
},
{
layerId = "58AEE805-6805-4A0B-A273-5ABBCB55D365";
shapes = (
{
closed = 1;
nodes = (
(612,34,o),
(611,79,o),
(611,188,c),
(538,188,l),
(532,155,o),
(515,147,o),
(452,147,cs),
(311,147,l),
(311,157,l),
(515,267,o),
(558,312,o),
(558,394,cs),
(558,484,o),
(475,533,o),
(324,533,cs),
(155,533,o),
(40,471,o),
(40,380,cs),
(40,326,o),
(78,292,o),
(137,292,cs),
(182,292,o),
(211,312,o),
(211,343,cs),
(211,377,o),
(177,396,o),
(177,421,cs),
(177,445,o),
(208,459,o),
(259,459,cs),
(333,459,o),
(371,431,o),
(371,376,cs),
(371,287,o),
(271,194,o),
(42,71,c),
(42,0,l),
(535,0,ls),
(579,0,o),
(608,-2,o),
(616,-5,c)
);
}
);
width = 654;
}
);
metricLeft = two.lf;
metricRight = two.lf;
unicode = 50;
userData = {
KernOnName = two;
};
}
{
color = 4;
glyphname = five;
kernLeft = KO_five;
kernRight = KO_five;
layers = (
{
layerId = "DF17D77B-A5C4-4843-826A-BC0F1C4CB224";
shapes = (
{
closed = 1;
nodes = (
(344,-150,o),
(435,-60,o),
(435,66,cs),
(435,193,o),
(363,271,o),
(244,271,cs),
(195,271,o),
(148,261,o),
(101,231,c),
(132,442,l),
(166,431,o),
(201,427,o),
(242,427,cs),
(337,427,o),
(401,465,o),
(412,529,c),
(411,530,l),
(383,515,o),
(318,503,o),
(266,503,cs),
(215,503,o),
(168,511,o),
(142,519,c),
(99,228,l),
(101,230,l),
(129,248,o),
(160,260,o),
(195,260,cs),
(285,260,o),
(338,187,o),
(338,64,cs),
(338,-64,o),
(279,-144,o),
(185,-144,cs),
(134,-144,o),
(101,-121,o),
(101,-86,cs),
(101,-52,o),
(131,-33,o),
(131,1,cs),
(131,25,o),
(115,40,o),
(89,40,cs),
(56,40,o),
(36,17,o),
(36,-19,cs),
(36,-93,o),
(114,-150,o),
(215,-150,cs)
);
},
{
closed = 1;
nodes = (
(92,194,o),
(100,208,o),
(101,230,c),
(101,231,l),
(82,221,o),
(72,211,o),
(72,202,cs),
(72,197,o),
(75,194,o),
(80,194,cs)
);
}
);
width = 479;
},
{
layerId = "7300F074-2CFD-43CC-B20F-1BF1EAE6C2C7";
shapes = (
{
closed = 1;
nodes = (
(354,-150,o),
(447,-61,o),
(447,68,cs),
(447,194,o),
(377,276,o),
(246,276,cs),
(212,276,o),
(191,273,o),
(167,269,c),
(188,418,l),
(215,416,o),
(244,414,o),
(266,414,cs),
(346,414,o),
(400,446,o),
(427,509,c),
(389,538,l),
(361,514,o),
(327,504,o),
(273,504,cs),
(228,504,o),
(183,509,o),
(133,519,c),
(87,190,l),
(102,189,l),
(130,197,o),
(168,205,o),
(209,205,cs),
(296,205,o),
(350,161,o),
(350,66,cs),
(350,-25,o),
(303,-79,o),
(223,-79,cs),
(178,-79,o),
(145,-63,o),
(145,-40,cs),
(145,-22,o),
(163,-13,o),
(163,14,cs),
(163,44,o),
(142,62,o),
(107,62,cs),
(65,62,o),
(38,33,o),
(38,-14,cs),
(38,-93,o),
(114,-150,o),
(220,-150,cs)
);
},
{
closed = 1;
nodes = (
(142,156,o),
(166,188,o),
(168,240,c),
(159,272,l),
(103,263,o),
(67,231,o),
(67,194,cs),
(67,170,o),
(81,156,o),
(104,156,cs)
);
}
);
width = 491;
},
{
layerId = "2895B92B-45F5-4972-B85C-1A160E6E6488";
shapes = (
{
closed = 1;
nodes = (
(467,-150,o),
(563,-61,o),
(563,68,cs),
(563,194,o),
(475,277,o),
(314,277,cs),
(265,277,o),
(229,274,o),
(198,268,c),
(225,420,l),
(254,417,o),
(299,414,o),
(344,414,cs),
(433,414,o),
(493,442,o),
(531,496,c),
(496,538,l),
(456,514,o),
(421,504,o),
(353,504,cs),
(292,504,o),
(238,509,o),
(173,519,c),
(115,189,l),
(133,189,l),
(169,198,o),
(224,204,o),
(292,204,cs),
(402,204,o),
(466,161,o),
(466,66,cs),
(466,-25,o),
(400,-79,o),
(289,-79,cs),
(220,-79,o),
(165,-59,o),
(165,-29,cs),
(165,-6,o),
(186,5,o),
(186,38,cs),
(186,66,o),
(166,82,o),
(136,82,cs),
(89,82,o),
(58,50,o),
(58,-4,cs),
(58,-93,o),
(154,-150,o),
(284,-150,cs)
);
},
{
closed = 1;
nodes = (
(182,156,o),
(211,188,o),
(215,240,c),
(188,271,l),
(138,264,o),
(96,232,o),
(96,194,cs),
(96,170,o),
(112,156,o),
(138,156,cs)
);
}
);
width = 623;
},
{
layerId = "F497C50F-30EB-4580-9148-0005B36D0333";
shapes = (
{
closed = 1;
nodes = (
(395,-150,o),
(495,-71,o),
(495,56,cs),
(495,180,o),
(410,251,o),
(263,251,cs),
(186,251,o),
(130,232,o),
(101,215,c),
(122,367,l),
(166,358,o),
(212,353,o),
(256,353,cs),
(395,353,o),
(471,419,o),
(469,548,c),
(468,548,l),
(434,518,o),
(353,503,o),
(274,503,cs),
(229,503,o),
(173,510,o),
(142,519,c),
(99,213,l),
(100,213,l),
(117,224,o),
(145,231,o),
(174,231,cs),
(260,231,o),
(308,167,o),
(308,54,cs),
(308,-65,o),
(257,-144,o),
(180,-144,cs),
(153,-144,o),
(140,-132,o),
(140,-109,cs),
(140,-61,o),
(195,-49,o),
(195,12,cs),
(195,54,o),
(167,79,o),
(122,79,cs),
(66,79,o),
(28,42,o),
(28,-14,cs),
(28,-97,o),
(109,-150,o),
(236,-150,cs)
);
},
{
closed = 1;
nodes = (
(91,177,o),
(100,192,o),
(101,214,c),
(100,214,l),
(81,204,o),
(71,194,o),
(71,185,cs),
(71,180,o),
(74,177,o),
(79,177,cs)
);
}
);
width = 526;
},
{
layerId = "41FE8A15-28AA-4FFF-A503-D6748EB37864";
shapes = (
{
closed = 1;
nodes = (
(446,-150,o),
(570,-70,o),
(570,57,cs),
(570,180,o),
(469,251,o),
(306,251,cs),
(227,251,o),
(153,232,o),
(115,215,c),
(140,367,l),
(191,358,o),
(248,353,o),
(299,353,cs),
(454,353,o),
(540,419,o),
(543,548,c),
(542,548,l),
(499,519,o),
(414,503,o),
(324,503,cs),
(261,503,o),
(196,510,o),
(163,519,c),
(113,213,l),
(115,213,l),
(142,224,o),
(174,231,o),
(216,231,cs),
(316,231,o),
(383,167,o),
(383,54,cs),
(383,-64,o),
(312,-142,o),
(206,-142,cs),
(168,-142,o),
(149,-130,o),
(149,-107,cs),
(149,-60,o),
(203,-48,o),
(203,12,cs),
(203,54,o),
(173,79,o),
(126,79,cs),
(73,79,o),
(36,42,o),
(36,-14,cs),
(36,-97,o),
(132,-150,o),
(277,-150,cs)
);
},
{
closed = 1;
nodes = (
(105,177,o),
(114,192,o),
(115,214,c),
(114,214,l),
(95,204,o),
(85,194,o),
(85,185,cs),
(85,180,o),
(88,177,o),
(93,177,cs)
);
}
);
width = 613;
},
{
layerId = "2AEC198B-4747-4E5F-80A7-B5A71C2761F9";
shapes = (
{
closed = 1;
nodes = (
(410,-150,o),
(512,-66,o),
(512,61,cs),
(512,192,o),
(426,271,o),
(282,271,cs),
(222,271,o),
(162,255,o),
(119,227,c),
(159,442,l),
(189,435,o),
(242,427,o),
(301,427,cs),
(404,427,o),
(466,459,o),
(487,530,c),
(486,531,l),
(446,511,o),
(396,504,o),
(317,504,cs),
(258,504,o),
(215,508,o),
(172,519,c),
(117,224,l),
(119,226,l),
(161,252,o),
(199,261,o),
(241,261,cs),
(352,261,o),
(415,187,o),
(415,59,cs),
(415,-68,o),
(343,-145,o),
(226,-145,cs),
(166,-145,o),
(116,-123,o),
(116,-93,cs),
(116,-64,o),
(154,-37,o),
(154,3,cs),
(154,29,o),
(135,45,o),
(105,45,cs),
(68,45,o),
(44,20,o),
(44,-17,cs),
(44,-94,o),
(134,-150,o),
(257,-150,cs)
);
},
{
closed = 1;
nodes = (
(109,189,o),
(116,202,o),
(119,227,c),
(118,227,l),
(97,218,o),
(86,208,o),
(86,199,cs),
(86,193,o),
(90,189,o),
(97,189,cs)
);
}
);
width = 568;
},
{
layerId = "29EF49B2-C370-4E88-B36E-A4ACD23E3F3A";
shapes = (
{
closed = 1;
nodes = (
(397,-150,o),
(493,-66,o),
(493,69,cs),
(493,196,o),
(408,271,o),
(264,271,cs),
(231,271,o),
(194,267,o),
(167,259,c),
(182,368,l),
(208,365,o),
(232,363,o),
(258,363,cs),
(398,363,o),
(473,421,o),
(481,536,c),
(435,554,l),
(405,528,o),
(347,513,o),
(279,513,cs),
(224,513,o),
(167,519,o),
(134,529,c),
(90,210,l),
(108,172,l),
(124,184,o),
(147,190,o),
(196,190,cs),
(267,190,o),
(308,143,o),
(308,62,cs),
(308,-22,o),
(262,-80,o),
(197,-80,cs),
(172,-80,o),
(160,-72,o),
(160,-55,cs),
(160,-27,o),
(190,6,o),
(190,47,cs),
(190,85,o),
(164,109,o),
(122,109,cs),
(65,109,o),
(28,67,o),
(28,4,cs),
(28,-91,o),
(110,-150,o),
(241,-150,cs)
);
},
{
closed = 1;
nodes = (
(145,150,o),
(169,178,o),
(171,224,c),
(164,260,l),
(104,249,o),
(70,222,o),
(70,185,cs),
(70,163,o),
(84,150,o),
(107,150,cs)
);
}
);
width = 524;
},
{
layerId = "58AEE805-6805-4A0B-A273-5ABBCB55D365";
shapes = (
{
closed = 1;
nodes = (
(494,-150,o),
(613,-67,o),
(613,66,cs),
(613,193,o),
(504,271,o),
(326,271,cs),
(282,271,o),
(234,266,o),
(196,259,c),
(212,368,l),
(248,365,o),
(288,363,o),
(333,363,cs),
(485,363,o),
(570,419,o),
(590,531,c),
(546,554,l),
(503,527,o),
(438,513,o),
(354,513,cs),
(286,513,o),
(216,519,o),
(165,529,c),
(120,221,l),
(143,172,l),
(169,184,o),
(212,190,o),
(261,190,cs),
(370,190,o),
(428,145,o),
(428,61,cs),
(428,-26,o),
(367,-80,o),
(269,-80,cs),
(218,-80,o),
(190,-66,o),
(190,-40,cs),
(190,-14,o),
(218,12,o),
(218,49,cs),
(218,86,o),
(190,109,o),
(145,109,cs),
(84,109,o),
(41,66,o),
(41,5,cs),
(41,-90,o),
(144,-150,o),
(305,-150,cs)
);
},
{
closed = 1;
nodes = (
(179,150,o),
(208,177,o),
(212,224,c),
(193,258,l),
(125,247,o),
(88,221,o),
(88,185,cs),
(88,163,o),
(106,150,o),
(134,150,cs)
);
}
);
width = 661;
}
);
metricLeft = five.lf;
metricRight = five.lf;
unicode = 53;
userData = {
KernOnName = five;
};
}
{
color = 6;
glyphname = six;
kernLeft = KO_six;
kernRight = KO_six;
layers = (
{
layerId = "DF17D77B-A5C4-4843-826A-BC0F1C4CB224";
shapes = (
{
closed = 1;
nodes = (
(408,-14,o),
(490,80,o),
(490,225,cs),
(490,359,o),
(420,448,o),
(316,448,cs),
(233,448,o),
(173,392,o),
(154,299,c),
(155,299,l),
(175,388,o),
(225,434,o),
(284,434,cs),
(353,434,o),
(393,353,o),
(393,214,cs),
(393,72,o),
(353,-13,o),
(286,-13,cs),
(207,-13,o),
(163,109,o),
(163,330,cs),
(163,585,o),
(220,718,o),
(330,718,cs),
(372,718,o),
(405,698,o),
(405,672,cs),
(405,648,o),
(375,625,o),
(375,592,cs),
(375,567,o),
(392,551,o),
(418,551,cs),
(449,551,o),
(470,574,o),
(470,607,cs),
(470,670,o),
(399,722,o),
(313,722,cs),
(164,722,o),
(66,562,o),
(66,318,cs),
(66,103,o),
(143,-14,o),
(283,-14,cs)
);
}
);
width = 556;
},
{
layerId = "7300F074-2CFD-43CC-B20F-1BF1EAE6C2C7";
shapes = (
{
closed = 1;
nodes = (
(418,-14,o),
(500,80,o),
(500,225,cs),
(500,359,o),
(430,448,o),
(326,448,cs),
(248,448,o),
(178,399,o),
(161,313,c),
(173,239,l),
(188,323,o),
(241,378,o),
(308,378,cs),
(370,378,o),
(403,325,o),
(403,224,cs),
(403,117,o),
(365,56,o),
(300,56,cs),
(216,56,o),
(173,150,o),
(173,335,cs),
(173,548,o),
(224,655,o),
(326,655,cs),
(359,655,o),
(379,645,o),
(379,628,cs),
(379,609,o),
(361,599,o),
(361,573,cs),
(361,544,o),
(382,525,o),
(416,525,cs),
(458,525,o),
(486,553,o),
(486,597,cs),
(486,670,o),
(413,722,o),
(324,722,cs),
(174,722,o),
(76,562,o),
(76,318,cs),
(76,103,o),
(153,-14,o),
(293,-14,cs)
);
}
);
width = 576;
},
{
layerId = "2895B92B-45F5-4972-B85C-1A160E6E6488";
shapes = (
{
closed = 1;
nodes = (
(503,-14,o),
(604,81,o),
(604,225,cs),
(604,358,o),
(516,448,o),
(386,448,cs),
(289,448,o),
(206,397,o),
(167,314,c),
(183,238,l),
(224,328,o),
(293,378,o),
(375,378,cs),
(461,378,o),
(507,324,o),
(507,225,cs),
(507,118,o),
(453,56,o),
(359,56,cs),
(242,56,o),
(183,151,o),
(183,339,cs),
(183,546,o),
(254,655,o),
(388,655,cs),
(439,655,o),
(472,640,o),
(472,617,cs),
(472,596,o),
(447,584,o),
(447,553,cs),
(447,523,o),
(468,505,o),
(502,505,cs),
(549,505,o),
(580,538,o),
(580,589,cs),
(580,668,o),
(503,722,o),
(390,722,cs),
(202,722,o),
(86,571,o),
(86,324,cs),
(86,105,o),
(179,-14,o),
(350,-14,cs)
);
}
);
width = 690;
},
{
layerId = "F497C50F-30EB-4580-9148-0005B36D0333";
shapes = (
{
closed = 1;
nodes = (
(479,-14,o),
(578,79,o),
(578,227,cs),
(578,359,o),
(499,448,o),
(382,448,cs),
(311,448,o),
(257,413,o),
(236,348,c),
(237,348,l),
(254,395,o),
(288,420,o),
(319,420,cs),
(367,420,o),
(391,352,o),
(391,215,cs),
(391,71,o),
(365,-13,o),
(321,-13,cs),
(270,-13,o),
(241,109,o),
(241,323,cs),
(241,591,o),
(292,717,o),
(400,717,cs),
(435,717,o),
(454,703,o),
(454,678,cs),
(454,637,o),
(406,614,o),
(406,568,cs),
(406,533,o),
(431,511,o),
(472,511,cs),
(520,511,o),
(553,542,o),
(553,589,cs),
(553,665,o),
(472,722,o),
(363,722,cs),
(176,722,o),
(54,560,o),
(54,313,cs),
(54,99,o),
(146,-14,o),
(321,-14,cs)
);
}
);
width = 632;
},
{
layerId = "41FE8A15-28AA-4FFF-A503-D6748EB37864";
shapes = (
{
closed = 1;
nodes = (
(556,-14,o),
(669,80,o),
(669,227,cs),
(669,360,o),
(576,448,o),
(437,448,cs),
(350,448,o),
(287,411,o),
(253,348,c),
(254,348,l),
(284,397,o),
(319,420,o),
(364,420,cs),
(444,420,o),
(482,353,o),
(482,214,cs),
(482,73,o),
(443,-13,o),
(378,-13,cs),
(301,-13,o),
(259,106,o),
(259,323,cs),
(259,588,o),
(323,716,o),
(457,716,cs),
(503,716,o),
(528,701,o),
(528,675,cs),
(528,638,o),
(480,614,o),
(480,568,cs),
(480,533,o),
(506,511,o),
(546,511,cs),
(594,511,o),
(627,543,o),
(627,589,cs),
(627,665,o),
(536,722,o),
(416,722,cs),
(212,722,o),
(72,556,o),
(72,313,cs),
(72,100,o),
(178,-14,o),
(377,-14,cs)
);
}
);
width = 741;
},
{
layerId = "2AEC198B-4747-4E5F-80A7-B5A71C2761F9";
shapes = (
{
closed = 1;
nodes = (
(479,-14,o),
(575,80,o),
(575,224,cs),
(575,358,o),
(491,448,o),
(368,448,cs),
(265,448,o),
(186,366,o),
(168,289,c),
(169,289,l),
(188,366,o),
(260,433,o),
(346,433,cs),
(432,433,o),
(478,360,o),
(478,221,cs),
(478,72,o),
(427,-13,o),
(339,-13,cs),
(233,-13,o),
(179,105,o),
(179,337,cs),
(179,588,o),
(249,718,o),
(384,718,cs),
(435,718,o),
(475,698,o),
(475,672,cs),
(475,643,o),
(425,618,o),
(425,575,cs),
(425,549,o),
(444,532,o),
(473,532,cs),
(510,532,o),
(536,560,o),
(536,601,cs),
(536,669,o),
(462,722,o),
(366,722,cs),
(197,722,o),
(82,558,o),
(82,316,cs),
(82,103,o),
(172,-14,o),
(334,-14,cs)
);
}
);
width = 657;
},
{
layerId = "29EF49B2-C370-4E88-B36E-A4ACD23E3F3A";
shapes = (
{
closed = 1;
nodes = (
(478,-14,o),
(578,79,o),
(578,224,cs),
(578,352,o),
(500,438,o),
(382,438,cs),
(297,438,o),
(238,391,o),
(220,311,c),
(228,249,l),
(245,311,o),
(280,348,o),
(321,348,cs),
(368,348,o),
(391,303,o),
(391,211,cs),
(391,114,o),
(366,56,o),
(324,56,cs),
(271,56,o),
(241,153,o),
(241,326,cs),
(241,546,o),
(289,653,o),
(389,653,cs),
(420,653,o),
(435,643,o),
(435,624,cs),
(435,593,o),
(396,568,o),
(396,526,cs),
(396,492,o),
(422,471,o),
(464,471,cs),
(518,471,o),
(553,508,o),
(553,567,cs),
(553,658,o),
(472,722,o),
(358,722,cs),
(176,722,o),
(54,558,o),
(54,313,cs),
(54,99,o),
(146,-14,o),
(320,-14,cs)
);
}
);
width = 632;
},
{
layerId = "58AEE805-6805-4A0B-A273-5ABBCB55D365";
shapes = (
{
closed = 1;
nodes = (
(575,-14,o),
(701,86,o),
(701,228,cs),
(701,350,o),
(596,438,o),
(451,438,cs),
(356,438,o),
(272,399,o),
(243,341,c),
(255,279,l),
(287,322,o),
(340,348,o),
(395,348,cs),
(473,348,o),
(514,302,o),
(514,214,cs),
(514,116,o),
(471,56,o),
(399,56,cs),
(309,56,o),
(261,152,o),
(261,332,cs),
(261,546,o),
(329,653,o),
(466,653,cs),
(510,653,o),
(533,642,o),
(533,622,cs),
(533,595,o),
(491,567,o),
(491,526,cs),
(491,492,o),
(521,471,o),
(568,471,cs),
(631,471,o),
(671,509,o),
(671,567,cs),
(671,658,o),
(575,722,o),
(439,722,cs),
(222,722,o),
(74,558,o),
(74,319,cs),
(74,108,o),
(192,-14,o),
(395,-14,cs)
);
}
);
width = 774;
}
);
metricLeft = six.lf;
metricRight = six.lf;
unicode = 54;
userData = {
KernOnName = six;
};
}
{
color = 4;
glyphname = eight;
kernLeft = KO_eight;
kernRight = KO_eight;
layers = (
{
guides = (
{
angle = 90;
pos = (262,147);
}
);
layerId = "DF17D77B-A5C4-4843-826A-BC0F1C4CB224";
shapes = (
{
closed = 1;
nodes = (
(383,-14,o),
(473,65,o),
(473,187,cs),
(473,423,o),
(164,375,o),
(164,597,cs),
(164,665,o),
(199,720,o),
(252,720,cs),
(316,720,o),
(361,657,o),
(361,567,cs),
(361,504,o),
(339,440,o),
(303,400,c),
(304,400,l),
(395,459,o),
(439,518,o),
(439,583,cs),
(439,665,o),
(370,722,o),
(269,722,cs),
(161,722,o),
(86,650,o),
(86,552,cs),
(86,322,o),
(388,374,o),
(388,139,cs),
(388,46,o),
(339,-13,o),
(269,-13,cs),
(190,-13,o),
(137,61,o),
(137,171,cs),
(137,253,o),
(167,326,o),
(219,370,c),
(218,370,l),
(112,321,o),
(50,242,o),
(50,155,cs),
(50,55,o),
(132,-14,o),
(253,-14,cs)
);
}
);
width = 523;
},
{
layerId = "7300F074-2CFD-43CC-B20F-1BF1EAE6C2C7";
shapes = (
{
closed = 1;
nodes = (
(400,-14,o),
(479,70,o),
(479,191,cs),
(479,415,o),
(181,391,o),
(181,558,cs),
(181,616,o),
(217,652,o),
(273,652,cs),
(333,652,o),
(370,612,o),
(370,546,cs),
(370,494,o),
(348,452,o),
(296,402,c),
(346,366,l),
(416,427,o),
(448,487,o),
(448,556,cs),
(448,663,o),
(380,722,o),
(276,722,cs),
(167,722,o),
(93,651,o),
(93,547,cs),
(93,338,o),
(390,355,o),
(390,175,cs),
(390,103,o),
(342,56,o),
(270,56,cs),
(196,56,o),
(149,108,o),
(149,190,cs),
(149,255,o),
(179,306,o),
(253,365,c),
(209,405,l),
(110,334,o),
(62,258,o),
(62,171,cs),
(62,59,o),
(140,-14,o),
(261,-14,cs)
);
}
);
width = 541;
},
{
layerId = "2895B92B-45F5-4972-B85C-1A160E6E6488";
shapes = (
{
closed = 1;
nodes = (
(498,-14,o),
(601,68,o),
(601,195,cs),
(601,440,o),
(217,373,o),
(217,552,cs),
(217,615,o),
(265,652,o),
(349,652,cs),
(435,652,o),
(484,612,o),
(484,544,cs),
(484,485,o),
(442,427,o),
(370,386,c),
(434,357,l),
(524,419,o),
(562,477,o),
(562,551,cs),
(562,657,o),
(482,722,o),
(353,722,cs),
(217,722,o),
(129,650,o),
(129,538,cs),
(129,303,o),
(511,368,o),
(511,181,cs),
(511,104,o),
(446,56,o),
(341,56,cs),
(235,56,o),
(174,105,o),
(174,191,cs),
(174,258,o),
(212,309,o),
(298,358,c),
(242,391,l),
(140,337,o),
(87,265,o),
(87,179,cs),
(87,60,o),
(183,-14,o),
(337,-14,cs)
);
}
);
width = 688;
},
{
layerId = "F497C50F-30EB-4580-9148-0005B36D0333";
shapes = (
{
closed = 1;
nodes = (
(443,-14,o),
(547,68,o),
(547,197,cs),
(547,436,o),
(197,421,o),
(197,623,cs),
(197,681,o),
(226,720,o),
(270,720,cs),
(334,720,o),
(383,640,o),
(383,536,cs),
(383,496,o),
(376,456,o),
(365,426,c),
(366,425,l),
(454,454,o),
(504,507,o),
(504,573,cs),
(504,661,o),
(415,722,o),
(287,722,cs),
(145,722,o),
(57,649,o),
(57,531,cs),
(57,296,o),
(400,308,o),
(400,108,cs),
(400,38,o),
(356,-12,o),
(295,-12,cs),
(217,-12,o),
(165,69,o),
(165,190,cs),
(165,236,o),
(172,274,o),
(192,330,c),
(191,331,l),
(85,296,o),
(29,237,o),
(29,159,cs),
(29,55,o),
(129,-14,o),
(279,-14,cs)
);
}
);
width = 577;
},
{
layerId = "41FE8A15-28AA-4FFF-A503-D6748EB37864";
shapes = (
{
closed = 1;
nodes = (
(497,-14,o),
(622,72,o),
(622,199,cs),
(622,445,o),
(211,435,o),
(211,621,cs),
(211,680,o),
(253,720,o),
(315,720,cs),
(403,720,o),
(469,648,o),
(469,553,cs),
(469,504,o),
(460,460,o),
(440,419,c),
(441,418,l),
(536,461,o),
(583,511,o),
(583,572,cs),
(583,659,o),
(483,722,o),
(335,722,cs),
(185,722,o),
(81,644,o),
(81,525,cs),
(81,274,o),
(474,307,o),
(474,110,cs),
(474,37,o),
(422,-12,o),
(344,-12,cs),
(245,-12,o),
(176,69,o),
(176,193,cs),
(176,244,o),
(187,285,o),
(210,334,c),
(209,335,l),
(101,290,o),
(46,232,o),
(46,161,cs),
(46,60,o),
(160,-14,o),
(334,-14,cs)
);
}
);
width = 668;
},
{
guides = (
{
angle = 90;
pos = (306,145);
}
);
layerId = "2AEC198B-4747-4E5F-80A7-B5A71C2761F9";
shapes = (
{
closed = 1;
nodes = (
(449,-14,o),
(553,68,o),
(553,187,cs),
(553,414,o),
(182,387,o),
(182,593,cs),
(182,669,o),
(229,720,o),
(300,720,cs),
(382,720,o),
(434,657,o),
(434,559,cs),
(434,493,o),
(412,436,o),
(368,393,c),
(369,393,l),
(468,455,o),
(512,513,o),
(512,577,cs),
(512,663,o),
(431,722,o),
(315,722,cs),
(188,722,o),
(101,652,o),
(101,551,cs),
(101,341,o),
(473,347,o),
(473,135,cs),
(473,38,o),
(406,-12,o),
(311,-12,cs),
(213,-12,o),
(152,59,o),
(152,175,cs),
(152,256,o),
(180,319,o),
(241,374,c),
(240,374,l),
(125,316,o),
(65,243,o),
(65,160,cs),
(65,55,o),
(158,-14,o),
(297,-14,cs)
);
}
);
width = 618;
},
{
layerId = "29EF49B2-C370-4E88-B36E-A4ACD23E3F3A";
shapes = (
{
closed = 1;
nodes = (
(441,-14,o),
(549,70,o),
(549,200,cs),
(549,426,o),
(228,418,o),
(228,578,cs),
(228,624,o),
(255,652,o),
(301,652,cs),
(356,652,o),
(386,616,o),
(386,550,cs),
(386,501,o),
(368,456,o),
(336,423,c),
(374,389,l),
(464,439,o),
(507,496,o),
(507,565,cs),
(507,660,o),
(425,722,o),
(300,722,cs),
(157,722,o),
(60,642,o),
(60,525,cs),
(60,312,o),
(379,314,o),
(379,142,cs),
(379,88,o),
(347,56,o),
(291,56,cs),
(216,56,o),
(169,107,o),
(169,190,cs),
(169,245,o),
(190,296,o),
(226,330,c),
(188,364,l),
(84,314,o),
(32,248,o),
(32,165,cs),
(32,54,o),
(125,-14,o),
(275,-14,cs)
);
}
);
width = 581;
},
{
layerId = "58AEE805-6805-4A0B-A273-5ABBCB55D365";
shapes = (
{
closed = 1;
nodes = (
(508,-14,o),
(630,73,o),
(630,206,cs),
(630,439,o),
(258,408,o),
(258,568,cs),
(258,620,o),
(297,652,o),
(358,652,cs),
(427,652,o),
(466,613,o),
(466,544,cs),
(466,493,o),
(444,449,o),
(400,413,c),
(448,379,l),
(542,430,o),
(587,489,o),
(587,559,cs),
(587,657,o),
(493,722,o),
(352,722,cs),
(193,722,o),
(86,638,o),
(86,513,cs),
(86,281,o),
(455,315,o),
(455,147,cs),
(455,89,o),
(411,56,o),
(336,56,cs),
(245,56,o),
(189,105,o),
(189,185,cs),
(189,244,o),
(219,298,o),
(270,330,c),
(224,364,l),
(110,314,o),
(52,247,o),
(52,166,cs),
(52,56,o),
(157,-14,o),
(322,-14,cs)
);
}
);
width = 682;
}
);
metricLeft = eight.lf;
metricRight = eight.lf;
unicode = 56;
userData = {
KernOnName = eight;
};
}
{
color = 6;
glyphname = less;
layers = (
{
layerId = "DF17D77B-A5C4-4843-826A-BC0F1C4CB224";
shapes = (
{
closed = 1;
nodes = (
(518,40,l),
(33,266,l),
(518,492,l),
(517,493,l),
(30,266,l),
(517,39,l)
);
}
);
width = 608;
},
{
layerId = "7300F074-2CFD-43CC-B20F-1BF1EAE6C2C7";
shapes = (
{
closed = 1;
nodes = (
(555,120,l),
(244,266,l),
(555,413,l),
(517,493,l),
(30,266,l),
(517,39,l)
);
}
);
width = 608;
},
{
layerId = "2895B92B-45F5-4972-B85C-1A160E6E6488";
shapes = (
{
closed = 1;
nodes = (
(555,120,l),
(244,266,l),
(555,413,l),
(517,493,l),
(30,266,l),
(517,39,l)
);
}
);
width = 608;
},
{
layerId = "F497C50F-30EB-4580-9148-0005B36D0333";
shapes = (
{
closed = 1;
nodes = (
(518,40,l),
(33,266,l),
(518,492,l),
(517,493,l),
(30,266,l),
(517,39,l)
);
}
);
width = 598;
},
{
layerId = "41FE8A15-28AA-4FFF-A503-D6748EB37864";
shapes = (
{
closed = 1;
nodes = (
(518,40,l),
(33,266,l),
(518,492,l),
(517,493,l),
(30,266,l),
(517,39,l)
);
}
);
width = 598;
},
{
layerId = "2AEC198B-4747-4E5F-80A7-B5A71C2761F9";
shapes = (
{
closed = 1;
nodes = (
(524,40,l),
(39,266,l),
(524,492,l),
(523,493,l),
(36,266,l),
(523,39,l)
);
}
);
width = 630;
},
{
layerId = "29EF49B2-C370-4E88-B36E-A4ACD23E3F3A";
shapes = (
{
closed = 1;
nodes = (
(555,120,l),
(244,266,l),
(555,413,l),
(517,493,l),
(30,266,l),
(517,39,l)
);
}
);
width = 598;
},
{
layerId = "58AEE805-6805-4A0B-A273-5ABBCB55D365";
shapes = (
{
closed = 1;
nodes = (
(555,120,l),
(244,266,l),
(555,413,l),
(517,493,l),
(30,266,l),
(517,39,l)
);
}
);
width = 598;
}
);
unicode = 60;
userData = {
KernOnSpecialSpacing = {
L = math;
R = math;
};
};
}
{
color = 6;
glyphname = equal;
kernLeft = KO_equal;
kernRight = KO_equal;
layers = (
{
layerId = "DF17D77B-A5C4-4843-826A-BC0F1C4CB224";
shapes = (
{
closed = 1;
nodes = (
(574,350,l),
(574,351,l),
(73,351,l),
(73,350,l)
);
},
{
closed = 1;
nodes = (
(574,181,l),
(574,182,l),
(73,182,l),
(73,181,l)
);
}
);
width = 647;
},
{
layerId = "7300F074-2CFD-43CC-B20F-1BF1EAE6C2C7";
shapes = (
{
closed = 1;
nodes = (
(574,296,l),
(574,376,l),
(73,376,l),
(73,296,l)
);
},
{
closed = 1;
nodes = (
(574,156,l),
(574,236,l),
(73,236,l),
(73,156,l)
);
}
);
width = 647;
},
{
layerId = "2895B92B-45F5-4972-B85C-1A160E6E6488";
shapes = (
{
closed = 1;
nodes = (
(574,296,l),
(574,376,l),
(73,376,l),
(73,296,l)
);
},
{
closed = 1;
nodes = (
(574,156,l),
(574,236,l),
(73,236,l),
(73,156,l)
);
}
);
width = 647;
},
{
layerId = "F497C50F-30EB-4580-9148-0005B36D0333";
shapes = (
{
closed = 1;
nodes = (
(564,350,l),
(564,351,l),
(63,351,l),
(63,350,l)
);
},
{
closed = 1;
nodes = (
(564,181,l),
(564,182,l),
(63,182,l),
(63,181,l)
);
}
);
width = 627;
},
{
layerId = "41FE8A15-28AA-4FFF-A503-D6748EB37864";
shapes = (
{
closed = 1;
nodes = (
(564,350,l),
(564,351,l),
(63,351,l),
(63,350,l)
);
},
{
closed = 1;
nodes = (
(564,181,l),
(564,182,l),
(63,182,l),
(63,181,l)
);
}
);
width = 627;
},
{
layerId = "2AEC198B-4747-4E5F-80A7-B5A71C2761F9";
shapes = (
{
closed = 1;
nodes = (
(589,350,l),
(589,351,l),
(88,351,l),
(88,350,l)
);
},
{
closed = 1;
nodes = (
(589,181,l),
(589,182,l),
(88,182,l),
(88,181,l)
);
}
);
width = 677;
},
{
layerId = "29EF49B2-C370-4E88-B36E-A4ACD23E3F3A";
shapes = (
{
closed = 1;
nodes = (
(564,296,l),
(564,376,l),
(63,376,l),
(63,296,l)
);
},
{
closed = 1;
nodes = (
(564,156,l),
(564,236,l),
(63,236,l),
(63,156,l)
);
}
);
width = 627;
},
{
layerId = "58AEE805-6805-4A0B-A273-5ABBCB55D365";
shapes = (
{
closed = 1;
nodes = (
(564,296,l),
(564,376,l),
(63,376,l),
(63,296,l)
);
},
{
closed = 1;
nodes = (
(564,156,l),
(564,236,l),
(63,236,l),
(63,156,l)
);
}
);
width = 627;
}
);
metricLeft = minus;
metricRight = minus;
unicode = 61;
userData = {
KernOnSpecialSpacing = {
L = math;
R = math;
};
};
}
{
color = 4;
glyphname = A;
kernLeft = KO_A;
kernRight = KO_A;
layers = (
{
anchors = (
{
name = bottom;
pos = (334,0);
},
{
name = center;
pos = (334,354);
},
{
name = ogonek;
pos = (563,0);
},
{
name = top;
pos = (333,708);
},
{
name = top_low_1;
pos = (333,688);
},
{
name = top_low_2;
pos = (333,668);
},
{
name = top_low_3;
pos = (333,648);
}
);
hints = (
{
name = "_cap.UC-thin-diagonal-flare";
options = 2;
origin = (0,8);
type = Cap;
},
{
name = "_corner.UC-left-diagonal-serif";
origin = (0,3);
scale = (-1,-1);
type = Corner;
},
{
name = "_corner.UC-right-diagonal-serif";
options = 1;
origin = (0,5);
type = Corner;
}
);
layerId = "DF17D77B-A5C4-4843-826A-BC0F1C4CB224";
shapes = (
{
closed = 1;
nodes = (
(61,0,l),
(298,624,l),
(287,597,l),
(516,0,l),
(558,3,l),
(612,0,l),
(335,723,l),
(334,723,l),
(59,0,l)
);
},
{
closed = 1;
nodes = (
(464,277,l),
(464,278,l),
(166,278,l),
(166,277,l)
);
}
);
width = 677;
},
{
anchors = (
{
name = bottom;
pos = (391,0);
},
{
name = center;
pos = (390,354);
},
{
name = ogonek;
pos = (650,0);
},
{
name = top;
pos = (390,708);
},
{
name = top_low_1;
pos = (390,688);
},
{
name = top_low_2;
pos = (390,668);
},
{
name = top_low_3;
pos = (390,648);
}
);
hints = (
{
name = "_cap.UC-thin-diagonal-flare";
options = 2;
origin = (0,8);
type = Cap;
},
{
name = "_corner.UC-left-diagonal-serif";
origin = (0,3);
scale = (0.8,1);
type = Corner;
},
{
name = "_corner.UC-right-diagonal-serif";
options = 1;
origin = (0,5);
type = Corner;
}
);
layerId = "7300F074-2CFD-43CC-B20F-1BF1EAE6C2C7";
shapes = (
{
closed = 1;
nodes = (
(163,0,l),
(396,609,l),
(369,594,l),
(596,0,l),
(645,3,l),
(694,0,l),
(425,708,l),
(359,708,l),
(88,0,l)
);
},
{
closed = 1;
nodes = (
(566,223,l),
(541,293,l),
(233,293,l),
(205,223,l)
);
}
);
width = 803;
},
{
anchors = (
{
name = bottom;
pos = (492,0);
},
{
name = center;
pos = (492,354);
},
{
name = ogonek;
pos = (823,0);
},
{
name = top;
pos = (494,708);
},
{
name = top_low_1;
pos = (494,688);
},
{
name = top_low_2;
pos = (494,668);
},
{
name = top_low_3;
pos = (494,648);
}
);
hints = (
{
name = "_cap.UC-thin-diagonal-flare";
options = 2;
origin = (0,8);
type = Cap;
},
{
name = "_corner.UC-left-diagonal-serif";
origin = (0,3);
type = Corner;
},
{
name = "_corner.UC-right-diagonal-serif";
options = 1;
origin = (0,5);
type = Corner;
}
);
layerId = "2895B92B-45F5-4972-B85C-1A160E6E6488";
shapes = (
{
closed = 1;
nodes = (
(188,0,l),
(501,630,l),
(466,623,l),
(764,0,l),
(816,3,l),
(868,0,l),
(528,708,l),
(462,708,l),
(110,0,l)
);
},
{
closed = 1;
nodes = (
(701,226,l),
(674,297,l),
(297,297,l),
(264,226,l)
);
}
);
width = 1002;
},
{
anchors = (
{
name = bottom;
pos = (387,0);
},
{
name = center;
pos = (371,354);
},
{
name = ogonek;
pos = (603,0);
},
{
name = top;
pos = (370,708);
},
{
name = top_low_1;
pos = (370,688);
},
{
name = top_low_2;
pos = (370,668);
},
{
name = top_low_3;
pos = (370,648);
}
);
hints = (
{
name = "_cap.UC-thin-diagonal-flare";
options = 2;
origin = (0,8);
type = Cap;
},
{
name = "_corner.UC-left-diagonal-serif";
origin = (0,3);
type = Corner;
},
{
name = "_corner.UC-right-diagonal-serif";
options = 1;
origin = (0,5);
type = Corner;
}
);
layerId = "F497C50F-30EB-4580-9148-0005B36D0333";
shapes = (
{
closed = 1;
nodes = (
(63,0,l),
(273,496,l),
(263,476,l),
(489,0,l),
(601,3,l),
(713,0,l),
(369,723,l),
(368,723,l),
(61,0,l)
);
},
{
closed = 1;
nodes = (
(454,228,l),
(454,229,l),
(159,229,l),
(158,228,l)
);
}
);
width = 761;
},
{
anchors = (
{
name = bottom;
pos = (447,0);
},
{
name = center;
pos = (431,354);
},
{
name = ogonek;
pos = (700,0);
},
{
name = top;
pos = (433,708);
},
{
name = top_low_1;
pos = (433,688);
},
{
name = top_low_2;
pos = (433,668);
},
{
name = top_low_3;
pos = (433,648);
}
);
hints = (
{
name = "_cap.UC-thin-diagonal-flare";
options = 2;
origin = (0,8);
type = Cap;
},
{
name = "_corner.UC-left-diagonal-serif";
origin = (0,3);
type = Corner;
},
{
name = "_corner.UC-right-diagonal-serif";
options = 1;
origin = (0,5);
type = Corner;
}
);
layerId = "41FE8A15-28AA-4FFF-A503-D6748EB37864";
shapes = (
{
closed = 1;
nodes = (
(59,0,l),
(340,546,l),
(320,509,l),
(599,0,l),
(713,3,l),
(827,0,l),
(431,723,l),
(430,723,l),
(57,0,l)
);
},
{
closed = 1;
nodes = (
(538,222,l),
(537,223,l),
(173,223,l),
(172,222,l)
);
}
);
width = 882;
},
{
anchors = (
{
name = bottom;
pos = (392,0);
},
{
name = center;
pos = (392,354);
},
{
name = ogonek;
pos = (678,0);
},
{
name = top;
pos = (393,708);
},
{
name = top_low_1;
pos = (393,688);
},
{
name = top_low_2;
pos = (393,668);
},
{
name = top_low_3;
pos = (393,648);
}
);
hints = (
{
name = "_cap.UC-thin-diagonal-flare";
options = 2;
origin = (0,8);
type = Cap;
},
{
name = "_corner.UC-left-diagonal-serif";
origin = (0,3);
type = Corner;
},
{
name = "_corner.UC-right-diagonal-serif";
options = 1;
origin = (0,5);
type = Corner;
}
);
layerId = "2AEC198B-4747-4E5F-80A7-B5A71C2761F9";
shapes = (
{
closed = 1;
nodes = (
(69,0,l),
(350,623,l),
(345,614,l),
(618,0,l),
(667,3,l),
(717,0,l),
(395,723,l),
(394,723,l),
(67,0,l)
);
},
{
closed = 1;
nodes = (
(542,277,l),
(542,278,l),
(194,278,l),
(193,277,l)
);
}
);
width = 786;
},
{
anchors = (
{
name = bottom;
pos = (417,0);
},
{
name = center;
pos = (401,354);
},
{
name = ogonek;
pos = (633,0);
},
{
name = top;
pos = (401,708);
},
{
name = top_low_1;
pos = (401,688);
},
{
name = top_low_2;
pos = (401,668);
},
{
name = top_low_3;
pos = (401,648);
}
);
hints = (
{
name = "_cap.UC-thin-diagonal-flare";
options = 2;
origin = (0,8);
type = Cap;
},
{
name = "_corner.UC-left-diagonal-serif";
origin = (0,3);
type = Corner;
},
{
name = "_corner.UC-right-diagonal-serif";
options = 1;
origin = (0,5);
type = Corner;
}
);
layerId = "29EF49B2-C370-4E88-B36E-A4ACD23E3F3A";
shapes = (
{
closed = 1;
nodes = (
(136,0,l),
(354,508,l),
(302,515,l),
(556,0,l),
(667,3,l),
(779,0,l),
(431,708,l),
(365,708,l),
(60,0,l)
);
},
{
closed = 1;
nodes = (
(509,193,l),
(474,263,l),
(206,263,l),
(176,193,l)
);
}
);
width = 831;
},
{
anchors = (
{
name = bottom;
pos = (523,0);
},
{
name = center;
pos = (510,354);
},
{
name = ogonek;
pos = (823,0);
},
{
name = top;
pos = (510,708);
},
{
name = top_low_1;
pos = (510,688);
},
{
name = top_low_2;
pos = (510,668);
},
{
name = top_low_3;
pos = (510,648);
}
);
hints = (
{
name = "_cap.UC-thin-diagonal-flare";
options = 2;
origin = (0,8);
type = Cap;
},
{
name = "_corner.UC-left-diagonal-serif";
origin = (0,3);
type = Corner;
},
{
name = "_corner.UC-right-diagonal-serif";
options = 1;
origin = (0,5);
type = Corner;
}
);
layerId = "58AEE805-6805-4A0B-A273-5ABBCB55D365";
shapes = (
{
closed = 1;
nodes = (
(157,0,l),
(442,508,l),
(422,515,l),
(728,0,l),
(844,3,l),
(961,0,l),
(541,708,l),
(475,708,l),
(78,0,l)
);
},
{
closed = 1;
nodes = (
(675,193,l),
(636,263,l),
(282,263,l),
(245,193,l)
);
}
);
width = 1045;
}
);
metricLeft = "=|V";
metricRight = "=|V";
unicode = 65;
userData = {
KernOnName = A;
};
}
{
color = 4;
glyphname = B;
kernLeft = KO_H;
kernRight = KO_B;
layers = (
{
anchors = (
{
name = bottom;
pos = (310,0);
},
{
name = center;
pos = (167,367);
},
{
name = currency;
pos = (319,0);
},
{
name = top;
pos = (310,708);
},
{
name = top_low_1;
pos = (310,688);
},
{
name = top_low_2;
pos = (310,668);
},
{
name = top_low_3;
pos = (310,648);
}
);
hints = (
{
name = "_corner.UC-serif-to-bowl";
origin = (0,14);
scale = (1,-1);
type = Corner;
},
{
name = "_corner.UC-serif-to-bowl";
origin = (0,15);
type = Corner;
}
);
layerId = "DF17D77B-A5C4-4843-826A-BC0F1C4CB224";
shapes = (
{
closed = 1;
nodes = (
(336,0,ls),
(482,0,o),
(576,76,o),
(576,194,cs),
(576,299,o),
(486,358,o),
(313,368,c),
(313,369,l),
(440,386,o),
(524,458,o),
(524,550,cs),
(524,648,o),
(444,708,o),
(313,708,cs),
(121,708,l),
(121,0,l)
);
},
{
closed = 1;
nodes = (
(226,2,o),
(214,16,o),
(214,87,cs),
(214,704,l),
(288,704,ls),
(384,704,o),
(428,654,o),
(428,539,cs),
(428,425,o),
(379,368,o),
(281,368,cs),
(195,368,l),
(195,367,l),
(298,367,ls),
(418,367,o),
(476,312,o),
(476,198,cs),
(476,67,o),
(414,2,o),
(289,2,cs)
);
}
);
width = 621;
},
{
anchors = (
{
name = bottom;
pos = (370,0);
},
{
name = center;
pos = (258,367);
},
{
name = currency;
pos = (379,0);
},
{
name = top;
pos = (400,708);
},
{
name = top_low_1;
pos = (400,688);
},
{
name = top_low_2;
pos = (400,668);
},
{
name = top_low_3;
pos = (400,648);
}
);
hints = (
{
name = "_corner.UC-serif-to-bowl";
origin = (0,14);
scale = (1,-1);
type = Corner;
},
{
name = "_corner.UC-serif-to-bowl";
origin = (0,15);
type = Corner;
}
);
layerId = "7300F074-2CFD-43CC-B20F-1BF1EAE6C2C7";
shapes = (
{
closed = 1;
nodes = (
(425,0,ls),
(573,0,o),
(666,78,o),
(666,202,cs),
(666,297,o),
(611,361,o),
(512,381,c),
(512,383,l),
(577,409,o),
(614,466,o),
(614,539,cs),
(614,645,o),
(535,708,o),
(403,708,cs),
(211,708,l),
(211,0,l)
);
},
{
closed = 1;
nodes = (
(316,73,o),
(304,86,o),
(304,156,cs),
(304,638,l),
(380,638,ls),
(475,638,o),
(518,603,o),
(518,526,cs),
(518,444,o),
(468,402,o),
(371,402,cs),
(285,402,l),
(285,333,l),
(388,333,ls),
(508,333,o),
(566,292,o),
(566,208,cs),
(566,118,o),
(504,73,o),
(381,73,cs)
);
}
);
width = 731;
},
{
anchors = (
{
name = bottom;
pos = (463,0);
},
{
name = center;
pos = (303,367);
},
{
name = currency;
pos = (473,0);
},
{
name = top;
pos = (483,708);
},
{
name = top_low_1;
pos = (483,688);
},
{
name = top_low_2;
pos = (483,668);
},
{
name = top_low_3;
pos = (483,648);
}
);
hints = (
{
name = "_corner.UC-serif-to-bowl";
origin = (0,14);
scale = (1,-1);
type = Corner;
},
{
name = "_corner.UC-serif-to-bowl";
origin = (0,15);
type = Corner;
}
);
layerId = "2895B92B-45F5-4972-B85C-1A160E6E6488";
shapes = (
{
closed = 1;
nodes = (
(497,0,ls),
(703,0,o),
(807,68,o),
(807,201,cs),
(807,304,o),
(745,364,o),
(621,381,c),
(621,383,l),
(700,413,o),
(740,465,o),
(740,539,cs),
(740,649,o),
(652,708,o),
(486,708,cs),
(256,708,l),
(256,0,l)
);
},
{
closed = 1;
nodes = (
(362,73,o),
(349,83,o),
(349,156,cs),
(349,637,l),
(462,638,ls),
(590,639,o),
(641,607,o),
(641,528,cs),
(641,445,o),
(580,402,o),
(464,402,cs),
(334,402,l),
(334,333,l),
(513,333,ls),
(639,333,o),
(706,289,o),
(706,206,cs),
(706,114,o),
(632,73,o),
(463,73,cs)
);
}
);
width = 891;
},
{
anchors = (
{
name = bottom;
pos = (354,0);
},
{
name = center;
pos = (202,367);
},
{
name = currency;
pos = (373,0);
},
{
name = top;
pos = (354,708);
},
{
name = top_low_1;
pos = (354,688);
},
{
name = top_low_2;
pos = (354,668);
},
{
name = top_low_3;
pos = (354,648);
}
);
hints = (
{
name = "_corner.UC-serif-to-bowl";
origin = (0,14);
scale = (1,-1);
type = Corner;
},
{
name = "_corner.UC-serif-to-bowl";
origin = (0,15);
type = Corner;
}
);
layerId = "F497C50F-30EB-4580-9148-0005B36D0333";
shapes = (
{
closed = 1;
nodes = (
(427,0,ls),
(590,0,o),
(686,70,o),
(686,179,cs),
(686,308,o),
(584,367,o),
(375,367,c),
(375,368,l),
(546,378,o),
(634,437,o),
(634,547,cs),
(634,657,o),
(559,708,o),
(395,708,cs),
(101,708,l),
(101,0,l)
);
},
{
closed = 1;
nodes = (
(317,2,o),
(304,20,o),
(304,87,cs),
(304,705,l),
(344,705,ls),
(410,705,o),
(448,639,o),
(448,543,cs),
(448,434,o),
(415,368,o),
(361,368,cs),
(245,368,l),
(245,367,l),
(358,367,ls),
(435,367,o),
(476,300,o),
(476,187,cs),
(476,67,o),
(435,2,o),
(365,2,cs)
);
}
);
width = 706;
},
{
anchors = (
{
name = bottom;
pos = (411,0);
},
{
name = center;
pos = (231,367);
},
{
name = currency;
pos = (422,0);
},
{
name = top;
pos = (411,708);
},
{
name = top_low_1;
pos = (411,688);
},
{
name = top_low_2;
pos = (411,668);
},
{
name = top_low_3;
pos = (411,648);
}
);
hints = (
{
name = "_corner.UC-serif-to-bowl";
origin = (0,14);
scale = (1,-1);
type = Corner;
},
{
name = "_corner.UC-serif-to-bowl";
origin = (0,15);
type = Corner;
}
);
layerId = "41FE8A15-28AA-4FFF-A503-D6748EB37864";
shapes = (
{
closed = 1;
nodes = (
(445,0,ls),
(675,0,o),
(788,60,o),
(788,182,cs),
(788,304,o),
(673,367,o),
(449,367,c),
(449,368,l),
(632,378,o),
(725,437,o),
(725,543,cs),
(725,654,o),
(630,708,o),
(434,708,cs),
(130,708,l),
(130,0,l)
);
},
{
closed = 1;
nodes = (
(346,2,o),
(333,18,o),
(333,87,cs),
(333,705,l),
(416,705,ls),
(491,705,o),
(539,640,o),
(539,537,cs),
(539,437,o),
(494,368,o),
(430,368,cs),
(278,368,l),
(278,367,l),
(422,367,ls),
(520,367,o),
(578,300,o),
(578,186,cs),
(578,68,o),
(515,2,o),
(402,2,cs)
);
}
);
width = 821;
},
{
anchors = (
{
name = bottom;
pos = (365,0);
},
{
name = center;
pos = (195,367);
},
{
name = currency;
pos = (358,0);
},
{
name = top;
pos = (365,708);
},
{
name = top_low_1;
pos = (365,688);
},
{
name = top_low_2;
pos = (365,668);
},
{
name = top_low_3;
pos = (365,648);
}
);
hints = (
{
name = "_corner.UC-serif-to-bowl";
origin = (0,14);
scale = (1,-1);
type = Corner;
},
{
name = "_corner.UC-serif-to-bowl";
origin = (0,15);
type = Corner;
}
);
layerId = "2AEC198B-4747-4E5F-80A7-B5A71C2761F9";
shapes = (
{
closed = 1;
nodes = (
(394,0,ls),
(564,0,o),
(673,77,o),
(673,197,cs),
(673,304,o),
(586,361,o),
(411,368,c),
(411,369,l),
(540,391,o),
(610,452,o),
(610,544,cs),
(610,649,o),
(521,708,o),
(364,708,cs),
(149,708,l),
(149,0,l)
);
},
{
closed = 1;
nodes = (
(257,2,o),
(242,16,o),
(242,84,cs),
(242,704,l),
(335,704,ls),
(459,704,o),
(514,651,o),
(514,535,cs),
(514,426,o),
(468,368,o),
(382,368,cs),
(226,368,l),
(226,367,l),
(396,367,ls),
(515,367,o),
(573,313,o),
(573,200,cs),
(573,67,o),
(493,2,o),
(332,2,cs)
);
}
);
width = 731;
},
{
anchors = (
{
name = bottom;
pos = (376,0);
},
{
name = center;
pos = (234,367);
},
{
name = currency;
pos = (403,0);
},
{
name = top;
pos = (384,708);
},
{
name = top_low_1;
pos = (384,688);
},
{
name = top_low_2;
pos = (384,668);
},
{
name = top_low_3;
pos = (384,648);
}
);
hints = (
{
name = "_corner.UC-serif-to-bowl";
origin = (0,14);
scale = (1,-1);
type = Corner;
},
{
name = "_corner.UC-serif-to-bowl";
origin = (0,15);
type = Corner;
}
);
layerId = "29EF49B2-C370-4E88-B36E-A4ACD23E3F3A";
shapes = (
{
closed = 1;
nodes = (
(416,0,ls),
(606,0,o),
(716,72,o),
(716,196,cs),
(716,300,o),
(637,362,o),
(493,371,c),
(493,373,l),
(613,404,o),
(664,454,o),
(664,541,cs),
(664,654,o),
(577,708,o),
(394,708,cs),
(131,708,l),
(131,0,l)
);
},
{
closed = 1;
nodes = (
(350,73,o),
(334,93,o),
(334,156,cs),
(334,638,l),
(369,638,ls),
(444,638,o),
(478,597,o),
(478,529,cs),
(478,450,o),
(433,401,o),
(361,401,cs),
(275,401,l),
(275,334,l),
(358,334,ls),
(453,334,o),
(506,283,o),
(506,189,cs),
(506,113,o),
(469,73,o),
(401,73,cs)
);
}
);
width = 736;
},
{
anchors = (
{
name = bottom;
pos = (474,0);
},
{
name = center;
pos = (290,367);
},
{
name = currency;
pos = (497,0);
},
{
name = top;
pos = (482,708);
},
{
name = top_low_1;
pos = (482,688);
},
{
name = top_low_2;
pos = (482,668);
},
{
name = top_low_3;
pos = (482,648);
}
);
hints = (
{
name = "_corner.UC-serif-to-bowl";
origin = (0,14);
scale = (1,-1);
type = Corner;
},
{
name = "_corner.UC-serif-to-bowl";
origin = (0,15);
type = Corner;
}
);
layerId = "58AEE805-6805-4A0B-A273-5ABBCB55D365";
shapes = (
{
closed = 1;
nodes = (
(513,0,ls),
(745,0,o),
(878,73,o),
(878,199,cs),
(878,297,o),
(798,362,o),
(653,382,c),
(653,384,l),
(759,412,o),
(810,463,o),
(810,541,cs),
(810,654,o),
(706,708,o),
(491,708,cs),
(188,708,l),
(188,0,l)
);
},
{
closed = 1;
nodes = (
(415,73,o),
(391,92,o),
(391,156,cs),
(391,638,l),
(483,638,ls),
(573,638,o),
(624,597,o),
(624,525,cs),
(624,449,o),
(571,401,o),
(486,401,cs),
(337,401,l),
(337,334,l),
(491,334,ls),
(606,334,o),
(668,289,o),
(668,204,cs),
(668,119,o),
(607,73,o),
(494,73,cs)
);
}
);
width = 918;
}
);
metricLeft = I;
unicode = 66;
}
{
color = 4;
glyphname = C;
kernLeft = KO_C;
kernRight = KO_C;
layers = (
{
anchors = (
{
name = bottom;
pos = (374,0);
},
{
name = center;
pos = (364,354);
},
{
name = currency;
pos = (374,0);
},
{
name = middlestroke;
pos = (153,354);
},
{
name = top;
pos = (364,708);
},
{
name = top_low_1;
pos = (364,688);
},
{
name = top_low_2;
pos = (364,668);
},
{
name = top_low_3;
pos = (364,648);
}
);
layerId = "DF17D77B-A5C4-4843-826A-BC0F1C4CB224";
shapes = (
{
closed = 1;
nodes = (
(482,-14,o),
(524,39,o),
(582,39,cs),
(606,39,o),
(617,25,o),
(622,-14,c),
(623,-14,l),
(620,34,o),
(619,100,o),
(619,240,c),
(618,240,l),
(604,92,o),
(507,-11,o),
(383,-11,cs),
(237,-11,o),
(153,124,o),
(153,356,cs),
(153,586,o),
(236,719,o),
(381,719,cs),
(500,719,o),
(597,620,o),
(618,468,c),
(619,468,l),
(619,612,o),
(620,673,o),
(623,722,c),
(622,722,l),
(617,683,o),
(605,668,o),
(580,668,cs),
(521,668,o),
(476,722,o),
(366,722,cs),
(182,722,o),
(53,567,o),
(53,345,cs),
(53,128,o),
(176,-14,o),
(364,-14,cs)
);
}
);
width = 688;
},
{
anchors = (
{
name = bottom;
pos = (394,0);
},
{
name = center;
pos = (378,354);
},
{
name = currency;
pos = (386,0);
},
{
name = middlestroke;
pos = (182,354);
},
{
name = top;
pos = (370,708);
},
{
name = top_low_1;
pos = (370,688);
},
{
name = top_low_2;
pos = (370,668);
},
{
name = top_low_3;
pos = (370,648);
}
);
layerId = "7300F074-2CFD-43CC-B20F-1BF1EAE6C2C7";
shapes = (
{
closed = 1;
nodes = (
(492,-14,o),
(537,59,o),
(566,59,cs),
(579,59,o),
(586,41,o),
(590,-4,c),
(663,-4,l),
(660,50,o),
(659,119,o),
(659,260,c),
(586,260,l),
(570,139,o),
(485,54,o),
(382,54,cs),
(260,54,o),
(183,171,o),
(183,355,cs),
(183,539,o),
(260,654,o),
(383,654,cs),
(488,654,o),
(568,573,o),
(586,448,c),
(659,448,l),
(659,591,o),
(660,657,o),
(663,712,c),
(590,712,l),
(586,669,o),
(578,648,o),
(566,648,cs),
(542,648,o),
(500,722,o),
(378,722,cs),
(203,722,o),
(83,569,o),
(83,346,cs),
(83,129,o),
(196,-14,o),
(369,-14,cs)
);
}
);
width = 773;
},
{
anchors = (
{
name = bottom;
pos = (488,0);
},
{
name = center;
pos = (465,354);
},
{
name = currency;
pos = (480,0);
},
{
name = middlestroke;
pos = (202,354);
},
{
name = top;
pos = (461,708);
},
{
name = top_low_1;
pos = (461,688);
},
{
name = top_low_2;
pos = (461,668);
},
{
name = top_low_3;
pos = (461,648);
}
);
layerId = "2895B92B-45F5-4972-B85C-1A160E6E6488";
shapes = (
{
closed = 1;
nodes = (
(605,-14,o),
(683,59,o),
(720,59,cs),
(738,59,o),
(748,41,o),
(754,-4,c),
(827,-4,l),
(824,55,o),
(823,121,o),
(823,260,c),
(750,260,l),
(709,128,o),
(611,54,o),
(477,54,cs),
(308,54,o),
(202,170,o),
(202,356,cs),
(202,540,o),
(306,654,o),
(476,654,cs),
(612,654,o),
(710,580,o),
(749,448,c),
(822,448,l),
(822,610,o),
(823,663,o),
(827,712,c),
(754,712,l),
(749,668,o),
(739,648,o),
(722,648,cs),
(690,648,o),
(622,722,o),
(467,722,cs),
(246,722,o),
(102,574,o),
(102,348,cs),
(102,127,o),
(239,-14,o),
(452,-14,cs)
);
}
);
width = 973;
},
{
anchors = (
{
name = bottom;
pos = (418,0);
},
{
name = center;
pos = (387,354);
},
{
name = currency;
pos = (414,0);
},
{
name = middlestroke;
pos = (247,354);
},
{
name = top;
pos = (387,708);
},
{
name = top_low_1;
pos = (387,688);
},
{
name = top_low_2;
pos = (387,668);
},
{
name = top_low_3;
pos = (387,648);
}
);
layerId = "F497C50F-30EB-4580-9148-0005B36D0333";
shapes = (
{
closed = 1;
nodes = (
(534,-14,o),
(565,39,o),
(619,39,cs),
(647,39,o),
(659,26,o),
(666,-14,c),
(667,-14,l),
(664,37,o),
(663,108,o),
(663,260,c),
(662,260,l),
(646,88,o),
(573,-2,o),
(462,-2,cs),
(325,-2,o),
(247,127,o),
(247,355,cs),
(247,583,o),
(323,709,o),
(459,709,cs),
(571,709,o),
(644,620,o),
(662,448,c),
(663,448,l),
(663,605,o),
(664,671,o),
(667,722,c),
(666,722,l),
(659,685,o),
(645,668,o),
(620,668,cs),
(562,668,o),
(530,722,o),
(384,722,cs),
(174,722,o),
(37,575,o),
(37,349,cs),
(37,125,o),
(152,-14,o),
(389,-14,cs)
);
}
);
width = 718;
},
{
anchors = (
{
name = bottom;
pos = (494,0);
},
{
name = center;
pos = (454,354);
},
{
name = currency;
pos = (494,0);
},
{
name = middlestroke;
pos = (260,354);
},
{
name = top;
pos = (455,708);
},
{
name = top_low_1;
pos = (455,688);
},
{
name = top_low_2;
pos = (455,668);
},
{
name = top_low_3;
pos = (455,648);
}
);
layerId = "41FE8A15-28AA-4FFF-A503-D6748EB37864";
shapes = (
{
closed = 1;
nodes = (
(639,-14,o),
(663,39,o),
(726,39,cs),
(759,39,o),
(773,26,o),
(782,-14,c),
(783,-14,l),
(780,37,o),
(779,94,o),
(779,260,c),
(778,260,l),
(762,85,o),
(672,-6,o),
(539,-6,cs),
(361,-6,o),
(260,124,o),
(260,355,cs),
(260,584,o),
(359,711,o),
(535,711,cs),
(667,711,o),
(760,621,o),
(777,448,c),
(778,448,l),
(778,620,o),
(780,678,o),
(783,722,c),
(782,722,l),
(772,685,o),
(757,668,o),
(726,668,cs),
(658,668,o),
(622,722,o),
(473,722,cs),
(223,722,o),
(50,575,o),
(50,349,cs),
(50,125,o),
(211,-14,o),
(483,-14,cs)
);
}
);
width = 851;
},
{
anchors = (
{
name = bottom;
pos = (441,0);
},
{
name = center;
pos = (432,354);
},
{
name = currency;
pos = (434,0);
},
{
name = middlestroke;
pos = (165,354);
},
{
name = top;
pos = (432,708);
},
{
name = top_low_1;
pos = (432,688);
},
{
name = top_low_2;
pos = (432,668);
},
{
name = top_low_3;
pos = (432,648);
}
);
layerId = "2AEC198B-4747-4E5F-80A7-B5A71C2761F9";
shapes = (
{
closed = 1;
nodes = (
(557,-14,o),
(641,39,o),
(689,39,cs),
(717,39,o),
(730,25,o),
(739,-14,c),
(740,-14,l),
(737,38,o),
(736,101,o),
(736,240,c),
(735,240,l),
(703,82,o),
(592,-12,o),
(440,-12,cs),
(268,-12,o),
(166,124,o),
(166,356,cs),
(166,586,o),
(267,720,o),
(440,720,cs),
(591,720,o),
(702,626,o),
(734,468,c),
(735,468,l),
(735,607,o),
(736,670,o),
(739,722,c),
(738,722,l),
(729,683,o),
(716,668,o),
(688,668,cs),
(642,668,o),
(551,722,o),
(437,722,cs),
(220,722,o),
(66,566,o),
(66,344,cs),
(66,128,o),
(212,-14,o),
(433,-14,cs)
);
}
);
width = 820;
},
{
anchors = (
{
name = bottom;
pos = (418,0);
},
{
name = center;
pos = (384,354);
},
{
name = currency;
pos = (404,0);
},
{
name = middlestroke;
pos = (246,354);
},
{
name = top;
pos = (350,708);
},
{
name = top_low_1;
pos = (350,688);
},
{
name = top_low_2;
pos = (350,668);
},
{
name = top_low_3;
pos = (350,648);
}
);
layerId = "29EF49B2-C370-4E88-B36E-A4ACD23E3F3A";
shapes = (
{
closed = 1;
nodes = (
(504,-14,o),
(534,59,o),
(568,59,cs),
(583,59,o),
(590,43,o),
(594,-4,c),
(667,-4,l),
(661,96,o),
(663,161,o),
(663,280,c),
(590,280,l),
(574,147,o),
(511,71,o),
(418,71,cs),
(309,71,o),
(247,174,o),
(247,355,cs),
(247,534,o),
(308,633,o),
(418,633,cs),
(510,633,o),
(573,558,o),
(590,428,c),
(663,428,l),
(663,547,o),
(661,610,o),
(667,712,c),
(594,712,l),
(590,667,o),
(582,648,o),
(568,648,cs),
(542,648,o),
(498,722,o),
(361,722,cs),
(166,722,o),
(37,574,o),
(37,350,cs),
(37,128,o),
(164,-14,o),
(362,-14,cs)
);
}
);
width = 718;
},
{
anchors = (
{
name = bottom;
pos = (516,0);
},
{
name = center;
pos = (474,354);
},
{
name = currency;
pos = (501,0);
},
{
name = middlestroke;
pos = (267,354);
},
{
name = top;
pos = (454,708);
},
{
name = top_low_1;
pos = (454,688);
},
{
name = top_low_2;
pos = (454,668);
},
{
name = top_low_3;
pos = (454,648);
}
);
layerId = "58AEE805-6805-4A0B-A273-5ABBCB55D365";
shapes = (
{
closed = 1;
nodes = (
(636,-14,o),
(697,59,o),
(739,59,cs),
(758,59,o),
(768,42,o),
(774,-4,c),
(847,-4,l),
(843,93,o),
(842,155,o),
(842,280,c),
(769,280,l),
(736,144,o),
(649,71,o),
(521,71,cs),
(363,71,o),
(267,178,o),
(267,355,cs),
(267,529,o),
(361,633,o),
(518,633,cs),
(648,633,o),
(735,562,o),
(769,428,c),
(842,428,l),
(842,557,o),
(843,616,o),
(847,712,c),
(774,712,l),
(768,666,o),
(758,648,o),
(740,648,cs),
(705,648,o),
(638,722,o),
(464,722,cs),
(218,722,o),
(57,574,o),
(57,349,cs),
(57,126,o),
(203,-14,o),
(459,-14,cs)
);
}
);
width = 921;
}
);
metricLeft = O;
unicode = 67;
}
{
color = 4;
glyphname = G;
kernLeft = KO_C;
kernRight = KO_G;
layers = (
{
anchors = (
{
name = bottom;
pos = (376,0);
},
{
name = currency;
pos = (374,0);
},
{
name = top;
pos = (360,708);
},
{
name = top_low_1;
pos = (360,688);
},
{
name = top_low_2;
pos = (360,668);
},
{
name = top_low_3;
pos = (360,648);
}
);
guides = (
{
pos = (739,31);
}
);
hints = (
{
name = "_corner.UC-serif";
origin = (0,9);
scale = (-1.2,1);
type = Corner;
},
{
name = "_corner.UC-serif";
origin = (0,7);
scale = (-0.5,-1);
type = Corner;
}
);
layerId = "DF17D77B-A5C4-4843-826A-BC0F1C4CB224";
shapes = (
{
closed = 1;
nodes = (
(480,-14,o),
(513,40,o),
(575,40,cs),
(597,40,o),
(610,36,o),
(618,31,c),
(619,31,l),
(619,304,l),
(573,301,l),
(526,304,l),
(526,133,ls),
(526,39,o),
(472,-11,o),
(383,-11,cs),
(237,-11,o),
(153,124,o),
(153,356,cs),
(153,586,o),
(236,719,o),
(381,719,cs),
(502,719,o),
(597,618,o),
(618,468,c),
(619,468,l),
(619,610,o),
(620,673,o),
(623,722,c),
(622,722,l),
(617,683,o),
(605,668,o),
(580,668,cs),
(521,668,o),
(476,722,o),
(366,722,cs),
(182,722,o),
(53,567,o),
(53,345,cs),
(53,128,o),
(176,-14,o),
(364,-14,cs)
);
}
);
width = 732;
},
{
anchors = (
{
name = bottom;
pos = (406,0);
},
{
name = currency;
pos = (394,0);
},
{
name = top;
pos = (380,708);
},
{
name = top_low_1;
pos = (380,688);
},
{
name = top_low_2;
pos = (380,668);
},
{
name = top_low_3;
pos = (380,648);
}
);
hints = (
{
name = "_corner.UC-serif";
origin = (0,9);
scale = (-1,1);
type = Corner;
},
{
name = "_corner.UC-serif";
origin = (0,7);
scale = (-0.5,-1);
type = Corner;
}
);
layerId = "7300F074-2CFD-43CC-B20F-1BF1EAE6C2C7";
shapes = (
{
closed = 1;
nodes = (
(475,-14,o),
(538,37,o),
(566,37,cs),
(578,37,o),
(584,30,o),
(589,10,c),
(659,10,l),
(659,354,l),
(613,351,l),
(566,354,l),
(566,174,ls),
(566,107,o),
(490,54,o),
(393,54,cs),
(260,54,o),
(183,164,o),
(183,353,cs),
(183,539,o),
(259,654,o),
(383,654,cs),
(488,654,o),
(568,573,o),
(586,448,c),
(659,448,l),
(659,591,o),
(660,657,o),
(663,712,c),
(590,712,l),
(586,669,o),
(578,648,o),
(566,648,cs),
(543,648,o),
(499,722,o),
(380,722,cs),
(206,722,o),
(83,565,o),
(83,344,cs),
(83,128,o),
(198,-14,o),
(371,-14,cs)
);
}
);
width = 822;
},
{
anchors = (
{
name = bottom;
pos = (501,0);
},
{
name = currency;
pos = (475,0);
},
{
name = top;
pos = (470,708);
},
{
name = top_low_1;
pos = (470,688);
},
{
name = top_low_2;
pos = (470,668);
},
{
name = top_low_3;
pos = (470,648);
}
);
hints = (
{
name = "_corner.UC-serif";
origin = (0,9);
scale = (-1,1);
type = Corner;
},
{
name = "_corner.UC-serif";
origin = (0,7);
scale = (-0.5,-1);
type = Corner;
}
);
layerId = "2895B92B-45F5-4972-B85C-1A160E6E6488";
shapes = (
{
closed = 1;
nodes = (
(595,-14,o),
(693,37,o),
(725,37,cs),
(740,37,o),
(749,25,o),
(753,0,c),
(823,0,l),
(824,354,l),
(778,351,l),
(730,354,l),
(730,180,ls),
(730,110,o),
(623,54,o),
(490,54,cs),
(308,54,o),
(202,165,o),
(202,354,cs),
(202,540,o),
(306,654,o),
(476,654,cs),
(612,654,o),
(710,580,o),
(749,448,c),
(822,448,l),
(822,610,o),
(823,663,o),
(827,712,c),
(754,712,l),
(749,668,o),
(739,648,o),
(722,648,cs),
(690,648,o),
(620,722,o),
(468,722,cs),
(249,722,o),
(102,570,o),
(102,344,cs),
(102,124,o),
(240,-14,o),
(460,-14,cs)
);
}
);
width = 1015;
},
{
anchors = (
{
name = bottom;
pos = (420,0);
},
{
name = currency;
pos = (414,0);
},
{
name = top;
pos = (394,708);
},
{
name = top_low_1;
pos = (394,688);
},
{
name = top_low_2;
pos = (394,668);
},
{
name = top_low_3;
pos = (394,648);
}
);
guides = (
{
pos = (803,31);
}
);
hints = (
{
name = "_corner.UC-serif";
origin = (0,9);
scale = (-1.2,1);
type = Corner;
},
{
name = "_corner.UC-serif";
origin = (0,7);
scale = (-0.5,-1);
type = Corner;
}
);
layerId = "F497C50F-30EB-4580-9148-0005B36D0333";
shapes = (
{
closed = 1;
nodes = (
(533,-14,o),
(599,40,o),
(659,40,cs),
(677,40,o),
(691,37,o),
(702,31,c),
(703,31,l),
(703,324,l),
(602,321,l),
(500,324,l),
(500,48,ls),
(500,10,o),
(474,-11,o),
(427,-11,cs),
(314,-11,o),
(247,119,o),
(247,339,cs),
(247,581,o),
(327,713,o),
(473,713,cs),
(604,713,o),
(699,608,o),
(702,458,c),
(703,458,l),
(703,605,o),
(704,671,o),
(707,722,c),
(706,722,l),
(699,683,o),
(685,668,o),
(658,668,cs),
(608,668,o),
(554,722,o),
(412,722,cs),
(181,722,o),
(37,577,o),
(37,345,cs),
(37,122,o),
(173,-14,o),
(394,-14,cs)
);
}
);
width = 777;
},
{
anchors = (
{
name = bottom;
pos = (490,0);
},
{
name = currency;
pos = (494,0);
},
{
name = top;
pos = (471,708);
},
{
name = top_low_1;
pos = (471,688);
},
{
name = top_low_2;
pos = (471,668);
},
{
name = top_low_3;
pos = (471,648);
}
);
guides = (
{
pos = (918,16);
}
);
hints = (
{
name = "_corner.UC-serif";
origin = (0,9);
scale = (-1.2,1);
type = Corner;
},
{
name = "_corner.UC-serif";
origin = (0,7);
scale = (-0.5,-1);
type = Corner;
}
);
layerId = "41FE8A15-28AA-4FFF-A503-D6748EB37864";
shapes = (
{
closed = 1;
nodes = (
(618,-14,o),
(695,40,o),
(765,40,cs),
(792,40,o),
(808,36,o),
(818,29,c),
(819,29,l),
(819,324,l),
(714,321,l),
(616,324,l),
(616,98,ls),
(616,25,o),
(576,-12,o),
(495,-12,cs),
(349,-12,o),
(260,119,o),
(260,335,cs),
(260,571,o),
(368,717,o),
(542,717,cs),
(692,717,o),
(806,609,o),
(817,458,c),
(818,458,l),
(818,613,o),
(819,673,o),
(823,722,c),
(822,722,l),
(812,682,o),
(798,668,o),
(766,668,cs),
(703,668,o),
(655,722,o),
(494,722,cs),
(228,722,o),
(50,572,o),
(50,348,cs),
(50,134,o),
(221,-14,o),
(469,-14,cs)
);
}
);
width = 924;
},
{
anchors = (
{
name = bottom;
pos = (443,0);
},
{
name = currency;
pos = (437,0);
},
{
name = top;
pos = (428,708);
},
{
name = top_low_1;
pos = (428,688);
},
{
name = top_low_2;
pos = (428,668);
},
{
name = top_low_3;
pos = (428,648);
}
);
guides = (
{
pos = (918,16);
}
);
hints = (
{
name = "_corner.UC-serif";
origin = (0,9);
scale = (-1.2,1);
type = Corner;
},
{
name = "_corner.UC-serif";
origin = (0,7);
scale = (-0.5,-1);
type = Corner;
}
);
layerId = "2AEC198B-4747-4E5F-80A7-B5A71C2761F9";
shapes = (
{
closed = 1;
nodes = (
(573,-14,o),
(623,40,o),
(689,40,cs),
(712,40,o),
(725,36,o),
(735,29,c),
(736,29,l),
(736,304,l),
(690,301,l),
(643,304,l),
(643,146,ls),
(643,47,o),
(574,-12,o),
(440,-12,cs),
(268,-12,o),
(166,124,o),
(166,356,cs),
(166,586,o),
(267,720,o),
(440,720,cs),
(591,720,o),
(702,626,o),
(734,468,c),
(735,468,l),
(735,607,o),
(736,670,o),
(739,722,c),
(738,722,l),
(729,683,o),
(716,668,o),
(688,668,cs),
(642,668,o),
(551,722,o),
(437,722,cs),
(220,722,o),
(66,566,o),
(66,344,cs),
(66,128,o),
(212,-14,o),
(433,-14,cs)
);
}
);
width = 883;
},
{
anchors = (
{
name = bottom;
pos = (420,0);
},
{
name = currency;
pos = (394,0);
},
{
name = top;
pos = (399,708);
},
{
name = top_low_1;
pos = (399,688);
},
{
name = top_low_2;
pos = (399,668);
},
{
name = top_low_3;
pos = (399,648);
}
);
hints = (
{
name = "_corner.UC-serif";
origin = (0,9);
scale = (-1,1);
type = Corner;
},
{
name = "_corner.UC-serif";
origin = (0,7);
scale = (-0.5,-1);
type = Corner;
}
);
layerId = "29EF49B2-C370-4E88-B36E-A4ACD23E3F3A";
shapes = (
{
closed = 1;
nodes = (
(504,-14,o),
(545,57,o),
(593,57,cs),
(616,57,o),
(626,41,o),
(630,0,c),
(703,0,l),
(703,354,l),
(602,351,l),
(500,354,l),
(500,128,ls),
(500,84,o),
(472,61,o),
(421,61,cs),
(311,61,o),
(247,166,o),
(247,348,cs),
(247,533,o),
(313,633,o),
(436,633,cs),
(541,633,o),
(611,559,o),
(630,428,c),
(703,428,l),
(703,547,o),
(701,610,o),
(707,712,c),
(634,712,l),
(630,667,o),
(622,648,o),
(608,648,cs),
(580,648,o),
(530,722,o),
(382,722,cs),
(173,722,o),
(37,574,o),
(37,347,cs),
(37,127,o),
(165,-14,o),
(363,-14,cs)
);
}
);
width = 829;
},
{
anchors = (
{
name = bottom;
pos = (522,0);
},
{
name = currency;
pos = (504,0);
},
{
name = top;
pos = (473,708);
},
{
name = top_low_1;
pos = (473,688);
},
{
name = top_low_2;
pos = (473,668);
},
{
name = top_low_3;
pos = (473,648);
}
);
hints = (
{
name = "_corner.UC-serif";
origin = (0,9);
scale = (-1,1);
type = Corner;
},
{
name = "_corner.UC-serif";
origin = (0,7);
scale = (-0.5,-1);
type = Corner;
}
);
layerId = "58AEE805-6805-4A0B-A273-5ABBCB55D365";
shapes = (
{
closed = 1;
nodes = (
(650,-14,o),
(706,57,o),
(755,57,cs),
(778,57,o),
(789,41,o),
(793,0,c),
(866,0,l),
(866,354,l),
(765,351,l),
(663,354,l),
(663,138,ls),
(663,96,o),
(625,71,o),
(532,71,cs),
(363,71,o),
(267,174,o),
(267,354,cs),
(267,531,o),
(361,633,o),
(522,633,cs),
(660,633,o),
(757,559,o),
(793,428,c),
(866,428,l),
(866,559,o),
(867,618,o),
(871,712,c),
(798,712,l),
(792,667,o),
(782,648,o),
(764,648,cs),
(728,648,o),
(648,722,o),
(469,722,cs),
(218,722,o),
(57,576,o),
(57,350,cs),
(57,126,o),
(215,-14,o),
(469,-14,cs)
);
}
);
width = 1005;
},
{
anchors = (
{
name = bottom;
pos = (376,0);
},
{
name = top;
pos = (360,708);
},
{
name = top_low_1;
pos = (360,688);
},
{
name = top_low_2;
pos = (360,668);
},
{
name = top_low_3;
pos = (360,648);
}
);
associatedMasterId = "DF17D77B-A5C4-4843-826A-BC0F1C4CB224";
layerId = "B4A520D7-0093-4DF2-8E21-5B2308FB6B0A";
name = "24 Jun 21, 10:15";
shapes = (
{
closed = 1;
nodes = (
(471,-14,o),
(507,37,o),
(570,37,cs),
(593,37,o),
(608,21,o),
(616,-14,c),
(617,-14,l),
(617,217,ls),
(617,289,o),
(622,298,o),
(668,303,c),
(668,304,l),
(644,302,o),
(609,301,o),
(564,301,cs),
(511,301,o),
(459,302,o),
(433,304,c),
(433,303,l),
(511,298,o),
(524,285,o),
(524,217,cs),
(524,123,ls),
(524,25,o),
(468,-12,o),
(361,-12,cs),
(219,-12,o),
(153,104,o),
(153,353,cs),
(153,575,o),
(239,721,o),
(369,721,cs),
(499,721,o),
(594,628,o),
(617,478,c),
(618,478,l),
(618,611,o),
(619,673,o),
(622,722,c),
(621,722,l),
(616,683,o),
(604,668,o),
(579,668,cs),
(532,668,o),
(472,722,o),
(369,722,cs),
(182,722,o),
(53,567,o),
(53,342,cs),
(53,118,o),
(168,-14,o),
(361,-14,cs)
);
}
);
width = 702;
},
{
anchors = (
{
name = bottom;
pos = (443,0);
},
{
name = top;
pos = (428,708);
},
{
name = top_low_1;
pos = (428,688);
},
{
name = top_low_2;
pos = (428,668);
},
{
name = top_low_3;
pos = (428,648);
}
);
associatedMasterId = "2AEC198B-4747-4E5F-80A7-B5A71C2761F9";
layerId = "FC3AC60A-548A-451E-A7D9-A2030E191898";
name = "24 Jun 21, 10:15";
shapes = (
{
closed = 1;
nodes = (
(574,-14,o),
(618,37,o),
(677,37,cs),
(704,37,o),
(718,22,o),
(725,-14,c),
(726,-14,l),
(726,217,ls),
(726,290,o),
(734,298,o),
(789,303,c),
(789,304,l),
(762,302,o),
(721,301,o),
(672,301,cs),
(628,301,o),
(569,302,o),
(534,304,c),
(534,303,l),
(628,298,o),
(633,275,o),
(633,207,cs),
(633,126,ls),
(633,31,o),
(566,-12,o),
(435,-12,cs),
(269,-12,o),
(166,133,o),
(166,339,cs),
(166,585,o),
(268,721,o),
(434,721,cs),
(577,721,o),
(696,644,o),
(731,478,c),
(732,478,l),
(732,612,o),
(733,672,o),
(736,722,c),
(735,722,l),
(726,687,o),
(713,668,o),
(683,668,cs),
(626,668,o),
(556,722,o),
(434,722,cs),
(221,722,o),
(66,575,o),
(66,340,cs),
(66,115,o),
(230,-14,o),
(423,-14,cs)
);
}
);
width = 833;
},
{
anchors = (
{
name = bottom;
pos = (420,0);
},
{
name = top;
pos = (394,708);
},
{
name = top_low_1;
pos = (394,688);
},
{
name = top_low_2;
pos = (394,668);
},
{
name = top_low_3;
pos = (394,648);
}
);
associatedMasterId = "F497C50F-30EB-4580-9148-0005B36D0333";
layerId = "A8658EAD-D8A2-4DD2-9D97-47E6C602E64A";
name = "24 Jun 21, 10:15";
shapes = (
{
closed = 1;
nodes = (
(524,-14,o),
(602,57,o),
(652,57,cs),
(687,57,o),
(696,28,o),
(700,-14,c),
(701,-14,l),
(701,237,ls),
(701,311,o),
(708,318,o),
(742,323,c),
(742,324,l),
(708,322,o),
(652,321,o),
(588,321,cs),
(537,321,o),
(465,322,o),
(427,324,c),
(427,323,l),
(486,318,o),
(498,304,o),
(498,227,cs),
(498,48,ls),
(498,32,o),
(498,-11,o),
(429,-11,cs),
(319,-11,o),
(247,107,o),
(247,342,cs),
(247,518,o),
(293,711,o),
(468,711,cs),
(596,711,o),
(678,608,o),
(682,458,c),
(683,458,l),
(683,591,o),
(684,666,o),
(687,722,c),
(686,722,l),
(679,685,o),
(666,668,o),
(641,668,cs),
(584,668,o),
(556,722,o),
(401,722,cs),
(185,722,o),
(37,577,o),
(37,342,cs),
(37,120,o),
(169,-14,o),
(409,-14,cs)
);
}
);
width = 757;
},
{
anchors = (
{
name = bottom;
pos = (490,0);
},
{
name = top;
pos = (471,708);
},
{
name = top_low_1;
pos = (471,688);
},
{
name = top_low_2;
pos = (471,668);
},
{
name = top_low_3;
pos = (471,648);
}
);
associatedMasterId = "41FE8A15-28AA-4FFF-A503-D6748EB37864";
layerId = "5B849494-511B-4E97-9337-6D5C0218606E";
name = "24 Jun 21, 10:15";
shapes = (
{
closed = 1;
nodes = (
(616,-14,o),
(703,57,o),
(758,57,cs),
(798,57,o),
(809,28,o),
(814,-14,c),
(815,-14,l),
(815,237,ls),
(815,310,o),
(823,318,o),
(869,323,c),
(869,324,l),
(835,322,o),
(775,321,o),
(710,321,cs),
(668,321,o),
(580,322,o),
(527,324,c),
(527,323,l),
(612,318,o),
(612,302,o),
(612,237,cs),
(612,98,ls),
(612,21,o),
(568,-12,o),
(497,-12,cs),
(355,-12,o),
(260,106,o),
(260,342,cs),
(260,521,o),
(335,717,o),
(539,717,cs),
(681,717,o),
(788,612,o),
(800,458,c),
(801,458,l),
(801,604,o),
(803,672,o),
(806,722,c),
(805,722,l),
(796,685,o),
(783,668,o),
(749,668,cs),
(690,668,o),
(649,722,o),
(489,722,cs),
(234,722,o),
(50,577,o),
(50,342,cs),
(50,120,o),
(233,-14,o),
(485,-14,cs)
);
}
);
width = 894;
},
{
anchors = (
{
name = bottom;
pos = (376,0);
},
{
name = top;
pos = (350,708);
},
{
name = top_low_1;
pos = (350,688);
},
{
name = top_low_2;
pos = (350,668);
},
{
name = top_low_3;
pos = (350,648);
}
);
associatedMasterId = "7300F074-2CFD-43CC-B20F-1BF1EAE6C2C7";
layerId = "A743A3D9-4D69-4A00-A897-BBD882277112";
name = "24 Jun 21, 10:15";
shapes = (
{
closed = 1;
nodes = (
(453,-14,o),
(499,37,o),
(523,37,cs),
(536,37,o),
(542,28,o),
(547,0,c),
(617,0,l),
(617,168,ls),
(617,235,o),
(633,251,o),
(698,254,c),
(698,324,l),
(663,322,o),
(620,321,o),
(560,321,cs),
(483,321,o),
(427,322,o),
(403,324,c),
(403,254,l),
(497,252,o),
(524,240,o),
(524,200,cs),
(524,174,ls),
(524,103,o),
(456,54,o),
(356,54,cs),
(229,54,o),
(153,163,o),
(153,345,cs),
(153,531,o),
(232,654,o),
(351,654,cs),
(455,654,o),
(536,569,o),
(546,448,c),
(619,448,l),
(619,592,o),
(620,657,o),
(623,708,c),
(550,708,l),
(546,668,o),
(538,647,o),
(526,647,cs),
(504,647,o),
(466,722,o),
(346,722,cs),
(173,722,o),
(53,566,o),
(53,341,cs),
(53,120,o),
(164,-14,o),
(348,-14,cs)
);
}
);
width = 702;
},
{
anchors = (
{
name = bottom;
pos = (471,0);
},
{
name = top;
pos = (440,708);
},
{
name = top_low_1;
pos = (440,688);
},
{
name = top_low_2;
pos = (440,668);
},
{
name = top_low_3;
pos = (440,648);
}
);
associatedMasterId = "2895B92B-45F5-4972-B85C-1A160E6E6488";
layerId = "00E7D49C-E71A-42E3-9CBC-78C34B750DC6";
name = "24 Jun 21, 10:16";
shapes = (
{
closed = 1;
nodes = (
(573,-14,o),
(644,37,o),
(670,37,cs),
(687,37,o),
(696,26,o),
(700,0,c),
(770,0,l),
(770,168,ls),
(770,240,o),
(784,251,o),
(877,254,c),
(877,324,l),
(831,322,o),
(774,321,o),
(700,321,cs),
(604,321,o),
(543,322,o),
(521,324,c),
(521,254,l),
(645,252,o),
(677,241,o),
(677,201,cs),
(677,180,ls),
(677,107,o),
(586,54,o),
(459,54,cs),
(277,54,o),
(172,164,o),
(172,353,cs),
(172,534,o),
(278,654,o),
(438,654,cs),
(571,654,o),
(670,577,o),
(704,448,c),
(777,448,l),
(777,612,o),
(778,664,o),
(782,708,c),
(709,708,l),
(704,667,o),
(693,647,o),
(675,647,cs),
(641,647,o),
(580,722,o),
(431,722,cs),
(218,722,o),
(72,567,o),
(72,339,cs),
(72,122,o),
(211,-14,o),
(433,-14,cs)
);
}
);
width = 885;
},
{
anchors = (
{
name = bottom;
pos = (420,0);
},
{
name = top;
pos = (374,708);
},
{
name = top_low_1;
pos = (374,688);
},
{
name = top_low_2;
pos = (374,668);
},
{
name = top_low_3;
pos = (374,648);
}
);
associatedMasterId = "29EF49B2-C370-4E88-B36E-A4ACD23E3F3A";
layerId = "32FF0B6A-FB62-4DF6-8B6B-FF46681FAE6F";
name = "24 Jun 21, 10:16";
shapes = (
{
closed = 1;
nodes = (
(516,-14,o),
(544,57,o),
(591,57,cs),
(614,57,o),
(624,41,o),
(628,0,c),
(701,0,l),
(701,168,ls),
(701,239,o),
(707,251,o),
(742,254,c),
(742,324,l),
(711,322,o),
(657,321,o),
(591,321,cs),
(519,321,o),
(457,322,o),
(427,324,c),
(427,254,l),
(487,252,o),
(498,238,o),
(498,168,cs),
(498,128,ls),
(498,80,o),
(466,59,o),
(415,59,cs),
(308,59,o),
(247,159,o),
(247,335,cs),
(247,524,o),
(315,633,o),
(433,633,cs),
(521,633,o),
(579,576,o),
(610,458,c),
(683,458,l),
(683,597,o),
(684,660,o),
(687,708,c),
(614,708,l),
(610,667,o),
(602,648,o),
(588,648,cs),
(561,648,o),
(521,722,o),
(378,722,cs),
(174,722,o),
(37,571,o),
(37,345,cs),
(37,125,o),
(166,-14,o),
(370,-14,cs)
);
}
);
width = 757;
},
{
anchors = (
{
name = bottom;
pos = (522,0);
},
{
name = top;
pos = (473,708);
},
{
name = top_low_1;
pos = (473,688);
},
{
name = top_low_2;
pos = (473,668);
},
{
name = top_low_3;
pos = (473,648);
}
);
associatedMasterId = "58AEE805-6805-4A0B-A273-5ABBCB55D365";
layerId = "0129E56B-2321-485A-8C51-992341E0EE1B";
name = "24 Jun 21, 10:16";
shapes = (
{
closed = 1;
nodes = (
(652,-14,o),
(704,57,o),
(756,57,cs),
(778,57,o),
(789,40,o),
(793,0,c),
(866,0,l),
(866,168,ls),
(866,239,o),
(874,251,o),
(925,254,c),
(925,324,l),
(886,322,o),
(827,321,o),
(748,321,cs),
(656,321,o),
(590,322,o),
(561,324,c),
(561,254,l),
(640,252,o),
(663,232,o),
(663,168,cs),
(663,138,ls),
(663,85,o),
(613,59,o),
(514,59,cs),
(357,59,o),
(267,167,o),
(267,355,cs),
(267,530,o),
(361,633,o),
(522,633,cs),
(642,633,o),
(732,572,o),
(780,458,c),
(853,458,l),
(853,605,o),
(854,665,o),
(858,708,c),
(785,708,l),
(779,666,o),
(769,648,o),
(751,648,cs),
(715,648,o),
(647,722,o),
(461,722,cs),
(218,722,o),
(57,573,o),
(57,349,cs),
(57,125,o),
(214,-14,o),
(467,-14,cs)
);
}
);
width = 955;
},
{
anchors = (
{
name = bottom;
pos = (443,0);
},
{
name = currency;
pos = (437,0);
},
{
name = top;
pos = (428,708);
},
{
name = top_low_1;
pos = (428,688);
},
{
name = top_low_2;
pos = (428,668);
},
{
name = top_low_3;
pos = (428,648);
}
);
associatedMasterId = "2AEC198B-4747-4E5F-80A7-B5A71C2761F9";
layerId = "DBADC17F-C66F-45FF-AB96-993E5D4DA5AF";
name = "9 Feb 23 at 13:56";
shapes = (
{
closed = 1;
nodes = (
(571,-14,o),
(628,40,o),
(682,40,cs),
(710,40,o),
(725,25,o),
(735,-14,c),
(736,-14,l),
(736,217,ls),
(736,289,o),
(743,298,o),
(799,303,c),
(799,304,l),
(773,302,o),
(733,301,o),
(682,301,cs),
(619,301,o),
(569,303,o),
(544,304,c),
(544,303,l),
(628,299,o),
(643,284,o),
(643,207,cs),
(643,146,ls),
(643,47,o),
(574,-12,o),
(440,-12,cs),
(268,-12,o),
(166,124,o),
(166,356,cs),
(166,586,o),
(267,720,o),
(440,720,cs),
(591,720,o),
(702,626,o),
(734,468,c),
(735,468,l),
(735,607,o),
(736,670,o),
(739,722,c),
(738,722,l),
(729,683,o),
(716,668,o),
(688,668,cs),
(642,668,o),
(551,722,o),
(437,722,cs),
(220,722,o),
(66,566,o),
(66,344,cs),
(66,128,o),
(212,-14,o),
(433,-14,cs)
);
}
);
width = 883;
}
);
metricLeft = O;
unicode = 71;
userData = {
KernOnName = G;
};
}
{
color = 4;
glyphname = S;
kernLeft = KO_S;
kernRight = KO_S;
layers = (
{
anchors = (
{
name = bottom;
pos = (286,0);
},
{
name = center;
pos = (267,354);
},
{
name = currency;
pos = (272,0);
},
{
name = top;
pos = (275,708);
},
{
name = top_low_1;
pos = (275,688);
},
{
name = top_low_2;
pos = (275,668);
},
{
name = top_low_3;
pos = (275,648);
}
);
guides = (
{
angle = 90;
pos = (456,-86);
},
{
angle = 90;
pos = (57,-86);
}
);
layerId = "DF17D77B-A5C4-4843-826A-BC0F1C4CB224";
shapes = (
{
closed = 1;
nodes = (
(406,-14,o),
(488,60,o),
(488,180,cs),
(488,274,o),
(443,332,o),
(310,399,cs),
(185,462,o),
(138,515,o),
(138,586,cs),
(138,663,o),
(187,719,o),
(273,719,cs),
(373,719,o),
(443,635,o),
(451,511,c),
(452,511,l),
(452,629,o),
(453,680,o),
(457,722,c),
(456,722,l),
(452,698,o),
(441,683,o),
(422,683,cs),
(390,683,o),
(352,722,o),
(259,722,cs),
(143,722,o),
(70,655,o),
(70,547,cs),
(70,453,o),
(128,381,o),
(250,325,cs),
(358,275,o),
(406,219,o),
(406,142,cs),
(406,50,o),
(342,-11,o),
(257,-11,cs),
(144,-11,o),
(69,85,o),
(62,237,c),
(61,237,l),
(61,88,o),
(60,29,o),
(56,-14,c),
(57,-14,l),
(61,10,o),
(72,25,o),
(91,25,cs),
(126,25,o),
(171,-14,o),
(274,-14,cs)
);
}
);
width = 540;
},
{
anchors = (
{
name = bottom;
pos = (342,0);
},
{
name = center;
pos = (316,354);
},
{
name = currency;
pos = (319,0);
},
{
name = top;
pos = (326,708);
},
{
name = top_low_1;
pos = (326,688);
},
{
name = top_low_2;
pos = (326,668);
},
{
name = top_low_3;
pos = (326,648);
}
);
guides = (
{
angle = 90;
pos = (543,-86);
},
{
angle = 90;
pos = (56,-86);
}
);
layerId = "7300F074-2CFD-43CC-B20F-1BF1EAE6C2C7";
shapes = (
{
closed = 1;
nodes = (
(482,-14,o),
(573,68,o),
(573,187,cs),
(573,297,o),
(494,373,o),
(352,401,cs),
(228,425,o),
(172,469,o),
(172,543,cs),
(172,611,o),
(217,653,o),
(291,653,cs),
(386,653,o),
(460,584,o),
(465,491,c),
(538,491,l),
(538,627,o),
(539,671,o),
(543,712,c),
(470,712,l),
(466,684,o),
(458,671,o),
(446,671,cs),
(423,671,o),
(369,722,o),
(272,722,cs),
(153,722,o),
(72,645,o),
(72,530,cs),
(72,422,o),
(145,351,o),
(285,323,cs),
(412,297,o),
(468,253,o),
(468,179,cs),
(468,104,o),
(414,56,o),
(330,56,cs),
(219,56,o),
(138,137,o),
(133,253,c),
(60,253,l),
(60,102,o),
(59,38,o),
(56,-4,c),
(129,-4,l),
(132,22,o),
(140,37,o),
(152,37,cs),
(173,37,o),
(243,-14,o),
(348,-14,cs)
);
}
);
width = 633;
},
{
anchors = (
{
name = bottom;
pos = (467,0);
},
{
name = center;
pos = (424,354);
},
{
name = currency;
pos = (430,0);
},
{
name = top;
pos = (442,708);
},
{
name = top_low_1;
pos = (442,688);
},
{
name = top_low_2;
pos = (442,668);
},
{
name = top_low_3;
pos = (442,648);
}
);
guides = (
{
angle = 90;
pos = (726,-86);
},
{
angle = 90;
pos = (97,-86);
}
);
layerId = "2895B92B-45F5-4972-B85C-1A160E6E6488";
shapes = (
{
closed = 1;
nodes = (
(645,-14,o),
(755,67,o),
(755,194,cs),
(755,313,o),
(658,383,o),
(465,405,cs),
(295,424,o),
(220,466,o),
(220,541,cs),
(220,612,o),
(283,653,o),
(390,653,cs),
(527,653,o),
(618,585,o),
(647,462,c),
(720,462,l),
(720,573,o),
(722,654,o),
(726,712,c),
(653,712,l),
(646,676,o),
(637,664,o),
(617,664,cs),
(574,664,o),
(505,722,o),
(370,722,cs),
(217,722,o),
(120,646,o),
(120,527,cs),
(120,411,o),
(206,349,o),
(427,319,cs),
(590,297,o),
(651,254,o),
(651,179,cs),
(651,102,o),
(580,56,o),
(463,56,cs),
(305,56,o),
(200,138,o),
(176,282,c),
(103,282,l),
(103,135,o),
(101,40,o),
(97,-4,c),
(170,-4,l),
(176,28,o),
(187,44,o),
(204,44,cs),
(236,44,o),
(325,-14,o),
(472,-14,cs)
);
}
);
width = 851;
},
{
anchors = (
{
name = bottom;
pos = (312,0);
},
{
name = center;
pos = (312,354);
},
{
name = currency;
pos = (315,0);
},
{
name = top;
pos = (313,708);
},
{
name = top_low_1;
pos = (313,688);
},
{
name = top_low_2;
pos = (313,668);
},
{
name = top_low_3;
pos = (313,648);
}
);
layerId = "F497C50F-30EB-4580-9148-0005B36D0333";
shapes = (
{
closed = 1;
nodes = (
(480,-14,o),
(577,68,o),
(577,220,cs),
(577,330,o),
(518,396,o),
(376,445,cs),
(252,488,o),
(209,528,o),
(209,600,cs),
(209,675,o),
(253,719,o),
(329,719,cs),
(443,719,o),
(526,619,o),
(537,468,c),
(538,468,l),
(538,623,o),
(539,674,o),
(543,722,c),
(542,722,l),
(534,691,o),
(523,680,o),
(501,680,cs),
(459,680,o),
(417,722,o),
(304,722,cs),
(147,722,o),
(54,641,o),
(54,504,cs),
(54,395,o),
(117,325,o),
(259,278,cs),
(375,240,o),
(422,190,o),
(422,114,cs),
(422,34,o),
(370,-11,o),
(279,-11,cs),
(143,-11,o),
(66,90,o),
(54,283,c),
(53,283,l),
(53,114,o),
(52,40,o),
(49,-14,c),
(50,-14,l),
(58,14,o),
(70,25,o),
(91,25,cs),
(131,25,o),
(177,-14,o),
(301,-14,cs)
);
}
);
width = 613;
},
{
anchors = (
{
name = bottom;
pos = (368,0);
},
{
name = center;
pos = (365,354);
},
{
name = currency;
pos = (360,0);
},
{
name = top;
pos = (365,708);
},
{
name = top_low_1;
pos = (365,688);
},
{
name = top_low_2;
pos = (365,668);
},
{
name = top_low_3;
pos = (365,648);
}
);
layerId = "41FE8A15-28AA-4FFF-A503-D6748EB37864";
shapes = (
{
closed = 1;
nodes = (
(561,-14,o),
(670,65,o),
(670,213,cs),
(670,337,o),
(593,407,o),
(404,455,cs),
(273,488,o),
(229,525,o),
(229,601,cs),
(229,678,o),
(274,720,o),
(359,720,cs),
(491,720,o),
(594,617,o),
(620,458,c),
(621,458,l),
(621,634,o),
(622,678,o),
(627,722,c),
(626,722,l),
(617,691,o),
(605,680,o),
(576,680,cs),
(518,680,o),
(475,722,o),
(350,722,cs),
(177,722,o),
(73,641,o),
(73,507,cs),
(73,391,o),
(149,320,o),
(324,274,cs),
(458,239,o),
(508,198,o),
(508,124,cs),
(508,42,o),
(441,-12,o),
(339,-12,cs),
(198,-12,o),
(106,95,o),
(77,293,c),
(76,293,l),
(76,101,o),
(75,39,o),
(71,-14,c),
(72,-14,l),
(81,15,o),
(95,25,o),
(122,25,cs),
(176,25,o),
(218,-14,o),
(359,-14,cs)
);
}
);
width = 722;
},
{
anchors = (
{
name = bottom;
pos = (339,0);
},
{
name = center;
pos = (322,354);
},
{
name = currency;
pos = (321,0);
},
{
name = top;
pos = (324,708);
},
{
name = top_low_1;
pos = (324,688);
},
{
name = top_low_2;
pos = (324,668);
},
{
name = top_low_3;
pos = (324,648);
}
);
guides = (
{
angle = 90;
pos = (536,-86);
},
{
angle = 90;
pos = (75,-86);
}
);
layerId = "2AEC198B-4747-4E5F-80A7-B5A71C2761F9";
shapes = (
{
closed = 1;
nodes = (
(478,-14,o),
(571,62,o),
(571,183,cs),
(571,278,o),
(513,337,o),
(358,401,cs),
(207,464,o),
(158,508,o),
(158,582,cs),
(158,666,o),
(219,720,o),
(314,720,cs),
(434,720,o),
(519,637,o),
(530,511,c),
(531,511,l),
(531,643,o),
(532,683,o),
(537,722,c),
(536,722,l),
(526,694,o),
(513,683,o),
(489,683,cs),
(442,683,o),
(402,722,o),
(304,722,cs),
(172,722,o),
(87,651,o),
(87,540,cs),
(87,447,o),
(146,388,o),
(303,324,cs),
(440,269,o),
(482,227,o),
(482,145,cs),
(482,46,o),
(420,-12,o),
(315,-12,cs),
(181,-12,o),
(91,81,o),
(80,233,c),
(79,233,l),
(79,85,o),
(78,26,o),
(74,-14,c),
(75,-14,l),
(84,22,o),
(97,37,o),
(121,37,cs),
(164,37,o),
(211,-14,o),
(331,-14,cs)
);
}
);
width = 636;
},
{
anchors = (
{
name = bottom;
pos = (332,0);
},
{
name = center;
pos = (332,354);
},
{
name = currency;
pos = (337,0);
},
{
name = top;
pos = (333,708);
},
{
name = top_low_1;
pos = (333,688);
},
{
name = top_low_2;
pos = (333,668);
},
{
name = top_low_3;
pos = (333,648);
}
);
layerId = "29EF49B2-C370-4E88-B36E-A4ACD23E3F3A";
shapes = (
{
closed = 1;
nodes = (
(518,-14,o),
(617,73,o),
(617,207,cs),
(617,335,o),
(549,403,o),
(386,448,cs),
(252,485,o),
(209,514,o),
(209,569,cs),
(209,617,o),
(244,645,o),
(306,645,cs),
(404,645,o),
(478,579,o),
(505,468,c),
(578,468,l),
(578,613,o),
(579,664,o),
(583,712,c),
(510,712,l),
(507,684,o),
(500,671,o),
(488,671,cs),
(464,671,o),
(414,722,o),
(297,722,cs),
(146,722,o),
(54,638,o),
(54,510,cs),
(54,385,o),
(120,319,o),
(275,277,cs),
(410,241,o),
(458,209,o),
(458,149,cs),
(458,98,o),
(417,66,o),
(342,66,cs),
(226,66,o),
(151,142,o),
(126,283,c),
(53,283,l),
(53,124,o),
(52,53,o),
(49,-4,c),
(122,-4,l),
(126,26,o),
(132,37,o),
(144,37,cs),
(168,37,o),
(226,-14,o),
(353,-14,cs)
);
}
);
width = 653;
},
{
anchors = (
{
name = bottom;
pos = (421,0);
},
{
name = center;
pos = (412,354);
},
{
name = currency;
pos = (413,0);
},
{
name = top;
pos = (416,708);
},
{
name = top_low_1;
pos = (416,688);
},
{
name = top_low_2;
pos = (416,668);
},
{
name = top_low_3;
pos = (416,648);
}
);
layerId = "58AEE805-6805-4A0B-A273-5ABBCB55D365";
shapes = (
{
closed = 1;
nodes = (
(644,-14,o),
(763,68,o),
(763,210,cs),
(763,328,o),
(695,385,o),
(473,446,cs),
(277,499,o),
(255,527,o),
(255,572,cs),
(255,615,o),
(299,645,o),
(393,645,cs),
(519,645,o),
(612,576,o),
(644,458,c),
(717,458,l),
(717,624,o),
(718,667,o),
(723,712,c),
(650,712,l),
(646,681,o),
(640,671,o),
(626,671,cs),
(595,671,o),
(518,722,o),
(369,722,cs),
(183,722,o),
(74,643,o),
(74,507,cs),
(74,400,o),
(150,328,o),
(377,273,cs),
(526,237,o),
(578,208,o),
(578,153,cs),
(578,95,o),
(525,66,o),
(419,66,cs),
(258,66,o),
(170,137,o),
(139,293,c),
(66,293,l),
(66,109,o),
(65,49,o),
(61,-4,c),
(134,-4,l),
(137,25,o),
(144,37,o),
(158,37,cs),
(187,37,o),
(277,-14,o),
(439,-14,cs)
);
}
);
width = 813;
}
);
unicode = 83;
}
{
color = 4;
glyphname = V;
kernLeft = KO_V;
kernRight = KO_V;
layers = (
{
anchors = (
{
name = bottom;
pos = (342,0);
},
{
name = top;
pos = (342,708);
},
{
name = top_low_1;
pos = (342,688);
},
{
name = top_low_2;
pos = (342,668);
},
{
name = top_low_3;
pos = (342,648);
}
);
hints = (
{
name = "_corner.UC-right-diagonal-serif";
options = 4;
origin = (0,7);
type = Corner;
},
{
name = "_corner.UC-left-diagonal-serif";
origin = (0,5);
scale = (-1,-1);
type = Corner;
},
{
name = "_cap.UC-thin-diagonal-flare";
options = 2;
origin = (0,1);
type = Cap;
}
);
layerId = "DF17D77B-A5C4-4843-826A-BC0F1C4CB224";
shapes = (
{
closed = 1;
nodes = (
(343,-15,l),
(618,708,l),
(616,708,l),
(379,84,l),
(390,111,l),
(161,708,l),
(119,705,l),
(65,708,l),
(342,-15,l)
);
}
);
width = 677;
},
{
anchors = (
{
name = bottom;
pos = (411,0);
},
{
name = top;
pos = (411,708);
},
{
name = top_low_1;
pos = (411,688);
},
{
name = top_low_2;
pos = (411,668);
},
{
name = top_low_3;
pos = (411,648);
}
);
hints = (
{
name = "_corner.UC-right-diagonal-serif";
options = 4;
origin = (0,7);
type = Corner;
},
{
name = "_corner.UC-left-diagonal-serif";
origin = (0,5);
scale = (-1,-1);
type = Corner;
},
{
name = "_cap.UC-thin-diagonal-flare";
options = 2;
origin = (0,1);
type = Cap;
}
);
layerId = "7300F074-2CFD-43CC-B20F-1BF1EAE6C2C7";
shapes = (
{
closed = 1;
nodes = (
(444,0,l),
(715,708,l),
(640,708,l),
(407,99,l),
(434,114,l),
(207,708,l),
(158,705,l),
(109,708,l),
(378,0,l)
);
}
);
width = 803;
},
{
anchors = (
{
name = bottom;
pos = (506,0);
},
{
name = top;
pos = (509,708);
},
{
name = top_low_1;
pos = (509,688);
},
{
name = top_low_2;
pos = (509,668);
},
{
name = top_low_3;
pos = (509,648);
}
);
hints = (
{
name = "_corner.UC-right-diagonal-serif";
options = 4;
origin = (0,7);
type = Corner;
},
{
name = "_corner.UC-left-diagonal-serif";
origin = (0,5);
scale = (-1,-1);
type = Corner;
},
{
name = "_cap.UC-thin-diagonal-flare";
options = 2;
origin = (0,1);
type = Cap;
}
);
layerId = "2895B92B-45F5-4972-B85C-1A160E6E6488";
shapes = (
{
closed = 1;
nodes = (
(540,0,l),
(892,708,l),
(814,708,l),
(501,78,l),
(536,85,l),
(238,708,l),
(186,705,l),
(134,708,l),
(474,0,l)
);
}
);
width = 1002;
},
{
anchors = (
{
name = bottom;
pos = (393,0);
},
{
name = top;
pos = (383,708);
},
{
name = top_low_1;
pos = (383,688);
},
{
name = top_low_2;
pos = (383,668);
},
{
name = top_low_3;
pos = (383,648);
}
);
hints = (
{
name = "_corner.UC-right-diagonal-serif";
options = 4;
origin = (0,7);
type = Corner;
},
{
name = "_corner.UC-left-diagonal-serif";
origin = (0,5);
scale = (-1,-1);
type = Corner;
},
{
name = "_cap.UC-thin-diagonal-flare";
options = 2;
origin = (0,1);
type = Cap;
}
);
layerId = "F497C50F-30EB-4580-9148-0005B36D0333";
shapes = (
{
closed = 1;
nodes = (
(393,-15,l),
(700,708,l),
(698,708,l),
(488,212,l),
(498,232,l),
(272,708,l),
(160,705,l),
(48,708,l),
(392,-15,l)
);
}
);
width = 761;
},
{
anchors = (
{
name = bottom;
pos = (451,0);
},
{
name = top;
pos = (443,708);
},
{
name = top_low_1;
pos = (443,688);
},
{
name = top_low_2;
pos = (443,668);
},
{
name = top_low_3;
pos = (443,648);
}
);
hints = (
{
name = "_corner.UC-right-diagonal-serif";
options = 4;
origin = (0,7);
type = Corner;
},
{
name = "_corner.UC-left-diagonal-serif";
origin = (0,5);
scale = (-1,-1);
type = Corner;
},
{
name = "_cap.UC-thin-diagonal-flare";
options = 2;
origin = (0,1);
type = Cap;
}
);
layerId = "41FE8A15-28AA-4FFF-A503-D6748EB37864";
shapes = (
{
closed = 1;
nodes = (
(452,-15,l),
(825,708,l),
(823,708,l),
(542,162,l),
(562,199,l),
(283,708,l),
(169,705,l),
(55,708,l),
(451,-15,l)
);
}
);
width = 882;
},
{
anchors = (
{
name = bottom;
pos = (390,0);
},
{
name = top;
pos = (392,708);
},
{
name = top_low_1;
pos = (392,688);
},
{
name = top_low_2;
pos = (392,668);
},
{
name = top_low_3;
pos = (392,648);
}
);
hints = (
{
name = "_corner.UC-right-diagonal-serif";
options = 4;
origin = (0,7);
type = Corner;
},
{
name = "_corner.UC-left-diagonal-serif";
origin = (0,5);
scale = (-1,-1);
type = Corner;
},
{
name = "_cap.UC-thin-diagonal-flare";
options = 2;
origin = (0,1);
type = Cap;
}
);
layerId = "2AEC198B-4747-4E5F-80A7-B5A71C2761F9";
shapes = (
{
closed = 1;
nodes = (
(392,-15,l),
(719,708,l),
(717,708,l),
(436,85,l),
(441,94,l),
(168,708,l),
(119,705,l),
(69,708,l),
(391,-15,l)
);
}
);
width = 786;
},
{
anchors = (
{
name = bottom;
pos = (433,0);
},
{
name = top;
pos = (423,708);
},
{
name = top_low_1;
pos = (423,688);
},
{
name = top_low_2;
pos = (423,668);
},
{
name = top_low_3;
pos = (423,648);
}
);
hints = (
{
name = "_corner.UC-right-diagonal-serif";
options = 4;
origin = (0,7);
type = Corner;
},
{
name = "_corner.UC-left-diagonal-serif";
origin = (0,5);
scale = (-1,-1);
type = Corner;
},
{
name = "_cap.UC-thin-diagonal-flare";
options = 2;
origin = (0,1);
type = Cap;
}
);
layerId = "29EF49B2-C370-4E88-B36E-A4ACD23E3F3A";
shapes = (
{
closed = 1;
nodes = (
(466,0,l),
(771,708,l),
(695,708,l),
(477,200,l),
(529,193,l),
(275,708,l),
(164,705,l),
(52,708,l),
(400,0,l)
);
}
);
width = 831;
},
{
anchors = (
{
name = bottom;
pos = (537,0);
},
{
name = top;
pos = (529,708);
},
{
name = top_low_1;
pos = (529,688);
},
{
name = top_low_2;
pos = (529,668);
},
{
name = top_low_3;
pos = (529,648);
}
);
hints = (
{
name = "_corner.UC-right-diagonal-serif";
options = 4;
origin = (0,7);
type = Corner;
},
{
name = "_corner.UC-left-diagonal-serif";
origin = (0,5);
scale = (-1,-1);
type = Corner;
},
{
name = "_cap.UC-thin-diagonal-flare";
options = 2;
origin = (0,1);
type = Cap;
}
);
layerId = "58AEE805-6805-4A0B-A273-5ABBCB55D365";
shapes = (
{
closed = 1;
nodes = (
(570,0,l),
(967,708,l),
(888,708,l),
(603,200,l),
(623,193,l),
(317,708,l),
(201,705,l),
(84,708,l),
(504,0,l)
);
}
);
width = 1045;
}
);
unicode = 86;
userData = {
KernOnName = V;
};
}
{
glyphname = c;
kernLeft = KO_o;
kernRight = KO_c;
layers = (
{
anchors = (
{
name = bottom;
pos = (279,0);
},
{
name = center;
pos = (289,257);
},
{
name = currency;
pos = (285,0);
},
{
name = hook;
pos = (394,514);
},
{
name = top;
pos = (274,512);
}
);
layerId = "DF17D77B-A5C4-4843-826A-BC0F1C4CB224";
shapes = (
{
closed = 1;
nodes = (
(365,-14,o),
(436,39,o),
(462,125,c),
(461,125,l),
(434,46,o),
(379,1,o),
(310,1,cs),
(211,1,o),
(154,98,o),
(154,265,cs),
(154,431,o),
(208,527,o),
(300,527,cs),
(349,527,o),
(390,506,o),
(390,480,cs),
(390,454,o),
(360,435,o),
(360,397,cs),
(360,374,o),
(378,358,o),
(403,358,cs),
(434,358,o),
(455,381,o),
(455,414,cs),
(455,477,o),
(380,529,o),
(289,529,cs),
(153,529,o),
(57,414,o),
(57,252,cs),
(57,95,o),
(147,-14,o),
(276,-14,cs)
);
}
);
width = 507;
},
{
anchors = (
{
name = bottom;
pos = (302,0);
},
{
name = center;
pos = (299,257);
},
{
name = currency;
pos = (303,0);
},
{
name = hook;
pos = (414,514);
},
{
name = top;
pos = (297,512);
}
);
guides = (
{
pos = (25,461);
}
);
layerId = "7300F074-2CFD-43CC-B20F-1BF1EAE6C2C7";
shapes = (
{
closed = 1;
nodes = (
(407,-14,o),
(485,38,o),
(514,125,c),
(448,158,l),
(418,98,o),
(376,71,o),
(317,71,cs),
(224,71,o),
(177,137,o),
(177,266,cs),
(177,397,o),
(226,461,o),
(328,461,cs),
(368,461,o),
(393,451,o),
(393,434,cs),
(393,415,o),
(363,396,o),
(363,360,cs),
(363,326,o),
(389,302,o),
(428,302,cs),
(475,302,o),
(508,337,o),
(508,389,cs),
(508,471,o),
(426,529,o),
(310,529,cs),
(163,529,o),
(80,431,o),
(80,258,cs),
(80,86,o),
(163,-14,o),
(306,-14,cs)
);
}
);
width = 566;
},
{
anchors = (
{
name = bottom;
pos = (378,0);
},
{
name = center;
pos = (359,257);
},
{
name = currency;
pos = (373,0);
},
{
name = hook;
pos = (524,514);
},
{
name = top;
pos = (371,512);
}
);
guides = (
{
pos = (25,461);
}
);
layerId = "2895B92B-45F5-4972-B85C-1A160E6E6488";
shapes = (
{
closed = 1;
nodes = (
(493,-14,o),
(571,21,o),
(624,95,c),
(566,149,l),
(519,96,o),
(462,71,o),
(388,71,cs),
(263,71,o),
(197,138,o),
(197,263,cs),
(197,392,o),
(267,461,o),
(399,461,cs),
(461,461,o),
(502,445,o),
(502,421,cs),
(502,400,o),
(470,376,o),
(470,341,cs),
(470,310,o),
(493,291,o),
(530,291,cs),
(581,291,o),
(617,329,o),
(617,383,cs),
(617,470,o),
(523,529,o),
(384,529,cs),
(204,529,o),
(100,429,o),
(100,254,cs),
(100,82,o),
(201,-14,o),
(382,-14,cs)
);
}
);
width = 694;
},
{
anchors = (
{
name = bottom;
pos = (286,0);
},
{
name = center;
pos = (299,259);
},
{
name = currency;
pos = (278,0);
},
{
name = hook;
pos = (394,519);
},
{
name = top;
pos = (282,520);
}
);
layerId = "F497C50F-30EB-4580-9148-0005B36D0333";
shapes = (
{
closed = 1;
nodes = (
(379,-14,o),
(453,43,o),
(491,156,c),
(490,156,l),
(462,81,o),
(422,46,o),
(363,46,cs),
(274,46,o),
(228,126,o),
(228,280,cs),
(228,430,o),
(272,527,o),
(341,527,cs),
(366,527,o),
(381,515,o),
(381,495,cs),
(381,451,o),
(312,430,o),
(312,373,cs),
(312,336,o),
(341,312,o),
(386,312,cs),
(441,312,o),
(479,348,o),
(479,401,cs),
(479,481,o),
(405,533,o),
(292,533,cs),
(134,533,o),
(41,430,o),
(41,256,cs),
(41,88,o),
(128,-14,o),
(272,-14,cs)
);
}
);
width = 514;
},
{
anchors = (
{
name = bottom;
pos = (341,0);
},
{
name = center;
pos = (339,259);
},
{
name = currency;
pos = (343,0);
},
{
name = hook;
pos = (477,519);
},
{
name = top;
pos = (337,520);
}
);
layerId = "41FE8A15-28AA-4FFF-A503-D6748EB37864";
shapes = (
{
closed = 1;
nodes = (
(460,-14,o),
(551,43,o),
(589,156,c),
(588,156,l),
(554,81,o),
(499,46,o),
(421,46,cs),
(303,46,o),
(241,126,o),
(241,280,cs),
(241,429,o),
(304,526,o),
(410,526,cs),
(443,526,o),
(466,514,o),
(466,494,cs),
(466,451,o),
(393,430,o),
(393,373,cs),
(393,336,o),
(423,312,o),
(467,312,cs),
(526,312,o),
(568,348,o),
(568,401,cs),
(568,481,o),
(476,533,o),
(354,533,cs),
(172,533,o),
(54,430,o),
(54,256,cs),
(54,88,o),
(166,-14,o),
(332,-14,cs)
);
}
);
width = 617;
},
{
anchors = (
{
name = bottom;
pos = (335,0);
},
{
name = center;
pos = (309,257);
},
{
name = currency;
pos = (340,0);
},
{
name = hook;
pos = (480,514);
},
{
name = top;
pos = (329,512);
}
);
layerId = "2AEC198B-4747-4E5F-80A7-B5A71C2761F9";
shapes = (
{
closed = 1;
nodes = (
(436,-14,o),
(519,36,o),
(559,122,c),
(558,122,l),
(516,39,o),
(449,1,o),
(376,1,cs),
(245,1,o),
(171,96,o),
(171,262,cs),
(171,426,o),
(248,524,o),
(378,524,cs),
(432,524,o),
(467,507,o),
(467,481,cs),
(467,448,o),
(423,418,o),
(423,384,cs),
(423,357,o),
(443,339,o),
(474,339,cs),
(514,339,o),
(543,369,o),
(543,409,cs),
(543,476,o),
(457,529,o),
(349,529,cs),
(188,529,o),
(73,413,o),
(73,251,cs),
(73,95,o),
(180,-14,o),
(333,-14,cs)
);
}
);
width = 609;
},
{
anchors = (
{
name = bottom;
pos = (276,0);
},
{
name = center;
pos = (269,259);
},
{
name = currency;
pos = (263,0);
},
{
name = hook;
pos = (367,519);
},
{
name = top;
pos = (272,520);
}
);
layerId = "29EF49B2-C370-4E88-B36E-A4ACD23E3F3A";
shapes = (
{
closed = 1;
nodes = (
(369,-14,o),
(443,43,o),
(481,156,c),
(413,186,l),
(388,128,o),
(358,96,o),
(312,96,cs),
(252,96,o),
(218,162,o),
(218,277,cs),
(218,385,o),
(258,454,o),
(321,454,cs),
(340,454,o),
(351,446,o),
(351,432,cs),
(351,396,o),
(302,375,o),
(302,327,cs),
(302,295,o),
(328,272,o),
(370,272,cs),
(436,272,o),
(469,324,o),
(469,381,cs),
(469,471,o),
(395,533,o),
(282,533,cs),
(124,533,o),
(31,430,o),
(31,256,cs),
(31,88,o),
(118,-14,o),
(262,-14,cs)
);
}
);
width = 504;
},
{
anchors = (
{
name = bottom;
pos = (365,0);
},
{
name = center;
pos = (349,259);
},
{
name = currency;
pos = (363,0);
},
{
name = hook;
pos = (487,519);
},
{
name = top;
pos = (359,520);
}
);
layerId = "58AEE805-6805-4A0B-A273-5ABBCB55D365";
shapes = (
{
closed = 1;
nodes = (
(469,-14,o),
(561,35,o),
(618,128,c),
(560,174,l),
(520,122,o),
(468,96,o),
(404,96,cs),
(302,96,o),
(246,156,o),
(246,266,cs),
(246,382,o),
(309,454,o),
(410,454,cs),
(447,454,o),
(466,445,o),
(466,427,cs),
(466,398,o),
(413,373,o),
(413,329,cs),
(413,295,o),
(444,272,o),
(492,272,cs),
(559,272,o),
(607,318,o),
(607,382,cs),
(607,473,o),
(512,533,o),
(368,533,cs),
(177,533,o),
(59,427,o),
(59,255,cs),
(59,88,o),
(170,-14,o),
(351,-14,cs)
);
}
);
width = 656;
}
);
metricLeft = o;
unicode = 99;
userData = {
KernOnName = c;
};
}
{
color = 4;
glyphname = e;
kernLeft = KO_o;
kernRight = KO_e;
layers = (
{
anchors = (
{
name = bottom;
pos = (295,0);
},
{
name = center;
pos = (285,257);
},
{
name = ogonek;
pos = (362,0);
},
{
name = top;
pos = (283,512);
},
{
name = top_low_1;
pos = (283,492);
},
{
name = top_low_2;
pos = (283,472);
},
{
name = top_low_3;
pos = (283,452);
}
);
layerId = "DF17D77B-A5C4-4843-826A-BC0F1C4CB224";
shapes = (
{
closed = 1;
nodes = (
(377,-14,o),
(453,39,o),
(481,125,c),
(480,125,l),
(450,41,o),
(384,1,o),
(316,1,cs),
(214,1,o),
(154,100,o),
(154,255,cs),
(154,273,o),
(154,294,o),
(155,317,c),
(155,318,l),
(164,467,o),
(224,528,o),
(283,528,cs),
(356,528,o),
(387,431,o),
(384,318,c),
(116,318,l),
(117,317,l),
(480,317,l),
(480,463,o),
(403,529,o),
(289,529,cs),
(143,529,o),
(57,415,o),
(57,257,cs),
(57,93,o),
(149,-14,o),
(280,-14,cs)
);
}
);
width = 531;
},
{
anchors = (
{
name = bottom;
pos = (318,0);
},
{
name = center;
pos = (309,257);
},
{
name = ogonek;
pos = (386,0);
},
{
name = top;
pos = (299,512);
},
{
name = top_low_1;
pos = (299,492);
},
{
name = top_low_2;
pos = (299,472);
},
{
name = top_low_3;
pos = (299,452);
}
);
layerId = "7300F074-2CFD-43CC-B20F-1BF1EAE6C2C7";
shapes = (
{
closed = 1;
nodes = (
(407,-14,o),
(485,38,o),
(514,125,c),
(448,158,l),
(418,98,o),
(376,71,o),
(317,71,cs),
(224,71,o),
(177,137,o),
(177,265,cs),
(177,281,o),
(178,294,o),
(179,304,c),
(176,308,l),
(185,416,o),
(243,460,o),
(306,460,cs),
(390,460,o),
(422,401,o),
(419,325,c),
(139,325,l),
(140,256,l),
(515,256,l),
(523,462,o),
(434,529,o),
(310,529,cs),
(163,529,o),
(80,431,o),
(80,258,cs),
(80,86,o),
(163,-14,o),
(306,-14,cs)
);
}
);
width = 605;
},
{
anchors = (
{
name = bottom;
pos = (399,0);
},
{
name = center;
pos = (381,257);
},
{
name = ogonek;
pos = (485,0);
},
{
name = top;
pos = (367,512);
},
{
name = top_low_1;
pos = (367,492);
},
{
name = top_low_2;
pos = (367,472);
},
{
name = top_low_3;
pos = (367,452);
}
);
layerId = "2895B92B-45F5-4972-B85C-1A160E6E6488";
shapes = (
{
closed = 1;
nodes = (
(486,-14,o),
(575,24,o),
(631,95,c),
(573,149,l),
(522,94,o),
(466,71,o),
(388,71,cs),
(265,71,o),
(197,138,o),
(197,260,cs),
(197,277,o),
(198,294,o),
(200,304,c),
(197,307,l),
(207,403,o),
(273,459,o),
(376,459,cs),
(478,459,o),
(535,410,o),
(532,325,c),
(154,325,l),
(155,254,l),
(630,254,l),
(636,437,o),
(551,529,o),
(378,529,cs),
(205,529,o),
(100,417,o),
(100,249,cs),
(100,82,o),
(208,-14,o),
(379,-14,cs)
);
}
);
width = 745;
},
{
anchors = (
{
name = bottom;
pos = (277,0);
},
{
name = center;
pos = (294,259);
},
{
name = ogonek;
pos = (375,0);
},
{
name = top;
pos = (281,520);
},
{
name = top_low_1;
pos = (281,500);
},
{
name = top_low_2;
pos = (281,480);
},
{
name = top_low_3;
pos = (281,460);
}
);
layerId = "F497C50F-30EB-4580-9148-0005B36D0333";
shapes = (
{
closed = 1;
nodes = (
(391,-14,o),
(470,43,o),
(511,156,c),
(510,156,l),
(477,78,o),
(435,46,o),
(362,46,cs),
(272,46,o),
(228,134,o),
(228,273,cs),
(228,288,o),
(228,303,o),
(229,317,c),
(229,318,l),
(238,480,o),
(264,532,o),
(296,532,cs),
(347,532,o),
(362,433,o),
(361,318,c),
(172,318,l),
(174,317,l),
(507,317,l),
(507,472,o),
(427,533,o),
(296,533,cs),
(154,533,o),
(41,451,o),
(41,258,cs),
(41,88,o),
(130,-14,o),
(277,-14,cs)
);
}
);
width = 543;
},
{
anchors = (
{
name = bottom;
pos = (339,0);
},
{
name = center;
pos = (349,259);
},
{
name = ogonek;
pos = (440,0);
},
{
name = top;
pos = (337,520);
},
{
name = top_low_1;
pos = (337,500);
},
{
name = top_low_2;
pos = (337,480);
},
{
name = top_low_3;
pos = (337,460);
}
);
layerId = "41FE8A15-28AA-4FFF-A503-D6748EB37864";
shapes = (
{
closed = 1;
nodes = (
(467,-14,o),
(561,43,o),
(599,156,c),
(598,156,l),
(561,78,o),
(507,46,o),
(427,46,cs),
(304,46,o),
(241,134,o),
(241,273,cs),
(241,288,o),
(241,303,o),
(242,317,c),
(242,318,l),
(256,480,o),
(302,532,o),
(353,532,cs),
(408,532,o),
(435,433,o),
(434,318,c),
(186,318,l),
(188,317,l),
(590,317,l),
(587,472,o),
(490,533,o),
(357,533,cs),
(190,533,o),
(54,451,o),
(54,258,cs),
(54,88,o),
(166,-14,o),
(332,-14,cs)
);
}
);
width = 634;
},
{
anchors = (
{
name = bottom;
pos = (348,0);
},
{
name = center;
pos = (330,257);
},
{
name = ogonek;
pos = (419,0);
},
{
name = top;
pos = (325,512);
},
{
name = top_low_1;
pos = (325,492);
},
{
name = top_low_2;
pos = (325,472);
},
{
name = top_low_3;
pos = (325,452);
}
);
layerId = "2AEC198B-4747-4E5F-80A7-B5A71C2761F9";
shapes = (
{
closed = 1;
nodes = (
(427,-14,o),
(508,36,o),
(547,122,c),
(546,122,l),
(505,39,o),
(440,1,o),
(369,1,cs),
(240,1,o),
(171,96,o),
(171,272,cs),
(171,291,o),
(172,303,o),
(173,318,c),
(173,319,l),
(183,446,o),
(244,528,o),
(328,528,cs),
(408,528,o),
(458,449,o),
(456,319,c),
(129,319,l),
(130,318,l),
(552,318,l),
(552,445,o),
(469,529,o),
(335,529,cs),
(180,529,o),
(73,418,o),
(73,255,cs),
(73,96,o),
(176,-14,o),
(326,-14,cs)
);
}
);
width = 617;
},
{
anchors = (
{
name = bottom;
pos = (277,0);
},
{
name = center;
pos = (290,259);
},
{
name = ogonek;
pos = (372,0);
},
{
name = top;
pos = (268,520);
},
{
name = top_low_1;
pos = (268,500);
},
{
name = top_low_2;
pos = (268,480);
},
{
name = top_low_3;
pos = (268,460);
}
);
layerId = "29EF49B2-C370-4E88-B36E-A4ACD23E3F3A";
shapes = (
{
closed = 1;
nodes = (
(391,-14,o),
(470,43,o),
(511,156,c),
(443,186,l),
(414,128,o),
(380,96,o),
(327,96,cs),
(259,96,o),
(218,162,o),
(218,273,cs),
(218,299,o),
(218,306,o),
(219,314,c),
(215,322,l),
(215,408,o),
(245,460,o),
(293,460,cs),
(342,460,o),
(365,416,o),
(361,333,c),
(162,333,l),
(164,264,l),
(507,264,l),
(513,448,o),
(445,533,o),
(286,533,cs),
(130,533,o),
(31,431,o),
(31,258,cs),
(31,88,o),
(124,-14,o),
(277,-14,cs)
);
}
);
width = 539;
},
{
anchors = (
{
name = bottom;
pos = (366,0);
},
{
name = center;
pos = (362,259);
},
{
name = ogonek;
pos = (469,0);
},
{
name = top;
pos = (349,520);
},
{
name = top_low_1;
pos = (349,500);
},
{
name = top_low_2;
pos = (349,480);
},
{
name = top_low_3;
pos = (349,460);
}
);
layerId = "58AEE805-6805-4A0B-A273-5ABBCB55D365";
shapes = (
{
closed = 1;
nodes = (
(482,-14,o),
(575,34,o),
(634,128,c),
(576,174,l),
(532,122,o),
(475,96,o),
(405,96,cs),
(299,96,o),
(246,157,o),
(246,282,cs),
(246,297,o),
(246,303,o),
(248,314,c),
(243,322,l),
(247,408,o),
(292,460,o),
(362,460,cs),
(429,460,o),
(465,416,o),
(465,333,c),
(188,333,l),
(191,264,l),
(631,264,l),
(638,435,o),
(540,533,o),
(363,533,cs),
(177,533,o),
(59,426,o),
(59,257,cs),
(59,91,o),
(175,-14,o),
(358,-14,cs)
);
}
);
width = 688;
}
);
metricLeft = o;
unicode = 101;
userData = {
KernOnName = e;
};
}
{
glyphname = o;
kernLeft = KO_o;
kernRight = KO_o;
layers = (
{
anchors = (
{
name = "#entry";
pos = (-107,256);
},
{
name = bottom;
pos = (284,0);
},
{
name = center;
pos = (284,257);
},
{
name = ogonek;
pos = (369,0);
},
{
name = top;
pos = (284,512);
},
{
name = top_low_1;
pos = (284,492);
},
{
name = top_low_2;
pos = (284,472);
},
{
name = top_low_3;
pos = (284,452);
},
{
name = top_low_4;
pos = (284,432);
},
{
name = topright;
pos = (511,512);
}
);
guides = (
{
angle = 90;
pos = (511,257);
}
);
layerId = "DF17D77B-A5C4-4843-826A-BC0F1C4CB224";
shapes = (
{
closed = 1;
nodes = (
(411,-14,o),
(511,65,o),
(511,257,cs),
(511,449,o),
(411,529,o),
(284,529,cs),
(157,529,o),
(57,449,o),
(57,257,cs),
(57,65,o),
(157,-14,o),
(284,-14,cs)
);
},
{
closed = 1;
nodes = (
(208,-13,o),
(154,64,o),
(154,257,cs),
(154,449,o),
(208,528,o),
(284,528,cs),
(360,528,o),
(414,449,o),
(414,257,cs),
(414,64,o),
(360,-13,o),
(284,-13,cs)
);
}
);
width = 568;
},
{
anchors = (
{
name = "#entry";
pos = (-168,256);
},
{
name = bottom;
pos = (307,0);
},
{
name = center;
pos = (307,257);
},
{
name = ogonek;
pos = (390,0);
},
{
name = top;
pos = (307,512);
},
{
name = top_low_1;
pos = (307,492);
},
{
name = top_low_2;
pos = (307,472);
},
{
name = top_low_3;
pos = (307,452);
},
{
name = top_low_4;
pos = (307,432);
},
{
name = topright;
pos = (534,512);
}
);
guides = (
{
angle = 90;
pos = (534,257);
}
);
layerId = "7300F074-2CFD-43CC-B20F-1BF1EAE6C2C7";
shapes = (
{
closed = 1;
nodes = (
(434,-14,o),
(534,65,o),
(534,257,cs),
(534,449,o),
(434,529,o),
(307,529,cs),
(180,529,o),
(80,449,o),
(80,257,cs),
(80,65,o),
(180,-14,o),
(307,-14,cs)
);
},
{
closed = 1;
nodes = (
(231,56,o),
(177,114,o),
(177,257,cs),
(177,400,o),
(231,459,o),
(307,459,cs),
(383,459,o),
(437,400,o),
(437,257,cs),
(437,114,o),
(383,56,o),
(307,56,cs)
);
}
);
width = 614;
},
{
anchors = (
{
name = "#entry";
pos = (-203,256);
},
{
name = bottom;
pos = (383,0);
},
{
name = center;
pos = (383,257);
},
{
name = ogonek;
pos = (483,0);
},
{
name = top;
pos = (382,512);
},
{
name = top_low_1;
pos = (382,492);
},
{
name = top_low_2;
pos = (382,472);
},
{
name = top_low_3;
pos = (382,452);
},
{
name = top_low_4;
pos = (382,432);
},
{
name = topright;
pos = (665,512);
}
);
guides = (
{
angle = 90;
pos = (665,257);
}
);
layerId = "2895B92B-45F5-4972-B85C-1A160E6E6488";
shapes = (
{
closed = 1;
nodes = (
(542,-14,o),
(665,66,o),
(665,257,cs),
(665,448,o),
(542,529,o),
(383,529,cs),
(224,529,o),
(100,448,o),
(100,257,cs),
(100,65,o),
(225,-14,o),
(383,-14,cs)
);
},
{
closed = 1;
nodes = (
(274,56,o),
(197,114,o),
(197,257,cs),
(197,400,o),
(274,459,o),
(383,459,cs),
(491,459,o),
(568,400,o),
(568,257,cs),
(568,114,o),
(491,56,o),
(383,56,cs)
);
}
);
width = 765;
},
{
anchors = (
{
name = "#entry";
pos = (-107,260);
},
{
name = bottom;
pos = (298,0);
},
{
name = center;
pos = (298,260);
},
{
name = ogonek;
pos = (408,0);
},
{
name = top;
pos = (298,520);
},
{
name = top_low_1;
pos = (298,500);
},
{
name = top_low_2;
pos = (298,480);
},
{
name = top_low_3;
pos = (298,460);
},
{
name = top_low_4;
pos = (298,440);
},
{
name = topright;
pos = (555,520);
}
);
guides = (
{
angle = 90;
pos = (555,259);
}
);
layerId = "F497C50F-30EB-4580-9148-0005B36D0333";
shapes = (
{
closed = 1;
nodes = (
(453,-14,o),
(555,77,o),
(555,259,cs),
(555,441,o),
(453,533,o),
(298,533,cs),
(143,533,o),
(41,441,o),
(41,259,cs),
(41,77,o),
(143,-14,o),
(298,-14,cs)
);
},
{
closed = 1;
nodes = (
(258,-13,o),
(228,67,o),
(228,259,cs),
(228,451,o),
(258,532,o),
(298,532,cs),
(338,532,o),
(368,451,o),
(368,259,cs),
(368,67,o),
(338,-13,o),
(298,-13,cs)
);
}
);
width = 596;
},
{
anchors = (
{
name = "#entry";
pos = (-107,260);
},
{
name = bottom;
pos = (352,0);
},
{
name = center;
pos = (352,260);
},
{
name = ogonek;
pos = (469,0);
},
{
name = top;
pos = (353,520);
},
{
name = top_low_1;
pos = (353,500);
},
{
name = top_low_2;
pos = (353,480);
},
{
name = top_low_3;
pos = (353,460);
},
{
name = top_low_4;
pos = (353,440);
},
{
name = topright;
pos = (652,520);
}
);
guides = (
{
angle = 90;
pos = (652,259);
}
);
layerId = "41FE8A15-28AA-4FFF-A503-D6748EB37864";
shapes = (
{
closed = 1;
nodes = (
(538,-14,o),
(652,90,o),
(652,259,cs),
(652,429,o),
(538,533,o),
(352,533,cs),
(168,533,o),
(54,428,o),
(54,259,cs),
(54,90,o),
(167,-14,o),
(352,-14,cs)
);
},
{
closed = 1;
nodes = (
(285,-13,o),
(241,95,o),
(241,260,cs),
(241,423,o),
(286,532,o),
(353,532,cs),
(420,532,o),
(465,423,o),
(465,259,cs),
(465,94,o),
(421,-13,o),
(353,-13,cs)
);
}
);
width = 706;
},
{
anchors = (
{
name = "#entry";
pos = (-129,256);
},
{
name = bottom;
pos = (339,0);
},
{
name = center;
pos = (339,257);
},
{
name = ogonek;
pos = (446,0);
},
{
name = top;
pos = (339,512);
},
{
name = top_low_1;
pos = (339,492);
},
{
name = top_low_2;
pos = (339,472);
},
{
name = top_low_3;
pos = (339,452);
},
{
name = top_low_4;
pos = (339,432);
},
{
name = topright;
pos = (606,512);
}
);
guides = (
{
angle = 90;
pos = (606,257);
}
);
layerId = "2AEC198B-4747-4E5F-80A7-B5A71C2761F9";
shapes = (
{
closed = 1;
nodes = (
(496,-14,o),
(606,86,o),
(606,257,cs),
(606,428,o),
(496,529,o),
(339,529,cs),
(183,529,o),
(73,428,o),
(73,257,cs),
(73,85,o),
(183,-14,o),
(339,-14,cs)
);
},
{
closed = 1;
nodes = (
(241,-13,o),
(171,86,o),
(171,257,cs),
(171,427,o),
(241,528,o),
(339,528,cs),
(438,528,o),
(508,427,o),
(508,257,cs),
(508,87,o),
(438,-13,o),
(339,-13,cs)
);
}
);
width = 679;
},
{
anchors = (
{
name = "#entry";
pos = (-116,260);
},
{
name = bottom;
pos = (288,0);
},
{
name = center;
pos = (288,260);
},
{
name = ogonek;
pos = (394,0);
},
{
name = top;
pos = (288,520);
},
{
name = top_low_1;
pos = (288,500);
},
{
name = top_low_2;
pos = (288,480);
},
{
name = top_low_3;
pos = (288,460);
},
{
name = top_low_4;
pos = (288,440);
},
{
name = topright;
pos = (545,520);
}
);
guides = (
{
angle = 90;
pos = (545,259);
}
);
layerId = "29EF49B2-C370-4E88-B36E-A4ACD23E3F3A";
shapes = (
{
closed = 1;
nodes = (
(443,-14,o),
(545,77,o),
(545,259,cs),
(545,441,o),
(443,533,o),
(288,533,cs),
(133,533,o),
(31,441,o),
(31,259,cs),
(31,77,o),
(133,-14,o),
(288,-14,cs)
);
},
{
closed = 1;
nodes = (
(248,56,o),
(218,115,o),
(218,259,cs),
(218,411,o),
(248,463,o),
(288,463,cs),
(328,463,o),
(358,411,o),
(358,259,cs),
(358,115,o),
(328,56,o),
(288,56,cs)
);
}
);
width = 576;
},
{
anchors = (
{
name = "#entry";
pos = (-131,256);
},
{
name = bottom;
pos = (377,0);
},
{
name = center;
pos = (377,260);
},
{
name = ogonek;
pos = (505,0);
},
{
name = top;
pos = (376,520);
},
{
name = top_low_1;
pos = (376,500);
},
{
name = top_low_2;
pos = (376,480);
},
{
name = top_low_3;
pos = (376,460);
},
{
name = top_low_4;
pos = (376,440);
},
{
name = topright;
pos = (694,520);
}
);
guides = (
{
angle = 90;
pos = (694,259);
}
);
layerId = "58AEE805-6805-4A0B-A273-5ABBCB55D365";
shapes = (
{
closed = 1;
nodes = (
(564,-14,o),
(694,77,o),
(694,259,cs),
(694,441,o),
(564,533,o),
(377,533,cs),
(190,533,o),
(59,441,o),
(59,259,cs),
(59,77,o),
(190,-14,o),
(377,-14,cs)
);
},
{
closed = 1;
nodes = (
(301,56,o),
(246,115,o),
(246,259,cs),
(246,411,o),
(301,463,o),
(377,463,cs),
(452,463,o),
(507,411,o),
(507,259,cs),
(507,115,o),
(452,56,o),
(377,56,cs)
);
}
);
width = 753;
}
);
unicode = 111;
userData = {
KernOnName = o;
};
}
{
color = 4;
glyphname = v;
kernLeft = KO_v;
kernRight = KO_v;
layers = (
{
anchors = (
{
name = bottom;
pos = (258,0);
},
{
name = top;
pos = (253,512);
}
);
background = {
anchors = (
{
name = bottom;
pos = (258,0);
},
{
name = top;
pos = (253,512);
}
);
shapes = (
{
closed = 1;
nodes = (
(259,-15,l),
(409,390,ls),
(441,476,o),
(468,510,o),
(504,513,c),
(504,514,l),
(483,513,o),
(458,512,o),
(428,512,cs),
(399,512,o),
(382,512,o),
(334,514,c),
(334,513,l),
(415,507,o),
(429,446,o),
(379,312,cs),
(298,93,l),
(304,108,l),
(170,436,ls),
(147,492,o),
(159,507,o),
(230,513,c),
(230,514,l),
(193,512,o),
(157,511,o),
(94,511,cs),
(55,511,o),
(29,512,o),
(-4,514,c),
(-4,513,l),
(27,512,o),
(49,494,o),
(64,458,cs),
(258,-15,l)
);
}
);
};
hints = (
{
name = "_cap.LC-thin-diagonal-flare";
options = 2;
origin = (0,1);
scale = (0.7,1);
type = Cap;
},
{
name = "_corner.LC-left-diagonal-serif";
origin = (0,5);
scale = (0.8,1);
type = Corner;
},
{
name = "_corner.LC-right-diagonal-serif";
options = 1;
origin = (0,7);
scale = (0.8,1);
type = Corner;
}
);
layerId = "DF17D77B-A5C4-4843-826A-BC0F1C4CB224";
shapes = (
{
closed = 1;
nodes = (
(259,-15,l),
(455,512,l),
(453,512,l),
(298,93,l),
(304,108,l),
(139,512,l),
(94,509,l),
(42,512,l),
(258,-15,l)
);
}
);
width = 505;
},
{
anchors = (
{
name = bottom;
pos = (326,0);
},
{
name = top;
pos = (326,512);
}
);
background = {
anchors = (
{
name = bottom;
pos = (326,0);
},
{
name = top;
pos = (326,512);
}
);
shapes = (
{
closed = 1;
nodes = (
(363,-5,l),
(496,356,ls),
(519,418,o),
(557,444,o),
(627,443,c),
(627,514,l),
(599,513,o),
(554,512,o),
(500,512,cs),
(449,512,o),
(431,513,o),
(367,514,c),
(367,443,l),
(427,444,o),
(443,413,o),
(420,350,cs),
(329,102,l),
(346,97,l),
(237,366,ls),
(215,420,o),
(229,444,o),
(287,443,c),
(287,514,l),
(240,512,o),
(208,511,o),
(157,511,cs),
(88,511,o),
(52,512,o),
(14,514,c),
(14,443,l),
(82,444,o),
(122,421,o),
(143,370,cs),
(296,-5,l)
);
}
);
};
hints = (
{
name = "_cap.LC-thin-diagonal-flare";
options = 2;
origin = (0,1);
scale = (0.6,1);
type = Cap;
},
{
name = "_corner.LC-left-diagonal-serif";
origin = (0,5);
scale = (0.5,1);
type = Corner;
},
{
name = "_corner.LC-right-diagonal-serif";
options = 1;
origin = (0,7);
scale = (0.8,1);
type = Corner;
}
);
layerId = "7300F074-2CFD-43CC-B20F-1BF1EAE6C2C7";
shapes = (
{
closed = 1;
nodes = (
(363,-5,l),
(554,512,l),
(479,512,l),
(329,102,l),
(346,97,l),
(178,512,l),
(133,509,l),
(85,512,l),
(296,-5,l)
);
}
);
width = 645;
},
{
anchors = (
{
name = bottom;
pos = (404,0);
},
{
name = top;
pos = (404,512);
}
);
background = {
anchors = (
{
name = bottom;
pos = (404,0);
},
{
name = top;
pos = (404,512);
}
);
shapes = (
{
closed = 1;
nodes = (
(441,-5,l),
(620,361,ls),
(648,418,o),
(693,444,o),
(764,443,c),
(764,514,l),
(728,513,o),
(677,512,o),
(618,512,cs),
(554,512,o),
(500,513,o),
(456,514,c),
(456,443,l),
(542,444,o),
(568,413,o),
(538,353,cs),
(403,77,l),
(436,68,l),
(280,367,ls),
(249,426,o),
(264,444,o),
(354,443,c),
(354,514,l),
(315,513,o),
(246,511,o),
(204,511,cs),
(144,511,o),
(83,512,o),
(29,514,c),
(29,443,l),
(107,444,o),
(150,423,o),
(177,372,cs),
(374,-5,l)
);
}
);
};
hints = (
{
name = "_cap.LC-thin-diagonal-flare";
options = 2;
origin = (0,1);
scale = (0.7,1);
type = Cap;
},
{
name = "_corner.LC-left-diagonal-serif";
origin = (0,5);
scale = (0.6,1);
type = Corner;
},
{
name = "_corner.LC-right-diagonal-serif";
options = 1;
origin = (0,7);
scale = (0.8,1);
type = Corner;
}
);
layerId = "2895B92B-45F5-4972-B85C-1A160E6E6488";
shapes = (
{
closed = 1;
nodes = (
(441,-5,l),
(693,512,l),
(615,512,l),
(403,77,l),
(436,68,l),
(204,512,l),
(155,509,l),
(104,512,l),
(374,-5,l)
);
}
);
width = 794;
},
{
anchors = (
{
name = bottom;
pos = (284,0);
},
{
name = top;
pos = (284,520);
}
);
background = {
anchors = (
{
name = bottom;
pos = (284,0);
},
{
name = top;
pos = (284,520);
}
);
shapes = (
{
closed = 1;
nodes = (
(290,-15,l),
(443,356,ls),
(479,443,o),
(508,484,o),
(556,518,c),
(556,519,l),
(541,517,o),
(505,515,o),
(479,515,cs),
(449,515,o),
(401,517,o),
(374,519,c),
(374,518,l),
(436,497,o),
(456,392,o),
(416,295,cs),
(374,193,l),
(380,204,l),
(277,429,ls),
(253,481,o),
(266,512,o),
(312,518,c),
(312,519,l),
(254,516,o),
(218,515,o),
(175,515,cs),
(102,515,o),
(50,516,o),
(12,519,c),
(12,518,l),
(35,516,o),
(54,498,o),
(70,462,cs),
(289,-15,l)
);
}
);
};
hints = (
{
name = "_cap.LC-thin-diagonal-flare";
options = 2;
origin = (0,1);
scale = (0.7,1);
type = Cap;
},
{
name = "_corner.LC-left-diagonal-serif";
origin = (0,5);
scale = (0.8,1);
type = Corner;
},
{
name = "_corner.LC-right-diagonal-serif";
options = 1;
origin = (0,7);
scale = (0.8,1);
type = Corner;
}
);
layerId = "F497C50F-30EB-4580-9148-0005B36D0333";
shapes = (
{
closed = 1;
nodes = (
(290,-15,l),
(511,520,l),
(509,520,l),
(374,193,l),
(380,204,l),
(235,520,l),
(148,517,l),
(43,520,l),
(289,-15,l)
);
}
);
width = 561;
},
{
anchors = (
{
name = bottom;
pos = (329,0);
},
{
name = top;
pos = (328,520);
}
);
background = {
anchors = (
{
name = bottom;
pos = (329,0);
},
{
name = top;
pos = (328,520);
}
);
shapes = (
{
closed = 1;
nodes = (
(335,-15,l),
(517,357,ls),
(559,443,o),
(591,484,o),
(644,518,c),
(644,519,l),
(625,517,o),
(583,515,o),
(555,515,cs),
(528,515,o),
(477,517,o),
(440,519,c),
(440,518,l),
(508,496,o),
(530,388,o),
(485,295,cs),
(425,172,l),
(427,174,l),
(290,429,ls),
(260,484,o),
(278,513,o),
(344,518,c),
(344,519,l),
(263,516,o),
(214,515,o),
(165,515,cs),
(100,515,o),
(53,516,o),
(3,519,c),
(3,518,l),
(34,516,o),
(61,496,o),
(79,462,cs),
(334,-15,l)
);
}
);
};
hints = (
{
name = "_cap.LC-thin-diagonal-flare";
options = 2;
origin = (0,1);
scale = (0.7,1);
type = Cap;
},
{
name = "_corner.LC-left-diagonal-serif";
origin = (0,5);
scale = (0.8,1);
type = Corner;
},
{
name = "_corner.LC-right-diagonal-serif";
options = 1;
origin = (0,7);
scale = (0.8,1);
type = Corner;
}
);
layerId = "41FE8A15-28AA-4FFF-A503-D6748EB37864";
shapes = (
{
closed = 1;
nodes = (
(335,-15,l),
(597,520,l),
(595,520,l),
(425,172,l),
(427,174,l),
(241,520,l),
(148,517,l),
(48,520,l),
(334,-15,l)
);
}
);
width = 659;
},
{
anchors = (
{
name = bottom;
pos = (302,0);
},
{
name = top;
pos = (302,512);
}
);
background = {
anchors = (
{
name = bottom;
pos = (302,0);
},
{
name = top;
pos = (302,512);
}
);
shapes = (
{
closed = 1;
nodes = (
(306,-15,l),
(472,346,ls),
(521,453,o),
(557,503,o),
(603,513,c),
(603,514,l),
(576,512,o),
(549,512,o),
(515,512,cs),
(481,512,o),
(458,512,o),
(396,514,c),
(396,513,l),
(488,507,o),
(516,445,o),
(470,345,cs),
(348,79,l),
(354,91,l),
(193,429,ls),
(163,492,o),
(176,509,o),
(251,513,c),
(251,514,l),
(207,512,o),
(150,512,o),
(105,512,cs),
(72,512,o),
(45,513,o),
(-1,514,c),
(-1,513,l),
(37,511,o),
(63,493,o),
(80,458,cs),
(305,-15,l)
);
}
);
};
guides = (
{
angle = 65.2455;
pos = (306,-15);
}
);
hints = (
{
name = "_cap.LC-thin-diagonal-flare";
options = 2;
origin = (0,1);
scale = (0.7,1);
type = Cap;
},
{
name = "_corner.LC-left-diagonal-serif";
origin = (0,5);
scale = (0.8,1);
type = Corner;
},
{
name = "_corner.LC-right-diagonal-serif";
options = 1;
origin = (0,7);
scale = (0.8,1);
type = Corner;
}
);
layerId = "2AEC198B-4747-4E5F-80A7-B5A71C2761F9";
shapes = (
{
closed = 1;
nodes = (
(306,-15,l),
(549,512,l),
(547,512,l),
(348,79,l),
(354,91,l),
(153,512,l),
(107,509,l),
(54,512,l),
(305,-15,l)
);
}
);
width = 609;
},
{
anchors = (
{
name = bottom;
pos = (348,0);
},
{
name = top;
pos = (348,520);
}
);
background = {
anchors = (
{
name = bottom;
pos = (348,0);
},
{
name = top;
pos = (348,520);
}
);
shapes = (
{
closed = 1;
nodes = (
(388,0,l),
(540,356,ls),
(566,417,o),
(593,441,o),
(649,448,c),
(649,519,l),
(608,517,o),
(562,515,o),
(542,515,cs),
(518,515,o),
(468,517,o),
(417,519,c),
(417,448,l),
(480,441,o),
(489,409,o),
(458,336,cs),
(377,147,l),
(423,193,l),
(342,360,ls),
(311,424,o),
(322,448,o),
(384,448,c),
(384,519,l),
(350,516,o),
(310,515,o),
(226,515,cs),
(138,515,o),
(89,516,o),
(43,519,c),
(43,448,l),
(96,443,o),
(118,427,o),
(142,377,cs),
(321,0,l)
);
}
);
};
hints = (
{
name = "_cap.LC-thin-diagonal-flare";
options = 2;
origin = (0,1);
scale = (0.5,1);
type = Cap;
},
{
name = "_corner.LC-left-diagonal-serif";
origin = (0,5);
scale = (0.5,1);
type = Corner;
},
{
name = "_corner.LC-right-diagonal-serif";
options = 1;
origin = (0,7);
scale = (0.8,1);
type = Corner;
}
);
layerId = "29EF49B2-C370-4E88-B36E-A4ACD23E3F3A";
shapes = (
{
closed = 1;
nodes = (
(388,0,l),
(610,520,l),
(537,520,l),
(377,147,l),
(423,193,l),
(265,520,l),
(176,517,l),
(73,520,l),
(321,0,l)
);
}
);
width = 694;
},
{
anchors = (
{
name = bottom;
pos = (420,0);
},
{
name = top;
pos = (420,520);
}
);
background = {
anchors = (
{
name = bottom;
pos = (420,0);
},
{
name = top;
pos = (420,520);
}
);
shapes = (
{
closed = 1;
nodes = (
(461,0,l),
(660,357,ls),
(699,427,o),
(725,441,o),
(776,448,c),
(776,519,l),
(738,517,o),
(688,515,o),
(656,515,cs),
(631,515,o),
(583,516,o),
(517,519,c),
(517,448,l),
(596,441,o),
(609,409,o),
(569,338,cs),
(455,136,l),
(506,161,l),
(383,361,ls),
(344,424,o),
(359,448,o),
(443,448,c),
(443,519,l),
(380,516,o),
(309,515,o),
(254,515,cs),
(172,515,o),
(112,516,o),
(56,519,c),
(56,448,l),
(105,444,o),
(131,432,o),
(155,393,cs),
(394,0,l)
);
}
);
};
hints = (
{
name = "_cap.LC-thin-diagonal-flare";
options = 2;
origin = (0,1);
scale = (0.7,1);
type = Cap;
},
{
name = "_corner.LC-left-diagonal-serif";
options = 2;
origin = (0,5);
scale = (0.6,1);
type = Corner;
},
{
name = "_corner.LC-right-diagonal-serif";
options = 1;
origin = (0,7);
scale = (0.8,1);
type = Corner;
}
);
layerId = "58AEE805-6805-4A0B-A273-5ABBCB55D365";
shapes = (
{
closed = 1;
nodes = (
(461,0,l),
(751,520,l),
(671,520,l),
(455,136,l),
(506,161,l),
(285,520,l),
(185,517,l),
(77,520,l),
(394,0,l)
);
}
);
width = 838;
},
{
anchors = (
{
name = bottom;
pos = (415,0);
},
{
name = top;
pos = (415,520);
}
);
associatedMasterId = "58AEE805-6805-4A0B-A273-5ABBCB55D365";
attr = {
axisRules = (
{
max = 400;
},
{
max = 97;
},
{
min = 700;
}
);
};
background = {
anchors = (
{
name = bottom;
pos = (415,0);
},
{
name = top;
pos = (415,520);
}
);
shapes = (
{
closed = 1;
nodes = (
(456,0,l),
(655,357,ls),
(694,427,o),
(720,441,o),
(771,448,c),
(771,519,l),
(733,517,o),
(683,515,o),
(651,515,cs),
(626,515,o),
(578,516,o),
(512,519,c),
(512,448,l),
(591,441,o),
(604,409,o),
(564,338,cs),
(450,136,l),
(501,161,l),
(352,404,ls),
(327,444,o),
(319,482,o),
(321,519,c),
(288,517,o),
(257,516,o),
(229,516,cs),
(155,516,o),
(101,517,o),
(51,519,c),
(51,448,l),
(100,444,o),
(126,432,o),
(150,393,cs),
(389,0,l)
);
}
);
};
hints = (
{
name = "_cap.LC-diagonal-out-serif";
options = 2;
origin = (0,5);
type = Cap;
},
{
name = "_cap.LC-thin-diagonal-flare";
options = 2;
origin = (0,1);
scale = (0.7,1);
type = Cap;
}
);
layerId = "5C16A887-3C4A-4861-AD46-AA552A8734E6";
name = "23 Jan 22, 11:35";
shapes = (
{
closed = 1;
nodes = (
(456,0,l),
(746,520,l),
(666,520,l),
(450,136,l),
(501,161,l),
(280,520,l),
(72,520,l),
(389,0,l)
);
}
);
width = 833;
},
{
anchors = (
{
name = bottom;
pos = (354,0);
},
{
name = top;
pos = (354,520);
}
);
associatedMasterId = "29EF49B2-C370-4E88-B36E-A4ACD23E3F3A";
attr = {
axisRules = (
{
max = 400;
},
{
max = 97;
},
{
min = 700;
}
);
};
background = {
anchors = (
{
name = bottom;
pos = (354,0);
},
{
name = top;
pos = (354,520);
}
);
shapes = (
{
closed = 1;
nodes = (
(394,0,l),
(546,356,ls),
(572,417,o),
(599,441,o),
(655,448,c),
(655,519,l),
(614,517,o),
(568,515,o),
(548,515,cs),
(524,515,o),
(474,517,o),
(423,519,c),
(423,448,l),
(486,441,o),
(495,409,o),
(464,336,cs),
(383,148,l),
(429,193,l),
(321,416,ls),
(306,447,o),
(300,482,o),
(302,519,c),
(272,517,o),
(242,516,o),
(212,516,cs),
(134,516,o),
(90,517,o),
(49,519,c),
(49,448,l),
(102,443,o),
(124,427,o),
(148,377,cs),
(327,0,l)
);
}
);
};
hints = (
{
name = "_cap.LC-diagonal-out-serif";
options = 2;
origin = (0,5);
type = Cap;
},
{
name = "_cap.LC-thin-diagonal-flare";
options = 2;
origin = (0,1);
scale = (0.7,1);
type = Cap;
}
);
layerId = "227F319E-628A-4DE2-8A82-8EE6009E24C9";
name = "23 Jan 22, 11:35";
shapes = (
{
closed = 1;
nodes = (
(394,0,l),
(616,520,l),
(543,520,l),
(383,147,l),
(429,193,l),
(271,520,l),
(79,520,l),
(327,0,l)
);
}
);
width = 717;
},
{
anchors = (
{
name = bottom;
pos = (421,0);
},
{
name = top;
pos = (421,512);
}
);
associatedMasterId = "2895B92B-45F5-4972-B85C-1A160E6E6488";
attr = {
axisRules = (
{
max = 400;
},
{
max = 97;
},
{
min = 700;
}
);
};
background = {
anchors = (
{
name = bottom;
pos = (421,0);
},
{
name = top;
pos = (421,512);
}
);
shapes = (
{
closed = 1;
nodes = (
(458,-5,l),
(637,361,ls),
(665,418,o),
(710,444,o),
(781,444,c),
(781,515,l),
(745,513,o),
(694,512,o),
(635,512,cs),
(571,512,o),
(517,513,o),
(473,515,c),
(473,444,l),
(559,444,o),
(584,413,o),
(555,353,cs),
(416,69,l),
(453,69,l),
(278,402,ls),
(261,435,o),
(253,474,o),
(254,514,c),
(230,512,o),
(205,511,o),
(181,511,cs),
(134,511,o),
(88,512,o),
(46,514,c),
(46,443,l),
(124,444,o),
(167,423,o),
(194,372,cs),
(391,-5,l)
);
}
);
};
hints = (
{
name = "_cap.LC-diagonal-out-serif";
options = 2;
origin = (0,5);
type = Cap;
},
{
name = "_cap.LC-thin-diagonal-flare";
options = 2;
origin = (0,1);
scale = (0.7,1);
type = Cap;
}
);
layerId = "4D374057-7B51-4CFE-8800-B2B5EFDAC80A";
name = "23 Jan 22, 11:35";
shapes = (
{
closed = 1;
nodes = (
(458,-5,l),
(710,512,l),
(632,512,l),
(420,77,l),
(453,68,l),
(221,512,l),
(121,512,l),
(391,-5,l)
);
}
);
width = 811;
},
{
anchors = (
{
name = bottom;
pos = (338,0);
},
{
name = top;
pos = (338,512);
}
);
associatedMasterId = "7300F074-2CFD-43CC-B20F-1BF1EAE6C2C7";
attr = {
axisRules = (
{
max = 400;
},
{
max = 97;
},
{
min = 700;
}
);
};
background = {
anchors = (
{
name = bottom;
pos = (338,0);
},
{
name = top;
pos = (338,512);
}
);
shapes = (
{
closed = 1;
nodes = (
(375,-5,l),
(508,356,ls),
(531,418,o),
(569,444,o),
(639,444,c),
(639,515,l),
(611,513,o),
(556,512,o),
(512,512,cs),
(471,512,o),
(443,513,o),
(379,515,c),
(379,444,l),
(439,444,o),
(455,413,o),
(432,350,cs),
(334,83,l),
(363,83,l),
(233,406,ls),
(220,439,o),
(213,476,o),
(215,514,c),
(193,512,o),
(171,511,o),
(139,511,cs),
(90,511,o),
(58,512,o),
(26,514,c),
(26,443,l),
(94,444,o),
(134,421,o),
(155,370,cs),
(308,-5,l)
);
}
);
};
hints = (
{
name = "_cap.LC-diagonal-out-serif";
options = 2;
origin = (0,5);
type = Cap;
},
{
name = "_cap.LC-thin-diagonal-flare";
options = 2;
origin = (0,1);
scale = (0.7,1);
type = Cap;
}
);
layerId = "83AF2804-8268-4DC5-A648-959CDD49BFE0";
name = "23 Jan 22, 11:35";
shapes = (
{
closed = 1;
nodes = (
(375,-5,l),
(566,512,l),
(491,512,l),
(341,102,l),
(358,97,l),
(190,512,l),
(97,512,l),
(308,-5,l)
);
}
);
width = 661;
},
{
anchors = (
{
name = bottom;
pos = (329,0);
},
{
name = top;
pos = (328,520);
}
);
associatedMasterId = "41FE8A15-28AA-4FFF-A503-D6748EB37864";
attr = {
axisRules = (
{
max = 400;
},
{
max = 97;
},
{
min = 700;
}
);
};
background = {
anchors = (
{
name = bottom;
pos = (329,0);
},
{
name = top;
pos = (328,520);
}
);
shapes = (
{
closed = 1;
nodes = (
(335,-15,l),
(517,357,ls),
(559,443,o),
(591,484,o),
(644,518,c),
(644,519,l),
(625,517,o),
(583,515,o),
(555,515,cs),
(528,515,o),
(477,517,o),
(440,519,c),
(440,518,l),
(508,496,o),
(530,388,o),
(485,295,cs),
(425,172,l),
(427,174,l),
(281,445,ls),
(269,467,o),
(261,492,o),
(258,519,c),
(223,517,o),
(194,516,o),
(165,516,cs),
(100,516,o),
(53,516,o),
(3,519,c),
(3,518,l),
(34,516,o),
(61,496,o),
(79,462,cs),
(334,-15,l)
);
}
);
};
hints = (
{
name = "_cap.LC-diagonal-out-serif";
options = 2;
origin = (0,5);
type = Cap;
},
{
name = "_cap.LC-thin-diagonal-flare";
options = 2;
origin = (0,1);
type = Cap;
}
);
layerId = "CDB74F86-E9D8-459D-AA82-3BF2C099C02D";
name = "23 Jan 22, 11:35";
shapes = (
{
closed = 1;
nodes = (
(335,-15,l),
(597,520,l),
(595,520,l),
(425,172,l),
(427,174,l),
(241,520,l),
(48,520,l),
(334,-15,l)
);
}
);
width = 686;
},
{
anchors = (
{
name = bottom;
pos = (272,0);
},
{
name = top;
pos = (272,520);
}
);
associatedMasterId = "F497C50F-30EB-4580-9148-0005B36D0333";
attr = {
axisRules = (
{
max = 400;
},
{
max = 97;
},
{
min = 700;
}
);
};
background = {
anchors = (
{
name = bottom;
pos = (272,0);
},
{
name = top;
pos = (272,520);
}
);
shapes = (
{
closed = 1;
nodes = (
(278,-15,l),
(431,356,ls),
(467,443,o),
(496,484,o),
(544,518,c),
(544,519,l),
(529,517,o),
(493,515,o),
(467,515,cs),
(437,515,o),
(389,517,o),
(362,519,c),
(362,518,l),
(424,497,o),
(444,393,o),
(404,295,cs),
(362,193,l),
(368,204,l),
(258,443,ls),
(247,467,o),
(240,492,o),
(238,519,c),
(208,517,o),
(182,516,o),
(147,516,cs),
(84,516,o),
(36,516,o),
(0,519,c),
(0,518,l),
(23,516,o),
(42,498,o),
(58,462,cs),
(277,-15,l)
);
}
);
};
hints = (
{
name = "_cap.LC-diagonal-out-serif";
options = 2;
origin = (0,5);
type = Cap;
},
{
name = "_cap.LC-thin-diagonal-flare";
options = 2;
origin = (0,1);
type = Cap;
}
);
layerId = "38613EF2-4D91-46D6-8D21-E7F316723477";
name = "23 Jan 22, 11:36";
shapes = (
{
closed = 1;
nodes = (
(278,-15,l),
(499,520,l),
(497,520,l),
(362,193,l),
(368,204,l),
(223,520,l),
(31,520,l),
(277,-15,l)
);
}
);
width = 570;
},
{
anchors = (
{
name = bottom;
pos = (305,0);
},
{
name = top;
pos = (305,512);
}
);
associatedMasterId = "2AEC198B-4747-4E5F-80A7-B5A71C2761F9";
attr = {
axisRules = (
{
max = 400;
},
{
max = 97;
},
{
min = 700;
}
);
};
background = {
anchors = (
{
name = bottom;
pos = (305,0);
},
{
name = top;
pos = (305,512);
}
);
shapes = (
{
closed = 1;
nodes = (
(309,-15,l),
(475,346,ls),
(524,453,o),
(560,503,o),
(606,513,c),
(606,514,l),
(579,512,o),
(552,512,o),
(518,512,cs),
(484,512,o),
(461,512,o),
(399,514,c),
(399,513,l),
(491,507,o),
(519,445,o),
(473,345,cs),
(355,88,l),
(357,90,l),
(190,441,ls),
(179,464,o),
(173,488,o),
(172,514,c),
(147,512,o),
(129,512,o),
(108,512,cs),
(75,512,o),
(48,513,o),
(2,514,c),
(2,513,l),
(40,511,o),
(66,493,o),
(83,458,cs),
(308,-15,l)
);
}
);
};
hints = (
{
name = "_cap.LC-diagonal-out-serif";
options = 2;
origin = (0,5);
type = Cap;
},
{
name = "_cap.LC-thin-diagonal-flare";
options = 2;
origin = (0,1);
type = Cap;
}
);
layerId = "62EA566E-C94E-4695-B0B0-4E8F6C90CD5B";
name = "23 Jan 22, 11:36";
shapes = (
{
closed = 1;
nodes = (
(309,-15,l),
(552,512,l),
(550,512,l),
(351,79,l),
(357,91,l),
(156,512,l),
(57,512,l),
(308,-15,l)
);
}
);
width = 638;
},
{
anchors = (
{
name = bottom;
pos = (262,0);
},
{
name = top;
pos = (257,512);
}
);
associatedMasterId = "DF17D77B-A5C4-4843-826A-BC0F1C4CB224";
attr = {
axisRules = (
{
max = 400;
},
{
max = 97;
},
{
min = 700;
}
);
};
background = {
anchors = (
{
name = bottom;
pos = (262,0);
},
{
name = top;
pos = (257,512);
}
);
shapes = (
{
closed = 1;
nodes = (
(263,-15,l),
(413,390,ls),
(445,476,o),
(472,510,o),
(508,513,c),
(508,514,l),
(487,513,o),
(462,512,o),
(432,512,cs),
(403,512,o),
(386,512,o),
(338,514,c),
(338,513,l),
(419,507,o),
(432,447,o),
(383,314,cs),
(306,105,l),
(308,107,l),
(174,435,ls),
(164,459,o),
(158,486,o),
(156,514,c),
(137,512,o),
(117,511,o),
(94,511,cs),
(59,511,o),
(33,512,o),
(0,514,c),
(0,513,l),
(31,512,o),
(53,494,o),
(68,458,cs),
(262,-15,l)
);
}
);
};
guides = (
{
angle = 69.599;
pos = (263,-15);
}
);
hints = (
{
name = "_cap.LC-diagonal-out-serif";
options = 2;
origin = (0,5);
type = Cap;
},
{
name = "_cap.LC-thin-diagonal-flare";
options = 2;
origin = (0,1);
type = Cap;
}
);
layerId = "82607577-90E0-4D6C-9D17-FD6A6FE6FDC6";
name = "23 Jan 22, 11:36";
shapes = (
{
closed = 1;
nodes = (
(263,-15,l),
(459,512,l),
(457,512,l),
(302,93,l),
(308,108,l),
(143,512,l),
(46,512,l),
(262,-15,l)
);
}
);
width = 531;
}
);
metricLeft = "=_corner.UC-right-diagonal-serif";
metricRight = "=|_corner.UC-right-diagonal-serif";
unicode = 118;
userData = {
KernOnName = v;
};
}
{
color = 4;
glyphname = w;
kernLeft = KO_w;
kernRight = KO_w;
layers = (
{
anchors = (
{
name = bottom;
pos = (403,0);
},
{
name = top;
pos = (429,512);
}
);
background = {
anchors = (
{
name = bottom;
pos = (403,0);
},
{
name = top;
pos = (429,512);
}
);
shapes = (
{
closed = 1;
nodes = (
(249,-15,l),
(436,518,l),
(435,519,l),
(291,110,l),
(295,118,l),
(181,430,ls),
(157,497,o),
(164,508,o),
(236,513,c),
(236,514,l),
(200,512,o),
(157,511,o),
(106,511,cs),
(68,511,o),
(31,513,o),
(8,514,c),
(8,513,l),
(24,512,o),
(55,512,o),
(75,458,cs),
(248,-15,l)
);
},
{
closed = 1;
nodes = (
(567,-15,l),
(700,381,ls),
(730,470,o),
(755,504,o),
(795,513,c),
(795,514,l),
(767,512,o),
(740,512,o),
(709,512,cs),
(683,512,o),
(668,512,o),
(625,514,c),
(625,513,l),
(694,508,o),
(714,430,o),
(675,313,cs),
(595,73,l),
(609,111,l),
(437,519,l),
(435,519,l),
(392,397,l),
(566,-15,l)
);
}
);
};
hints = (
{
name = "_corner.LC-right-diagonal-serif";
options = 1;
origin = (0,7);
type = Corner;
},
{
name = "_corner.LC-left-diagonal-serif";
origin = (0,5);
scale = (0.7,1);
type = Corner;
},
{
name = "_cap.LC-thin-diagonal-flare";
options = 2;
origin = (1,1);
type = Cap;
}
);
layerId = "DF17D77B-A5C4-4843-826A-BC0F1C4CB224";
shapes = (
{
closed = 1;
nodes = (
(249,-15,l),
(436,518,l),
(435,519,l),
(291,110,l),
(295,118,l),
(151,512,l),
(103,509,l),
(55,512,l),
(248,-15,l)
);
},
{
closed = 1;
nodes = (
(567,-15,l),
(744,512,l),
(742,512,l),
(595,73,l),
(609,111,l),
(437,519,l),
(435,519,l),
(392,397,l),
(566,-15,l)
);
}
);
width = 816;
},
{
anchors = (
{
name = bottom;
pos = (459,0);
},
{
name = top;
pos = (472,512);
}
);
background = {
anchors = (
{
name = bottom;
pos = (459,0);
},
{
name = top;
pos = (472,512);
}
);
shapes = (
{
closed = 1;
nodes = (
(340,-5,l),
(496,468,l),
(437,514,l),
(302,107,l),
(320,112,l),
(234,359,ls),
(210,427,o),
(224,443,o),
(302,443,c),
(302,514,l),
(272,511,o),
(236,510,o),
(168,510,cs),
(88,510,o),
(47,511,o),
(14,514,c),
(14,443,l),
(83,443,o),
(118,422,o),
(137,369,cs),
(273,-5,l)
);
},
{
closed = 1;
nodes = (
(658,-5,l),
(771,355,ls),
(792,421,o),
(824,443,o),
(901,443,c),
(901,514,l),
(865,512,o),
(819,511,o),
(767,511,cs),
(721,511,o),
(699,512,o),
(643,514,c),
(643,443,l),
(700,443,o),
(717,418,o),
(695,349,cs),
(616,100,l),
(643,108,l),
(510,514,l),
(437,514,l),
(457,403,l),
(591,-5,l)
);
}
);
};
hints = (
{
name = "_corner.LC-right-diagonal-serif";
options = 1;
origin = (0,7);
scale = (0.8,1);
type = Corner;
},
{
name = "_corner.LC-left-diagonal-serif";
origin = (0,5);
scale = (0.7,1);
type = Corner;
},
{
name = "_cap.LC-thin-diagonal-flare";
options = 2;
origin = (1,1);
scale = (0.7,1);
type = Cap;
}
);
layerId = "7300F074-2CFD-43CC-B20F-1BF1EAE6C2C7";
shapes = (
{
closed = 1;
nodes = (
(340,-5,l),
(496,466,l),
(437,512,l),
(302,107,l),
(320,112,l),
(180,512,l),
(133,509,l),
(85,512,l),
(273,-5,l)
);
},
{
closed = 1;
nodes = (
(658,-5,l),
(820,511,l),
(746,512,l),
(616,100,l),
(643,108,l),
(510,512,l),
(437,512,l),
(457,403,l),
(591,-5,l)
);
}
);
width = 915;
},
{
anchors = (
{
name = bottom;
pos = (564,0);
},
{
name = top;
pos = (588,512);
}
);
background = {
anchors = (
{
name = bottom;
pos = (564,0);
},
{
name = top;
pos = (588,512);
}
);
shapes = (
{
closed = 1;
nodes = (
(410,-5,l),
(615,467,l),
(555,514,l),
(374,104,l),
(392,106,l),
(275,360,ls),
(245,426,o),
(265,443,o),
(366,443,c),
(366,514,l),
(317,511,o),
(270,510,o),
(189,510,cs),
(104,510,o),
(63,511,o),
(25,514,c),
(25,443,l),
(112,443,o),
(144,427,o),
(169,372,cs),
(343,-5,l)
);
},
{
closed = 1;
nodes = (
(818,-5,l),
(962,357,ls),
(988,423,o),
(1023,443,o),
(1111,443,c),
(1111,514,l),
(1031,512,o),
(994,511,o),
(951,511,cs),
(910,511,o),
(878,512,o),
(817,514,c),
(816,443,l),
(891,443,o),
(911,423,o),
(884,355,cs),
(780,96,l),
(802,104,l),
(628,514,l),
(555,514,l),
(578,408,l),
(752,-5,l)
);
}
);
};
hints = (
{
name = "_corner.LC-right-diagonal-serif";
options = 1;
origin = (0,7);
scale = (0.8,1);
type = Corner;
},
{
name = "_corner.LC-left-diagonal-serif";
options = 2;
origin = (0,5);
scale = (0.6,1);
type = Corner;
},
{
name = "_cap.LC-thin-diagonal-flare";
options = 2;
origin = (1,1);
scale = (0.7,1);
type = Cap;
}
);
layerId = "2895B92B-45F5-4972-B85C-1A160E6E6488";
shapes = (
{
closed = 1;
nodes = (
(410,-5,l),
(615,465,l),
(555,512,l),
(374,104,l),
(392,106,l),
(205,512,l),
(155,509,l),
(104,512,l),
(343,-5,l)
);
},
{
closed = 1;
nodes = (
(818,-5,l),
(1024,512,l),
(947,512,l),
(780,96,l),
(802,104,l),
(628,512,l),
(555,512,l),
(578,408,l),
(752,-5,l)
);
}
);
width = 1125;
},
{
anchors = (
{
name = bottom;
pos = (432,0);
},
{
name = top;
pos = (444,520);
}
);
background = {
anchors = (
{
name = bottom;
pos = (432,0);
},
{
name = top;
pos = (444,520);
}
);
shapes = (
{
closed = 1;
nodes = (
(296,-15,l),
(497,522,l),
(496,523,l),
(378,208,l),
(382,217,l),
(280,440,ls),
(260,484,o),
(265,514,o),
(315,518,c),
(315,519,l),
(268,517,o),
(207,515,o),
(158,515,cs),
(104,515,o),
(61,517,o),
(20,519,c),
(20,518,l),
(34,516,o),
(56,512,o),
(79,462,cs),
(295,-15,l)
);
},
{
closed = 1;
nodes = (
(544,-15,l),
(724,421,ls),
(746,475,o),
(762,497,o),
(795,518,c),
(795,519,l),
(780,516,o),
(742,515,o),
(718,515,cs),
(694,515,o),
(631,516,o),
(603,519,c),
(603,518,l),
(659,510,o),
(728,435,o),
(677,312,cs),
(630,198,l),
(636,209,l),
(497,523,l),
(496,523,l),
(409,290,l),
(543,-15,l)
);
}
);
};
hints = (
{
name = "_corner.LC-right-diagonal-serif";
options = 1;
origin = (0,7);
type = Corner;
},
{
name = "_corner.LC-left-diagonal-serif";
origin = (0,5);
scale = (0.7,1);
type = Corner;
},
{
name = "_cap.LC-thin-diagonal-flare";
options = 2;
origin = (1,1);
scale = (0.7,1);
type = Cap;
}
);
layerId = "F497C50F-30EB-4580-9148-0005B36D0333";
shapes = (
{
closed = 1;
nodes = (
(296,-15,l),
(497,522,l),
(496,523,l),
(378,208,l),
(382,217,l),
(243,520,l),
(148,517,l),
(53,520,l),
(295,-15,l)
);
},
{
closed = 1;
nodes = (
(544,-15,l),
(765,520,l),
(763,520,l),
(630,198,l),
(636,209,l),
(497,523,l),
(496,523,l),
(409,290,l),
(543,-15,l)
);
}
);
width = 815;
},
{
anchors = (
{
name = bottom;
pos = (496,0);
},
{
name = top;
pos = (523,520);
}
);
background = {
anchors = (
{
name = bottom;
pos = (496,0);
},
{
name = top;
pos = (523,520);
}
);
shapes = (
{
closed = 1;
nodes = (
(333,-15,l),
(582,522,l),
(581,523,l),
(420,176,l),
(425,184,l),
(303,432,ls),
(273,493,o),
(275,514,o),
(353,518,c),
(353,519,l),
(288,517,o),
(221,515,o),
(174,515,cs),
(116,515,o),
(67,517,o),
(18,519,c),
(18,518,l),
(48,516,o),
(72,507,o),
(94,463,cs),
(332,-15,l)
);
},
{
closed = 1;
nodes = (
(651,-15,l),
(834,378,ls),
(869,454,o),
(900,494,o),
(940,518,c),
(940,519,l),
(921,516,o),
(882,515,o),
(855,515,cs),
(838,515,o),
(796,516,o),
(749,519,c),
(749,518,l),
(819,510,o),
(868,454,o),
(809,328,cs),
(738,176,l),
(745,188,l),
(582,523,l),
(581,523,l),
(489,323,l),
(650,-15,l)
);
}
);
};
hints = (
{
name = "_corner.LC-right-diagonal-serif";
options = 1;
origin = (0,7);
type = Corner;
},
{
name = "_corner.LC-left-diagonal-serif";
origin = (0,5);
scale = (0.7,1);
type = Corner;
},
{
name = "_cap.LC-thin-diagonal-flare";
options = 2;
origin = (1,1);
scale = (0.7,1);
type = Cap;
}
);
layerId = "41FE8A15-28AA-4FFF-A503-D6748EB37864";
shapes = (
{
closed = 1;
nodes = (
(333,-15,l),
(582,522,l),
(581,523,l),
(420,176,l),
(425,184,l),
(260,520,l),
(163,517,l),
(66,520,l),
(332,-15,l)
);
},
{
closed = 1;
nodes = (
(651,-15,l),
(901,520,l),
(899,520,l),
(738,176,l),
(745,188,l),
(582,523,l),
(581,523,l),
(489,323,l),
(650,-15,l)
);
}
);
width = 963;
},
{
anchors = (
{
name = bottom;
pos = (462,0);
},
{
name = top;
pos = (496,512);
}
);
background = {
anchors = (
{
name = bottom;
pos = (462,0);
},
{
name = top;
pos = (496,512);
}
);
shapes = (
{
closed = 1;
nodes = (
(295,-15,l),
(504,518,l),
(503,519,l),
(337,96,l),
(342,105,l),
(212,412,ls),
(179,490,o),
(189,509,o),
(258,513,c),
(258,514,l),
(225,512,o),
(182,511,o),
(121,511,cs),
(75,511,o),
(47,512,o),
(21,514,c),
(21,513,l),
(56,511,o),
(82,489,o),
(102,441,cs),
(294,-15,l)
);
},
{
closed = 1;
nodes = (
(662,-15,l),
(812,387,ls),
(840,462,o),
(868,500,o),
(904,513,c),
(904,514,l),
(876,512,o),
(848,512,o),
(813,512,cs),
(780,512,o),
(767,512,o),
(716,514,c),
(716,513,l),
(817,506,o),
(837,458,o),
(789,330,cs),
(699,88,l),
(704,99,l),
(504,519,l),
(503,519,l),
(458,405,l),
(661,-15,l)
);
}
);
};
hints = (
{
name = "_corner.LC-right-diagonal-serif";
options = 1;
origin = (0,7);
type = Corner;
},
{
name = "_corner.LC-left-diagonal-serif";
origin = (0,5);
scale = (0.7,1);
type = Corner;
},
{
name = "_cap.LC-thin-diagonal-flare";
options = 2;
origin = (1,1);
scale = (0.7,1);
type = Cap;
}
);
layerId = "2AEC198B-4747-4E5F-80A7-B5A71C2761F9";
shapes = (
{
closed = 1;
nodes = (
(295,-15,l),
(504,518,l),
(503,519,l),
(337,96,l),
(342,105,l),
(170,512,l),
(121,509,l),
(72,512,l),
(294,-15,l)
);
},
{
closed = 1;
nodes = (
(662,-15,l),
(859,512,l),
(857,512,l),
(699,88,l),
(704,99,l),
(504,519,l),
(503,519,l),
(458,405,l),
(661,-15,l)
);
}
);
width = 919;
},
{
anchors = (
{
name = bottom;
pos = (476,0);
},
{
name = top;
pos = (488,520);
}
);
background = {
anchors = (
{
name = bottom;
pos = (476,0);
},
{
name = top;
pos = (488,520);
}
);
shapes = (
{
closed = 1;
nodes = (
(350,0,l),
(536,477,l),
(478,519,l),
(351,188,l),
(394,199,l),
(326,370,ls),
(304,426,o),
(319,448,o),
(373,448,c),
(373,519,l),
(329,516,o),
(272,515,o),
(203,515,cs),
(147,515,o),
(100,516,o),
(35,519,c),
(35,448,l),
(85,448,o),
(109,430,o),
(131,375,cs),
(283,0,l)
);
},
{
closed = 1;
nodes = (
(632,0,l),
(762,333,ls),
(789,403,o),
(818,436,o),
(869,448,c),
(869,519,l),
(847,517,o),
(798,515,o),
(762,515,cs),
(726,515,o),
(681,517,o),
(651,519,c),
(651,448,l),
(703,442,o),
(718,405,o),
(686,326,cs),
(628,181,l),
(671,212,l),
(545,519,l),
(478,519,l),
(438,313,l),
(565,0,l)
);
}
);
};
hints = (
{
name = "_corner.LC-right-diagonal-serif";
options = 1;
origin = (0,7);
scale = (0.8,1);
type = Corner;
},
{
name = "_corner.LC-left-diagonal-serif";
origin = (0,5);
scale = (0.7,1);
type = Corner;
},
{
name = "_cap.LC-thin-diagonal-flare";
options = 2;
origin = (1,1);
scale = (0.7,1);
type = Cap;
}
);
layerId = "29EF49B2-C370-4E88-B36E-A4ACD23E3F3A";
shapes = (
{
closed = 1;
nodes = (
(350,0,l),
(536,478,l),
(478,520,l),
(351,188,l),
(394,199,l),
(266,520,l),
(170,517,l),
(73,520,l),
(283,0,l)
);
},
{
closed = 1;
nodes = (
(632,0,l),
(835,520,l),
(764,520,l),
(628,181,l),
(671,212,l),
(545,520,l),
(478,520,l),
(438,313,l),
(565,0,l)
);
}
);
width = 936;
},
{
anchors = (
{
name = bottom;
pos = (585,0);
},
{
name = top;
pos = (603,520);
}
);
background = {
anchors = (
{
name = bottom;
pos = (585,0);
},
{
name = top;
pos = (603,520);
}
);
shapes = (
{
closed = 1;
nodes = (
(417,0,l),
(652,477,l),
(593,519,l),
(427,188,l),
(456,188,l),
(361,371,ls),
(330,431,o),
(345,448,o),
(426,448,c),
(426,519,l),
(383,516,o),
(322,515,o),
(232,515,cs),
(168,515,o),
(125,516,o),
(47,519,c),
(47,448,l),
(95,448,o),
(125,428,o),
(152,376,cs),
(350,0,l)
);
},
{
closed = 1;
nodes = (
(803,0,l),
(976,351,ls),
(1003,407,o),
(1034,437,o),
(1082,448,c),
(1082,519,l),
(1064,516,o),
(1031,515,o),
(971,515,cs),
(926,515,o),
(896,516,o),
(837,519,c),
(837,448,l),
(904,443,o),
(923,408,o),
(883,328,cs),
(809,181,l),
(844,185,l),
(669,519,l),
(593,519,l),
(561,331,l),
(736,0,l)
);
}
);
};
hints = (
{
name = "_corner.LC-right-diagonal-serif";
options = 1;
origin = (0,7);
scale = (0.8,1);
type = Corner;
},
{
name = "_corner.LC-left-diagonal-serif";
origin = (0,5);
scale = (0.5,1);
type = Corner;
},
{
name = "_cap.LC-thin-diagonal-flare";
options = 2;
origin = (1,1);
scale = (0.7,1);
type = Cap;
}
);
layerId = "58AEE805-6805-4A0B-A273-5ABBCB55D365";
shapes = (
{
closed = 1;
nodes = (
(417,0,l),
(652,478,l),
(593,520,l),
(427,188,l),
(456,188,l),
(284,520,l),
(181,517,l),
(77,520,l),
(350,0,l)
);
},
{
closed = 1;
nodes = (
(803,0,l),
(1060,520,l),
(977,520,l),
(809,181,l),
(844,185,l),
(669,520,l),
(593,520,l),
(561,331,l),
(736,0,l)
);
}
);
width = 1147;
},
{
anchors = (
{
name = bottom;
pos = (581,0);
},
{
name = top;
pos = (599,520);
}
);
associatedMasterId = "58AEE805-6805-4A0B-A273-5ABBCB55D365";
attr = {
axisRules = (
{
max = 400;
},
{
max = 97;
},
{
min = 700;
}
);
};
background = {
anchors = (
{
name = bottom;
pos = (581,0);
},
{
name = top;
pos = (599,520);
}
);
shapes = (
{
closed = 1;
nodes = (
(413,0,l),
(648,477,l),
(589,519,l),
(423,188,l),
(452,188,l),
(340,404,ls),
(318,446,o),
(308,482,o),
(310,519,c),
(277,517,o),
(246,516,o),
(218,516,cs),
(144,516,o),
(90,517,o),
(40,519,c),
(40,448,l),
(89,444,o),
(118,433,o),
(139,393,cs),
(346,0,l)
);
},
{
closed = 1;
nodes = (
(801,0,l),
(970,351,ls),
(997,407,o),
(1028,437,o),
(1076,448,c),
(1076,519,l),
(1063,517,o),
(1038,516,o),
(994,516,cs),
(966,516,o),
(947,517,o),
(921,519,c),
(928,479,o),
(923,423,o),
(896,368,cs),
(807,181,l),
(841,185,l),
(667,519,l),
(589,519,l),
(547,331,l),
(734,0,l)
);
}
);
};
hints = (
{
name = "_cap.LC-diagonal-out-serif";
options = 2;
origin = (0,5);
type = Cap;
},
{
name = "_cap.LC-thin-diagonal-out-serif";
options = 4;
origin = (1,1);
scale = (1.04046,1);
type = Cap;
}
);
layerId = "8FA842A9-A48F-4207-B046-08A8D385B55F";
name = "23 Jan 22, 11:43";
shapes = (
{
closed = 1;
nodes = (
(413,0,l),
(648,478,l),
(589,520,l),
(423,188,l),
(452,188,l),
(280,520,l),
(73,520,l),
(346,0,l)
);
},
{
closed = 1;
nodes = (
(799,0,l),
(1056,520,l),
(971,520,l),
(805,181,l),
(840,185,l),
(665,520,l),
(589,520,l),
(557,331,l),
(732,0,l)
);
}
);
width = 1122;
},
{
anchors = (
{
name = bottom;
pos = (485,0);
},
{
name = top;
pos = (497,520);
}
);
associatedMasterId = "29EF49B2-C370-4E88-B36E-A4ACD23E3F3A";
attr = {
axisRules = (
{
max = 400;
},
{
max = 97;
},
{
min = 700;
}
);
};
background = {
anchors = (
{
name = bottom;
pos = (485,0);
},
{
name = top;
pos = (497,520);
}
);
shapes = (
{
closed = 1;
nodes = (
(359,0,l),
(545,477,l),
(487,519,l),
(360,188,l),
(398,199,l),
(312,416,l),
(297,447,o),
(291,482,o),
(293,519,c),
(263,517,o),
(233,516,o),
(203,516,cs),
(125,516,o),
(81,517,o),
(40,519,c),
(40,448,l),
(93,443,o),
(115,427,o),
(139,377,c),
(292,0,l)
);
},
{
closed = 1;
nodes = (
(641,0,l),
(770,333,ls),
(797,403,o),
(826,436,o),
(877,448,c),
(877,519,l),
(862,518,o),
(830,516,o),
(806,516,cs),
(778,516,o),
(759,517,o),
(733,519,c),
(739,484,o),
(731,435,o),
(708,368,cs),
(642,181,l),
(679,212,l),
(554,519,l),
(487,519,l),
(449,313,l),
(574,0,l)
);
}
);
};
hints = (
{
name = "_cap.LC-diagonal-out-serif";
options = 2;
origin = (0,5);
type = Cap;
},
{
name = "_cap.LC-thin-diagonal-out-serif";
options = 4;
origin = (1,1);
scale = (1.04046,1);
type = Cap;
}
);
layerId = "B837431A-1EAE-4F9C-B844-F030F98B8FB5";
name = "23 Jan 22, 11:43";
shapes = (
{
closed = 1;
nodes = (
(355,0,l),
(541,478,l),
(483,520,l),
(356,188,l),
(399,199,l),
(271,520,l),
(78,520,l),
(288,0,l)
);
},
{
closed = 1;
nodes = (
(637,0,l),
(840,520,l),
(769,520,l),
(633,181,l),
(676,212,l),
(550,520,l),
(483,520,l),
(443,313,l),
(570,0,l)
);
}
);
width = 916;
},
{
anchors = (
{
name = bottom;
pos = (583,0);
},
{
name = top;
pos = (607,512);
}
);
associatedMasterId = "2895B92B-45F5-4972-B85C-1A160E6E6488";
attr = {
axisRules = (
{
max = 400;
},
{
max = 97;
},
{
min = 700;
}
);
};
background = {
anchors = (
{
name = bottom;
pos = (583,0);
},
{
name = top;
pos = (607,512);
}
);
shapes = (
{
closed = 1;
nodes = (
(429,-5,l),
(636,467,l),
(576,514,l),
(393,104,l),
(408,106,l),
(273,402,ls),
(258,436,o),
(248,474,o),
(249,514,c),
(225,512,o),
(200,511,o),
(176,511,cs),
(129,511,o),
(83,512,o),
(41,514,c),
(41,443,l),
(119,444,o),
(165,424,o),
(189,372,cs),
(362,-5,l)
);
},
{
closed = 1;
nodes = (
(837,-5,l),
(981,357,ls),
(1007,423,o),
(1042,443,o),
(1130,443,c),
(1130,514,l),
(1067,512,o),
(1037,511,o),
(1003,511,cs),
(975,511,o),
(956,512,o),
(930,514,c),
(937,474,o),
(928,420,o),
(905,363,cs),
(799,96,l),
(822,104,l),
(646,514,l),
(576,514,l),
(594,408,l),
(771,-5,l)
);
}
);
};
hints = (
{
name = "_cap.LC-diagonal-out-serif";
options = 2;
origin = (0,5);
type = Cap;
},
{
name = "_cap.LC-thin-diagonal-out-serif";
options = 4;
origin = (1,1);
scale = (1.04046,1);
type = Cap;
}
);
layerId = "CBCC36BD-F832-47CD-9F1D-DFED5E78F384";
name = "23 Jan 22, 11:43";
shapes = (
{
closed = 1;
nodes = (
(426,-5,l),
(631,465,l),
(571,512,l),
(390,104,l),
(408,106,l),
(221,512,l),
(120,512,l),
(359,-5,l)
);
},
{
closed = 1;
nodes = (
(834,-5,l),
(1040,512,l),
(963,512,l),
(796,96,l),
(818,104,l),
(644,512,l),
(571,512,l),
(594,408,l),
(768,-5,l)
);
}
);
width = 1169;
},
{
anchors = (
{
name = bottom;
pos = (469,0);
},
{
name = top;
pos = (482,512);
}
);
associatedMasterId = "7300F074-2CFD-43CC-B20F-1BF1EAE6C2C7";
attr = {
axisRules = (
{
max = 400;
},
{
max = 97;
},
{
min = 700;
}
);
};
background = {
anchors = (
{
name = bottom;
pos = (475,0);
},
{
name = top;
pos = (488,512);
}
);
shapes = (
{
closed = 1;
nodes = (
(356,-5,l),
(514,468,l),
(455,514,l),
(318,107,l),
(334,112,l),
(232,406,ls),
(220,440,o),
(212,476,o),
(214,514,c),
(192,512,o),
(169,511,o),
(137,511,cs),
(88,511,o),
(57,514,o),
(24,514,c),
(24,443,l),
(92,444,o),
(134,422,o),
(153,370,cs),
(289,-5,l)
);
},
{
closed = 1;
nodes = (
(674,-5,l),
(787,357,ls),
(808,424,o),
(840,443,o),
(917,443,c),
(917,514,l),
(863,512,o),
(838,511,o),
(809,511,cs),
(782,511,o),
(763,512,o),
(738,514,c),
(745,474,o),
(733,421,o),
(715,363,cs),
(632,100,l),
(659,108,l),
(525,514,l),
(455,514,l),
(472,403,l),
(607,-5,l)
);
}
);
};
hints = (
{
name = "_cap.LC-diagonal-out-serif";
options = 2;
origin = (0,5);
type = Cap;
},
{
name = "_cap.LC-thin-diagonal-out-serif";
options = 4;
origin = (1,1);
scale = (1.04046,1);
type = Cap;
}
);
layerId = "051183AB-8513-4606-B95A-72A80DCDF505";
name = "23 Jan 22, 11:43";
shapes = (
{
closed = 1;
nodes = (
(350,-5,l),
(506,466,l),
(447,512,l),
(312,107,l),
(330,112,l),
(190,512,l),
(95,512,l),
(283,-5,l)
);
},
{
closed = 1;
nodes = (
(668,-5,l),
(830,511,l),
(756,512,l),
(626,100,l),
(653,108,l),
(520,512,l),
(447,512,l),
(467,403,l),
(601,-5,l)
);
}
);
width = 934;
},
{
anchors = (
{
name = bottom;
pos = (477,0);
},
{
name = top;
pos = (504,520);
}
);
associatedMasterId = "41FE8A15-28AA-4FFF-A503-D6748EB37864";
attr = {
axisRules = (
{
max = 400;
},
{
max = 97;
},
{
min = 700;
}
);
};
background = {
anchors = (
{
name = bottom;
pos = (476,0);
},
{
name = top;
pos = (503,520);
}
);
shapes = (
{
closed = 1;
nodes = (
(313,-15,l),
(562,522,l),
(561,523,l),
(400,176,l),
(405,184,l),
(277,445,ls),
(266,467,o),
(257,492,o),
(254,519,c),
(219,517,o),
(190,516,o),
(161,516,cs),
(96,516,o),
(49,516,o),
(-1,519,c),
(-1,518,l),
(30,516,o),
(58,496,o),
(75,462,cs),
(312,-15,l)
);
},
{
closed = 1;
nodes = (
(631,-15,l),
(814,378,ls),
(849,454,o),
(880,494,o),
(920,518,c),
(920,519,l),
(910,517,o),
(890,516,o),
(874,516,cs),
(859,516,o),
(846,517,o),
(830,519,c),
(838,471,o),
(830,414,o),
(807,367,cs),
(718,176,l),
(725,188,l),
(562,523,l),
(561,523,l),
(469,323,l),
(630,-15,l)
);
}
);
};
hints = (
{
name = "_cap.LC-diagonal-out-serif";
options = 2;
origin = (0,5);
type = Cap;
},
{
name = "_cap.LC-thin-diagonal-out-serif";
options = 4;
origin = (1,1);
scale = (1.04046,1);
type = Cap;
}
);
layerId = "245ADA6C-94A5-4BE1-A22C-E7AFA831AB38";
name = "23 Jan 22, 11:43";
shapes = (
{
closed = 1;
nodes = (
(314,-15,l),
(563,522,l),
(562,523,l),
(401,176,l),
(406,184,l),
(241,520,l),
(47,520,l),
(313,-15,l)
);
},
{
closed = 1;
nodes = (
(632,-15,l),
(882,520,l),
(880,520,l),
(719,176,l),
(726,188,l),
(563,523,l),
(562,523,l),
(470,323,l),
(631,-15,l)
);
}
);
width = 925;
},
{
anchors = (
{
name = bottom;
pos = (412,0);
},
{
name = top;
pos = (424,520);
}
);
associatedMasterId = "F497C50F-30EB-4580-9148-0005B36D0333";
attr = {
axisRules = (
{
max = 400;
},
{
max = 97;
},
{
min = 700;
}
);
};
background = {
anchors = (
{
name = bottom;
pos = (410,0);
},
{
name = top;
pos = (422,520);
}
);
shapes = (
{
closed = 1;
nodes = (
(275,-15,l),
(476,522,l),
(475,523,l),
(357,208,l),
(361,217,l),
(258,443,ls),
(247,467,o),
(240,492,o),
(238,519,c),
(208,517,o),
(182,516,o),
(147,516,cs),
(84,516,o),
(36,516,o),
(0,519,c),
(0,518,l),
(23,516,o),
(42,498,o),
(58,462,cs),
(274,-15,l)
);
},
{
closed = 1;
nodes = (
(523,-15,l),
(685,378,ls),
(716,453,o),
(740,494,o),
(774,518,c),
(774,519,l),
(766,517,o),
(749,516,o),
(736,516,cs),
(724,516,o),
(714,517,o),
(701,519,c),
(709,471,o),
(699,416,o),
(679,368,cs),
(609,198,l),
(615,209,l),
(476,523,l),
(475,523,l),
(388,290,l),
(522,-15,l)
);
}
);
};
hints = (
{
name = "_cap.LC-diagonal-out-serif";
options = 2;
origin = (0,5);
type = Cap;
},
{
name = "_cap.LC-thin-diagonal-out-serif";
options = 4;
origin = (1,1);
scale = (1.04046,1);
type = Cap;
}
);
layerId = "6F115BE7-3815-46D6-9FBD-D3616F97F15E";
name = "23 Jan 22, 11:43";
shapes = (
{
closed = 1;
nodes = (
(276,-15,l),
(477,522,l),
(476,523,l),
(358,208,l),
(362,217,l),
(223,520,l),
(33,520,l),
(275,-15,l)
);
},
{
closed = 1;
nodes = (
(524,-15,l),
(745,520,l),
(743,520,l),
(610,198,l),
(616,209,l),
(477,523,l),
(476,523,l),
(389,290,l),
(523,-15,l)
);
}
);
width = 777;
},
{
anchors = (
{
name = bottom;
pos = (448,0);
},
{
name = top;
pos = (482,512);
}
);
associatedMasterId = "2AEC198B-4747-4E5F-80A7-B5A71C2761F9";
attr = {
axisRules = (
{
max = 400;
},
{
max = 97;
},
{
min = 700;
}
);
};
background = {
anchors = (
{
name = bottom;
pos = (456,0);
},
{
name = top;
pos = (490,512);
}
);
shapes = (
{
closed = 1;
nodes = (
(289,-15,l),
(498,518,l),
(497,519,l),
(331,96,l),
(335,105,l),
(194,441,l),
(183,464,o),
(178,488,o),
(177,514,c),
(152,512,o),
(134,512,o),
(113,512,cs),
(80,512,o),
(53,513,o),
(7,514,c),
(7,513,l),
(45,511,o),
(73,494,o),
(88,458,cs),
(288,-15,l)
);
},
{
closed = 1;
nodes = (
(656,-15,l),
(806,387,ls),
(834,462,o),
(862,500,o),
(898,513,c),
(898,514,l),
(885,513,o),
(871,513,o),
(854,513,cs),
(841,513,o),
(831,513,o),
(817,514,c),
(824,473,o),
(816,421,o),
(795,362,cs),
(693,88,l),
(698,99,l),
(498,519,l),
(497,519,l),
(452,404,l),
(655,-15,l)
);
}
);
};
hints = (
{
name = "_cap.LC-diagonal-out-serif";
options = 2;
origin = (0,5);
type = Cap;
},
{
name = "_cap.LC-thin-diagonal-out-serif";
options = 4;
origin = (1,1);
scale = (1.04046,1);
type = Cap;
}
);
layerId = "6C7CC70F-E54B-4EBA-B643-20F9D1F86855";
name = "23 Jan 22, 11:43";
shapes = (
{
closed = 1;
nodes = (
(281,-15,l),
(490,518,l),
(489,519,l),
(323,96,l),
(328,105,l),
(156,512,l),
(58,512,l),
(280,-15,l)
);
},
{
closed = 1;
nodes = (
(648,-15,l),
(845,512,l),
(843,512,l),
(685,88,l),
(690,99,l),
(490,519,l),
(489,519,l),
(444,405,l),
(647,-15,l)
);
}
);
width = 892;
},
{
anchors = (
{
name = bottom;
pos = (395,0);
},
{
name = top;
pos = (421,512);
}
);
associatedMasterId = "DF17D77B-A5C4-4843-826A-BC0F1C4CB224";
attr = {
axisRules = (
{
max = 400;
},
{
max = 97;
},
{
min = 700;
}
);
};
background = {
anchors = (
{
name = bottom;
pos = (396,0);
},
{
name = top;
pos = (422,512);
}
);
shapes = (
{
closed = 1;
nodes = (
(242,-15,l),
(429,518,l),
(428,519,l),
(277,90,l),
(288,118,l),
(173,435,ls),
(164,459,o),
(157,486,o),
(155,514,c),
(136,512,o),
(117,511,o),
(94,511,cs),
(59,511,o),
(33,512,o),
(0,514,c),
(0,513,l),
(31,512,o),
(55,495,o),
(68,458,cs),
(241,-15,l)
);
},
{
closed = 1;
nodes = (
(560,-15,l),
(693,381,ls),
(723,470,o),
(748,504,o),
(788,513,c),
(788,514,l),
(774,513,o),
(760,513,o),
(743,513,cs),
(730,513,o),
(721,513,o),
(707,514,c),
(714,473,o),
(706,421,o),
(685,362,cs),
(588,73,l),
(602,111,l),
(430,519,l),
(428,519,l),
(385,397,l),
(559,-15,l)
);
}
);
};
hints = (
{
name = "_cap.LC-diagonal-out-serif";
options = 2;
origin = (0,5);
type = Cap;
},
{
name = "_cap.LC-thin-diagonal-out-serif";
options = 4;
origin = (1,1);
scale = (1.04046,1);
type = Cap;
}
);
layerId = "D875D432-AA93-4A54-BE5F-9C1323A1D897";
name = "23 Jan 22, 11:43";
shapes = (
{
closed = 1;
nodes = (
(241,-15,l),
(428,518,l),
(427,519,l),
(283,110,l),
(287,118,l),
(143,512,l),
(47,512,l),
(240,-15,l)
);
},
{
closed = 1;
nodes = (
(559,-15,l),
(736,512,l),
(734,512,l),
(587,73,l),
(601,111,l),
(429,519,l),
(427,519,l),
(384,397,l),
(558,-15,l)
);
}
);
width = 787;
}
);
metricLeft = "=_corner.UC-right-diagonal-serif";
metricRight = "=|_corner.UC-right-diagonal-serif";
unicode = 119;
}
